<?xml version="1.0" encoding="iso-8859-1"?>
<!-- Generator: Adobe Illustrator 19.0.0, SVG Export Plug-In . SVG Version: 6.00 Build 0)  -->
<svg version="1.1" id="Capa_1" xmlns="http://www.w3.org/2000/svg" xmlns:xlink="http://www.w3.org/1999/xlink" x="0px" y="0px"
	 viewBox="0 0 512 512" style="enable-background:new 0 0 512 512;" xml:space="preserve">
<path style="fill:#495A79;" d="M467,106.001c-8.291,0-15-6.709-15-15v-30c0-8.291,6.709-15,15-15s15,6.709,15,15v30
	C482,99.292,475.291,106.001,467,106.001z"/>
<path style="fill:#42516D;" d="M224.985,346c-2.256,0-4.541-0.513-6.694-1.582c-19.028-9.507-33.076-26.763-38.54-47.329
	c-5.464-20.566-1.831-42.524,9.976-60.22l2.798-4.204c4.6-6.885,13.872-8.745,20.815-4.146c6.885,4.614,8.745,13.916,4.146,20.815
	l-2.798,4.189c-7.031,10.532-9.199,23.613-5.947,35.859c3.252,12.261,11.631,22.529,22.969,28.198
	c7.412,3.706,10.415,12.715,6.709,20.127C235.796,342.969,230.493,346,224.985,346z"/>
<path style="fill:#495A79;" d="M360,181.001c0-8.401-6.599-15-15-15H15c-4.2,0-7.8,1.8-10.8,4.2c-1.201,1.5-2.4,3-3.001,4.8
	c-0.899,1.8-1.199,3.9-1.199,6v39.3c0,15,4.2,29.399,12.599,41.1c9.6,14.399,13.2,31.8,10.501,48.9L4.799,414.7
	c-1.5,13.2,2.401,26.1,10.801,36c8.699,9.6,20.999,15.3,33.9,15.3h59.4c22.2,0,41.4-16.5,44.7-38.699L165,346h15h45
	c24.814,0,45-20.186,45-45c0-24.901,20.099-45,45-45h30c8.401,0,15-6.599,15-15V181.001z M240,301c0,8.276-6.724,15-15,15h-45
	c-16.5,0-30-13.5-30-30s13.5-30,30-30h60V301z"/>
<path style="fill:#42516D;" d="M482,241.001c0,8.291-6.709,15-15,15H330v-75c0-8.291,6.709-15,15-15h122c8.291,0,15,6.709,15,15
	V241.001z"/>
<path style="fill:#66728B;" d="M512,181.001c0,8.291-6.709,15-15,15H195c-6.46,0-12.188-4.131-14.224-10.254l-30-90
	c-1.538-4.57-0.762-9.609,2.051-13.521c2.827-3.911,7.354-6.225,12.173-6.225h332c8.291,0,15,6.709,15,15V181.001z"/>
<path style="fill:#6F7D96;" d="M149.099,176.202l-3.299-10.201l-26.7-79.799c-1.801-6.001-7.501-10.201-14.1-10.201H75
	c-5.099,0-9.6,2.401-12.599,6.599L4.2,170.201c-1.201,1.5-2.4,3-3.001,4.8c-0.899,1.8-1.199,3.9-1.199,6v15h135
	c4.799,0,9.3-2.401,12.299-6.301C150,185.799,150.901,180.701,149.099,176.202z"/>
<path style="fill:#949FB3;" d="M215.806,196.001h-91.611l-40-120h91.611L215.806,196.001z"/>
<g>
</g>
<g>
</g>
<g>
</g>
<g>
</g>
<g>
</g>
<g>
</g>
<g>
</g>
<g>
</g>
<g>
</g>
<g>
</g>
<g>
</g>
<g>
</g>
<g>
</g>
<g>
</g>
<g>
</g>
</svg>
