<?xml version="1.0" encoding="iso-8859-1"?>
<!-- Generator: Adobe Illustrator 19.0.0, SVG Export Plug-In . SVG Version: 6.00 Build 0)  -->
<svg version="1.1" id="Capa_1" xmlns="http://www.w3.org/2000/svg" xmlns:xlink="http://www.w3.org/1999/xlink" x="0px" y="0px"
	 viewBox="0 0 58 58" style="enable-background:new 0 0 58 58;" xml:space="preserve">
<g>
	<path style="fill:#E9CA8B;" d="M15,57H3V37c0-3.314,2.686-9,6-9h0c3.314,0,6,5.686,6,9V57z"/>
	<rect x="3" y="40" style="fill:#F1DDB7;" width="12" height="13"/>
	
		<line style="fill:none;stroke:#F0C419;stroke-width:2;stroke-linecap:round;stroke-miterlimit:10;" x1="1" y1="57" x2="17" y2="57"/>
	<path style="fill:#E9CA8B;" d="M35,57H23V37c0-3.314,2.686-9,6-9h0c3.314,0,6,5.686,6,9V57z"/>
	<rect x="23" y="40" style="fill:#F1DDB7;" width="12" height="13"/>
	
		<line style="fill:none;stroke:#F0C419;stroke-width:2;stroke-linecap:round;stroke-miterlimit:10;" x1="21" y1="57" x2="37" y2="57"/>
	<path style="fill:#E9CA8B;" d="M55,57H43V37c0-3.314,2.686-9,6-9h0c3.314,0,6,5.686,6,9V57z"/>
	<rect x="43" y="40" style="fill:#F1DDB7;" width="12" height="13"/>
	
		<line style="fill:none;stroke:#F0C419;stroke-width:2;stroke-linecap:round;stroke-miterlimit:10;" x1="41" y1="57" x2="57" y2="57"/>
	<path style="fill:#E9CA8B;" d="M13,1h12v20c0,3.314-2.686,9-6,9h0c-3.314,0-6-5.686-6-9V1z"/>
	<rect x="13" y="5" style="fill:#F1DDB7;" width="12" height="13"/>
	
		<line style="fill:none;stroke:#F0C419;stroke-width:2;stroke-linecap:round;stroke-miterlimit:10;" x1="27" y1="1" x2="11" y2="1"/>
	<path style="fill:#E9CA8B;" d="M33,1h12v20c0,3.314-2.686,9-6,9h0c-3.314,0-6-5.686-6-9V1z"/>
	<rect x="33" y="5" style="fill:#F1DDB7;" width="12" height="13"/>
	
		<line style="fill:none;stroke:#F0C419;stroke-width:2;stroke-linecap:round;stroke-miterlimit:10;" x1="47" y1="1" x2="31" y2="1"/>
</g>
<g>
</g>
<g>
</g>
<g>
</g>
<g>
</g>
<g>
</g>
<g>
</g>
<g>
</g>
<g>
</g>
<g>
</g>
<g>
</g>
<g>
</g>
<g>
</g>
<g>
</g>
<g>
</g>
<g>
</g>
</svg>
