<?xml version="1.0" encoding="iso-8859-1"?>
<!-- Generator: Adobe Illustrator 19.0.0, SVG Export Plug-In . SVG Version: 6.00 Build 0)  -->
<svg version="1.1" id="Layer_1" xmlns="http://www.w3.org/2000/svg" xmlns:xlink="http://www.w3.org/1999/xlink" x="0px" y="0px"
	 viewBox="0 0 512 512" style="enable-background:new 0 0 512 512;" xml:space="preserve">
<path style="fill:#FFC6AA;" d="M265.372,502.973l-19.83-0.041c-69.485-0.142-125.698-56.587-125.556-126.072l0.269-131.177
	c0.075-36.139,29.431-65.375,65.57-65.301l140.587,0.288c36.139,0.075,65.375,29.431,65.301,65.57l-0.269,131.177
	C391.302,446.902,334.857,503.115,265.372,502.973z"/>
<path style="fill:#FFA789;" d="M348.777,184.586c5.943,9.877,9.353,21.449,9.327,33.818l-0.269,131.177
	c-0.142,69.486-56.587,125.698-126.072,125.556l-19.83-0.041c-22.397-0.046-43.411-5.949-61.608-16.245
	c23.018,26.913,57.197,44.005,95.389,44.083l19.83,0.041c69.485,0.142,125.93-56.07,126.072-125.556l0.269-131.177
	C391.945,217.896,373.969,193.73,348.777,184.586z"/>
<g>
	<path style="fill:#FF9376;" d="M115.122,386.676l4.845,0.01l0.259-126.059l-4.845-0.01c-20.201-0.041-36.611,16.301-36.652,36.502
		l-0.109,52.904C78.578,370.224,94.921,386.635,115.122,386.676z"/>
	<path style="fill:#FF9376;" d="M396.269,387.253l-4.845-0.01l0.259-126.059l4.845,0.01c20.201,0.041,36.543,16.452,36.502,36.652
		l-0.109,52.904C432.879,370.952,416.47,387.295,396.269,387.253z"/>
</g>
<path style="fill:#EE3446;" d="M255.018,277.42c-0.006,0-0.012,0-0.018,0c-2.418-0.005-4.688-0.951-6.393-2.664
	c-1.706-1.713-2.642-3.987-2.637-6.404c0.005-2.417,0.951-4.687,2.664-6.393c1.708-1.701,3.974-2.637,6.385-2.637
	c0.006,0,0.013,0,0.019,0c4.989,0.01,9.039,4.077,9.029,9.067v0.001C264.056,273.372,259.998,277.42,255.018,277.42z"/>
<g>
	<circle style="fill:#D65A4D;" cx="102.166" cy="244.132" r="18.097"/>
	<circle style="fill:#D65A4D;" cx="110.708" cy="208.975" r="18.097"/>
	<circle style="fill:#D65A4D;" cx="133.293" cy="180.707" r="18.097"/>
	<circle style="fill:#D65A4D;" cx="135.621" cy="144.573" r="18.097"/>
	<circle style="fill:#D65A4D;" cx="168.064" cy="128.527" r="18.097"/>
	<circle style="fill:#D65A4D;" cx="183.929" cy="95.615" r="18.097"/>
	<circle style="fill:#D65A4D;" cx="204.391" cy="63.329" r="18.097"/>
	<circle style="fill:#D65A4D;" cx="240.585" cy="63.402" r="18.097"/>
	<circle style="fill:#D65A4D;" cx="276.779" cy="63.476" r="18.097"/>
	<circle style="fill:#D65A4D;" cx="240.742" cy="27.147" r="18.097"/>
	<circle style="fill:#D65A4D;" cx="276.936" cy="27.222" r="18.097"/>
	<circle style="fill:#D65A4D;" cx="312.974" cy="63.55" r="18.097"/>
	<circle style="fill:#D65A4D;" cx="222.427" cy="94.722" r="18.097"/>
	<circle style="fill:#D65A4D;" cx="258.622" cy="94.794" r="18.097"/>
	<circle style="fill:#D65A4D;" cx="294.816" cy="94.867" r="18.097"/>
	<circle style="fill:#D65A4D;" cx="333.23" cy="96.396" r="18.097"/>
	<circle style="fill:#D65A4D;" cx="204.27" cy="126.126" r="18.097"/>
	<circle style="fill:#D65A4D;" cx="240.464" cy="126.199" r="18.097"/>
	<circle style="fill:#D65A4D;" cx="276.659" cy="126.283" r="18.097"/>
	<circle style="fill:#D65A4D;" cx="312.853" cy="126.356" r="18.097"/>
	<circle style="fill:#D65A4D;" cx="349.035" cy="128.889" r="18.097"/>
	<circle style="fill:#D65A4D;" cx="381.465" cy="144.984" r="18.097"/>
	<circle style="fill:#D65A4D;" cx="165.687" cy="164.709" r="18.097"/>
	<circle style="fill:#D65A4D;" cx="201.893" cy="162.321" r="18.097"/>
	<circle style="fill:#D65A4D;" cx="238.087" cy="162.393" r="18.097"/>
	<circle style="fill:#D65A4D;" cx="274.27" cy="162.465" r="18.097"/>
	<circle style="fill:#D65A4D;" cx="310.464" cy="162.538" r="18.097"/>
	<circle style="fill:#D65A4D;" cx="346.658" cy="165.083" r="18.097"/>
	<circle style="fill:#D65A4D;" cx="378.811" cy="181.166" r="18.097"/>
	<circle style="fill:#D65A4D;" cx="401.312" cy="209.554" r="18.097"/>
	<circle style="fill:#D65A4D;" cx="409.817" cy="244.711" r="18.097"/>
</g>
<path style="fill:#953A3C;" d="M425.19,222.035c2.044-3.812,3.207-8.164,3.207-12.784c0-13.421-9.793-24.592-22.607-26.758
	c0.03-0.521,0.049-1.044,0.049-1.572c0-6.279-2.149-12.061-5.74-16.665c5.124-4.941,8.32-11.867,8.32-19.529
	c0-14.969-12.178-27.146-27.146-27.146c-2.522,0-4.96,0.352-7.279,0.999c-2.741-6.792-8.149-12.228-14.923-15.004
	c0.656-2.336,1.016-4.795,1.016-7.337c0-12.883-9.023-23.689-21.08-26.454c0.491-2.039,0.758-4.164,0.758-6.351
	c0-14.969-12.178-27.146-27.146-27.146c-4.212,0-8.203,0.964-11.763,2.683c1.739-3.576,2.715-7.589,2.715-11.825
	c0-14.969-12.178-27.146-27.146-27.146c-6.947,0-13.291,2.627-18.097,6.935c-4.807-4.308-11.15-6.935-18.097-6.935
	c-14.968,0-27.146,12.177-27.146,27.146c0,4.236,0.977,8.249,2.715,11.825c-3.562-1.719-7.553-2.683-11.763-2.683
	c-14.968,0-27.146,12.177-27.146,27.146c0,2.018,0.228,3.984,0.648,5.878c-12.042,2.775-21.051,13.575-21.051,26.447
	c0,2.71,0.404,5.325,1.146,7.796c-6.821,2.78-12.264,8.255-15.001,15.097c-2.296-0.632-4.709-0.977-7.203-0.977
	c-14.968,0-27.146,12.177-27.146,27.146c0,6.345,2.193,12.183,5.855,16.81c-5.001,4.926-8.109,11.77-8.109,19.328
	c0,0.525,0.019,1.045,0.048,1.562c-12.798,2.18-22.576,13.342-22.576,26.754c0,4.647,1.176,9.024,3.243,12.854
	c-7.072,4.906-11.716,13.077-11.716,22.316c0,14.969,12.178,27.146,27.146,27.146s27.146-12.177,27.146-27.146
	c0-4.647-1.176-9.024-3.243-12.854c7.072-4.906,11.716-13.077,11.716-22.316c0-0.525-0.019-1.045-0.048-1.562
	c9.388-1.599,17.144-8.032,20.614-16.64c2.287,0.629,4.692,0.97,7.176,0.97c7.631,0,14.532-3.169,19.468-8.256
	c4.614,3.621,10.419,5.789,16.727,5.789c6.947,0,13.291-2.627,18.097-6.935c4.807,4.308,11.15,6.935,18.097,6.935
	c6.947,0,13.291-2.627,18.097-6.935c4.807,4.308,11.15,6.935,18.097,6.935s13.291-2.627,18.097-6.935
	c4.807,4.308,11.15,6.935,18.097,6.935c6.306,0,12.113-2.168,16.727-5.789c4.937,5.087,11.838,8.256,19.468,8.256
	c2.432,0,4.789-0.327,7.033-0.929c3.489,8.578,11.241,14.98,20.613,16.565c-0.03,0.521-0.049,1.044-0.049,1.572
	c0,9.269,4.673,17.464,11.784,22.364c-2.044,3.812-3.207,8.164-3.207,12.784c0,14.969,12.178,27.146,27.146,27.146
	s27.146-12.177,27.146-27.146C436.973,235.129,432.3,226.935,425.19,222.035z M410.3,209.25c0,4.217-2.903,7.759-6.812,8.758
	c-0.169,0.041-0.339,0.077-0.507,0.121c-0.561,0.109-1.138,0.17-1.73,0.17c-4.99,0-9.049-4.059-9.049-9.049
	c0-4.99,4.059-9.049,9.049-9.049C406.241,200.202,410.3,204.261,410.3,209.25z M345.512,120.287
	c1.024-0.403,2.137-0.633,3.302-0.633c4.99,0,9.049,4.059,9.049,9.049s-4.059,9.049-9.049,9.049s-9.049-4.059-9.049-9.049
	c0-3.312,1.794-6.206,4.456-7.783C344.658,120.72,345.089,120.509,345.512,120.287z M267.377,94.788c0,4.99-4.059,9.049-9.049,9.049
	c-4.99,0-9.049-4.059-9.049-9.049c0-4.99,4.059-9.049,9.049-9.049C263.319,85.74,267.377,89.799,267.377,94.788z M294.523,103.837
	c-4.99,0-9.049-4.059-9.049-9.049c0-4.99,4.059-9.049,9.049-9.049s9.049,4.059,9.049,9.049
	C303.571,99.778,299.513,103.837,294.523,103.837z M231.183,94.788c0,4.99-4.059,9.049-9.049,9.049s-9.049-4.059-9.049-9.049
	c0-4.99,4.059-9.049,9.049-9.049S231.183,89.799,231.183,94.788z M213.086,126.235c0,4.99-4.059,9.049-9.049,9.049
	c-4.99,0-9.049-4.059-9.049-9.049c0-4.99,4.059-9.049,9.049-9.049C209.027,117.186,213.086,121.246,213.086,126.235z
	 M240.231,117.186c4.99,0,9.049,4.059,9.049,9.049c0,4.99-4.059,9.049-9.049,9.049c-4.99,0-9.049-4.059-9.049-9.049
	C231.183,121.245,235.241,117.186,240.231,117.186z M276.426,117.186c4.99,0,9.049,4.059,9.049,9.049
	c0,4.99-4.059,9.049-9.049,9.049s-9.049-4.059-9.049-9.049C267.377,121.245,271.436,117.186,276.426,117.186z M312.62,117.186
	c4.99,0,9.049,4.059,9.049,9.049c0,4.99-4.059,9.049-9.049,9.049c-4.99,0-9.049-4.059-9.049-9.049
	C303.571,121.245,307.63,117.186,312.62,117.186z M276.426,72.483c-4.99,0-9.049-4.059-9.049-9.049s4.059-9.049,9.049-9.049
	s9.049,4.059,9.049,9.049S281.416,72.483,276.426,72.483z M240.231,54.386c4.99,0,9.049,4.059,9.049,9.049s-4.059,9.049-9.049,9.049
	c-4.99,0-9.049-4.059-9.049-9.049S235.241,54.386,240.231,54.386z M176.891,128.702c0,4.99-4.059,9.049-9.049,9.049
	s-9.049-4.059-9.049-9.049c0-4.99,4.059-9.049,9.049-9.049S176.891,123.713,176.891,128.702z M390.321,144.725
	c0,4.99-4.059,9.049-9.049,9.049c-4.99,0-9.049-4.059-9.049-9.049s4.059-9.049,9.049-9.049
	C386.262,135.677,390.321,139.735,390.321,144.725z M341.991,96.238c0,3.312-1.794,6.206-4.456,7.783
	c-0.437,0.2-0.866,0.41-1.29,0.633c-1.024,0.403-2.137,0.633-3.302,0.633c-4.99,0-9.049-4.059-9.049-9.049s4.059-9.049,9.049-9.049
	C337.933,87.191,341.991,91.248,341.991,96.238z M312.62,54.386c4.99,0,9.049,4.059,9.049,9.049s-4.059,9.049-9.049,9.049
	c-4.99,0-9.049-4.059-9.049-9.049S307.63,54.386,312.62,54.386z M276.426,18.098c4.99,0,9.049,4.059,9.049,9.049
	s-4.059,9.049-9.049,9.049s-9.049-4.059-9.049-9.049S271.436,18.098,276.426,18.098z M240.231,18.098
	c4.99,0,9.049,4.059,9.049,9.049s-4.059,9.049-9.049,9.049c-4.99,0-9.049-4.059-9.049-9.049S235.241,18.098,240.231,18.098z
	 M204.037,54.386c4.99,0,9.049,4.059,9.049,9.049s-4.059,9.049-9.049,9.049c-4.99,0-9.049-4.059-9.049-9.049
	S199.047,54.386,204.037,54.386z M183.634,86.711c4.99,0,9.049,4.059,9.049,9.049c0,4.99-4.059,9.049-9.049,9.049
	s-9.049-4.059-9.049-9.049C174.586,90.769,178.644,86.711,183.634,86.711z M135.431,135.772c4.99,0,9.049,4.059,9.049,9.049
	s-4.059,9.049-9.049,9.049s-9.049-4.059-9.049-9.049S130.441,135.772,135.431,135.772z M110.65,200.226
	c4.99,0,9.049,4.059,9.049,9.049s-4.059,9.049-9.049,9.049c-0.573,0-1.13-0.059-1.673-0.162c-0.21-0.054-0.423-0.099-0.635-0.148
	c-3.873-1.024-6.739-4.548-6.739-8.739C101.601,204.286,105.66,200.226,110.65,200.226z M102.175,253.493
	c-4.99,0-9.049-4.059-9.049-9.049s4.059-9.049,9.049-9.049c0.573,0,1.13,0.059,1.673,0.162c0.21,0.054,0.423,0.099,0.635,0.148
	c3.873,1.024,6.739,4.548,6.739,8.739C111.224,249.434,107.165,253.493,102.175,253.493z M133.177,190.008
	c-4.99,0-9.049-4.059-9.049-9.049c0-4.99,4.059-9.049,9.049-9.049c3.265,0,6.122,1.743,7.713,4.341
	c0.227,0.49,0.464,0.975,0.719,1.449c0.393,1.012,0.617,2.109,0.617,3.259C142.226,185.95,138.166,190.008,133.177,190.008z
	 M165.537,173.945c-3.265,0-6.122-1.743-7.713-4.341c-0.227-0.49-0.464-0.975-0.719-1.449c-0.393-1.012-0.617-2.109-0.617-3.259
	c0-4.99,4.059-9.049,9.049-9.049c4.99,0,9.049,4.059,9.049,9.049C174.586,169.886,170.527,173.945,165.537,173.945z
	 M201.731,171.478c-4.99,0-9.049-4.059-9.049-9.049s4.059-9.049,9.049-9.049s9.049,4.059,9.049,9.049
	S206.721,171.478,201.731,171.478z M237.926,171.478c-4.99,0-9.049-4.059-9.049-9.049s4.059-9.049,9.049-9.049
	s9.049,4.059,9.049,9.049S242.916,171.478,237.926,171.478z M274.12,171.478c-4.99,0-9.049-4.059-9.049-9.049
	s4.059-9.049,9.049-9.049c4.99,0,9.049,4.059,9.049,9.049S279.11,171.478,274.12,171.478z M310.314,171.478
	c-4.99,0-9.049-4.059-9.049-9.049s4.059-9.049,9.049-9.049c4.99,0,9.049,4.059,9.049,9.049S315.304,171.478,310.314,171.478z
	 M337.46,164.896c0-4.99,4.059-9.049,9.049-9.049c4.99,0,9.049,4.059,9.049,9.049c0,0.837-0.123,1.644-0.337,2.414
	c-0.58,0.997-1.104,2.03-1.556,3.103c-1.656,2.143-4.244,3.531-7.156,3.531C341.519,173.945,337.46,169.886,337.46,164.896z
	 M369.645,180.92c0-0.837,0.123-1.644,0.337-2.414c0.58-0.997,1.104-2.031,1.556-3.103c1.656-2.143,4.244-3.531,7.156-3.531
	c4.99,0,9.049,4.059,9.049,9.049s-4.059,9.049-9.049,9.049C373.704,189.968,369.645,185.91,369.645,180.92z M409.827,253.447
	c-4.99,0-9.049-4.059-9.049-9.049c0-4.217,2.903-7.759,6.812-8.758c0.169-0.041,0.339-0.077,0.507-0.121
	c0.561-0.109,1.138-0.17,1.73-0.17c4.99,0,9.049,4.059,9.049,9.049S414.817,253.447,409.827,253.447z"/>
<path d="M428.051,264.501c5.477-4.969,8.922-12.141,8.922-20.102c0-9.269-4.673-17.464-11.784-22.364
	c2.044-3.812,3.207-8.164,3.207-12.784c0-13.421-9.793-24.592-22.607-26.758c0.03-0.521,0.049-1.044,0.049-1.572
	c0-6.279-2.149-12.061-5.74-16.665c5.124-4.941,8.32-11.867,8.32-19.529c0-14.969-12.178-27.146-27.146-27.146
	c-2.522,0-4.96,0.352-7.279,0.999c-2.741-6.792-8.149-12.228-14.923-15.004c0.656-2.336,1.016-4.795,1.016-7.337
	c0-12.883-9.023-23.689-21.08-26.454c0.491-2.039,0.758-4.164,0.758-6.351c0-14.969-12.178-27.146-27.146-27.146
	c-4.212,0-8.203,0.964-11.763,2.683c1.739-3.576,2.715-7.589,2.715-11.825C303.57,12.177,291.392,0,276.424,0
	c-6.947,0-13.291,2.627-18.097,6.935C253.521,2.627,247.177,0,240.23,0c-14.968,0-27.146,12.177-27.146,27.146
	c0,4.236,0.977,8.249,2.715,11.825c-3.562-1.719-7.553-2.683-11.763-2.683c-14.968,0-27.146,12.177-27.146,27.146
	c0,2.018,0.228,3.984,0.648,5.878c-12.042,2.775-21.051,13.575-21.051,26.447c0,2.71,0.404,5.325,1.146,7.796
	c-6.821,2.78-12.264,8.255-15.001,15.097c-2.296-0.632-4.709-0.977-7.203-0.977c-14.968,0-27.146,12.177-27.146,27.146
	c0,6.345,2.193,12.183,5.855,16.81c-5.001,4.926-8.109,11.77-8.109,19.328c0,0.525,0.019,1.045,0.048,1.562
	c-12.798,2.18-22.576,13.342-22.576,26.754c0,4.647,1.176,9.024,3.243,12.854c-7.072,4.906-11.716,13.077-11.716,22.316
	c0,7.949,3.435,15.111,8.898,20.079c-8.694,8.313-14.125,20.009-14.125,32.959v52.905c0,24.186,18.92,44.027,42.735,45.524
	C121.701,461.418,178.093,512,246.086,512h19.83c48.783,0,93.904-26.469,117.756-69.077c2.441-4.36,0.886-9.875-3.475-12.316
	c-4.364-2.441-9.875-0.884-12.316,3.476c-20.656,36.898-59.727,59.82-101.965,59.82h-19.83
	c-64.385,0-116.765-52.382-116.765-116.765V260.904V245.96c0-31.092,25.295-56.386,56.386-56.386h140.587
	c21.767,0,40.68,12.406,50.074,30.513c0.333,0.761,0.697,1.506,1.095,2.228c3.34,7.197,5.216,15.204,5.216,23.646v14.945v116.233
	c0,5.99-0.457,12.009-1.36,17.887c-0.759,4.939,2.631,9.558,7.571,10.317c4.939,0.754,9.559-2.631,10.317-7.571
	c0.094-0.616,0.163-1.24,0.249-1.858c23.82-1.494,42.743-21.335,42.743-45.525v-52.905
	C442.201,284.522,436.759,272.815,428.051,264.501z M345.512,120.287c1.024-0.403,2.137-0.633,3.302-0.633
	c4.99,0,9.049,4.059,9.049,9.049s-4.059,9.049-9.049,9.049s-9.049-4.059-9.049-9.049c0-3.312,1.794-6.206,4.456-7.783
	C344.658,120.72,345.089,120.509,345.512,120.287z M353.664,170.414c-1.656,2.143-4.244,3.531-7.156,3.531
	c-4.99,0-9.049-4.059-9.049-9.049s4.059-9.049,9.049-9.049c4.99,0,9.049,4.059,9.049,9.049c0,0.837-0.123,1.644-0.337,2.414
	C354.64,168.308,354.116,169.342,353.664,170.414z M157.824,169.604c-0.227-0.49-0.464-0.975-0.719-1.449
	c-0.393-1.012-0.617-2.109-0.617-3.259c0-4.99,4.059-9.049,9.049-9.049s9.049,4.059,9.049,9.049c0,4.99-4.059,9.049-9.049,9.049
	C162.272,173.945,159.416,172.203,157.824,169.604z M312.62,135.283c-4.99,0-9.049-4.059-9.049-9.049
	c0-4.99,4.059-9.049,9.049-9.049c4.99,0,9.049,4.059,9.049,9.049C321.669,131.225,317.61,135.283,312.62,135.283z M249.28,94.788
	c0-4.99,4.059-9.049,9.049-9.049c4.99,0,9.049,4.059,9.049,9.049c0,4.99-4.059,9.049-9.049,9.049
	C253.339,103.837,249.28,99.778,249.28,94.788z M240.231,117.186c4.99,0,9.049,4.059,9.049,9.049c0,4.99-4.059,9.049-9.049,9.049
	c-4.99,0-9.049-4.059-9.049-9.049C231.183,121.245,235.241,117.186,240.231,117.186z M276.426,117.186
	c4.99,0,9.049,4.059,9.049,9.049c0,4.99-4.059,9.049-9.049,9.049s-9.049-4.059-9.049-9.049
	C267.377,121.245,271.436,117.186,276.426,117.186z M294.523,103.837c-4.99,0-9.049-4.059-9.049-9.049
	c0-4.99,4.059-9.049,9.049-9.049s9.049,4.059,9.049,9.049C303.571,99.778,299.513,103.837,294.523,103.837z M231.183,94.788
	c0,4.99-4.059,9.049-9.049,9.049s-9.049-4.059-9.049-9.049c0-4.99,4.059-9.049,9.049-9.049S231.183,89.799,231.183,94.788z
	 M213.086,126.235c0,4.99-4.059,9.049-9.049,9.049c-4.99,0-9.049-4.059-9.049-9.049c0-4.99,4.059-9.049,9.049-9.049
	C209.027,117.186,213.086,121.246,213.086,126.235z M276.426,72.483c-4.99,0-9.049-4.059-9.049-9.049s4.059-9.049,9.049-9.049
	s9.049,4.059,9.049,9.049S281.416,72.483,276.426,72.483z M240.231,54.386c4.99,0,9.049,4.059,9.049,9.049s-4.059,9.049-9.049,9.049
	c-4.99,0-9.049-4.059-9.049-9.049S235.241,54.386,240.231,54.386z M378.694,189.968c-4.99,0-9.049-4.059-9.049-9.049
	c0-0.837,0.123-1.644,0.337-2.414c0.58-0.997,1.104-2.031,1.556-3.103c1.656-2.143,4.244-3.531,7.156-3.531
	c4.99,0,9.049,4.059,9.049,9.049S383.683,189.968,378.694,189.968z M176.891,128.702c0,4.99-4.059,9.049-9.049,9.049
	s-9.049-4.059-9.049-9.049c0-4.99,4.059-9.049,9.049-9.049S176.891,123.713,176.891,128.702z M133.177,171.911
	c3.265,0,6.122,1.743,7.713,4.341c0.227,0.49,0.464,0.975,0.719,1.449c0.393,1.012,0.617,2.109,0.617,3.259
	c0,4.99-4.059,9.049-9.049,9.049c-4.99,0-9.049-4.059-9.049-9.049S128.187,171.911,133.177,171.911z M192.683,162.429
	c0-4.99,4.059-9.049,9.049-9.049s9.049,4.059,9.049,9.049s-4.059,9.049-9.049,9.049S192.683,167.419,192.683,162.429z
	 M228.877,162.429c0-4.99,4.059-9.049,9.049-9.049s9.049,4.059,9.049,9.049s-4.059,9.049-9.049,9.049
	S228.877,167.419,228.877,162.429z M265.072,162.429c0-4.99,4.059-9.049,9.049-9.049c4.99,0,9.049,4.059,9.049,9.049
	s-4.059,9.049-9.049,9.049C269.13,171.478,265.072,167.419,265.072,162.429z M301.266,162.429c0-4.99,4.059-9.049,9.049-9.049
	c4.99,0,9.049,4.059,9.049,9.049s-4.059,9.049-9.049,9.049C305.324,171.478,301.266,167.419,301.266,162.429z M408.097,235.52
	c0.561-0.109,1.138-0.17,1.73-0.17c4.99,0,9.049,4.059,9.049,9.049s-4.059,9.049-9.049,9.049c-4.99,0-9.049-4.059-9.049-9.049
	c0-4.217,2.903-7.759,6.812-8.758C407.76,235.601,407.931,235.565,408.097,235.52z M410.3,209.25c0,4.217-2.903,7.759-6.812,8.758
	c-0.169,0.041-0.339,0.077-0.507,0.121c-0.561,0.109-1.138,0.17-1.73,0.17c-3.259,0-6.112-1.737-7.705-4.329
	c-0.228-0.478-0.473-0.945-0.711-1.416c-0.404-1.024-0.633-2.137-0.633-3.303c0-4.99,4.059-9.049,9.049-9.049
	C406.241,200.202,410.3,204.261,410.3,209.25z M390.321,144.725c0,4.99-4.059,9.049-9.049,9.049c-4.99,0-9.049-4.059-9.049-9.049
	s4.059-9.049,9.049-9.049C386.262,135.677,390.321,139.735,390.321,144.725z M341.991,96.238c0,3.312-1.794,6.206-4.456,7.783
	c-0.437,0.2-0.866,0.41-1.29,0.633c-1.024,0.403-2.137,0.633-3.302,0.633c-4.99,0-9.049-4.059-9.049-9.049s4.059-9.049,9.049-9.049
	C337.933,87.191,341.991,91.248,341.991,96.238z M312.62,54.386c4.99,0,9.049,4.059,9.049,9.049s-4.059,9.049-9.049,9.049
	c-4.99,0-9.049-4.059-9.049-9.049S307.63,54.386,312.62,54.386z M276.426,18.098c4.99,0,9.049,4.059,9.049,9.049
	s-4.059,9.049-9.049,9.049s-9.049-4.059-9.049-9.049S271.436,18.098,276.426,18.098z M240.231,18.098
	c4.99,0,9.049,4.059,9.049,9.049s-4.059,9.049-9.049,9.049c-4.99,0-9.049-4.059-9.049-9.049S235.241,18.098,240.231,18.098z
	 M204.037,54.386c4.99,0,9.049,4.059,9.049,9.049s-4.059,9.049-9.049,9.049c-4.99,0-9.049-4.059-9.049-9.049
	S199.047,54.386,204.037,54.386z M183.634,86.711c4.99,0,9.049,4.059,9.049,9.049c0,4.99-4.059,9.049-9.049,9.049
	s-9.049-4.059-9.049-9.049C174.586,90.769,178.644,86.711,183.634,86.711z M135.431,135.772c4.99,0,9.049,4.059,9.049,9.049
	s-4.059,9.049-9.049,9.049s-9.049-4.059-9.049-9.049S130.441,135.772,135.431,135.772z M110.65,200.226
	c4.99,0,9.049,4.059,9.049,9.049s-4.059,9.049-9.049,9.049c-0.573,0-1.13-0.059-1.673-0.162c-0.21-0.054-0.423-0.099-0.635-0.148
	c-3.873-1.024-6.739-4.548-6.739-8.739C101.601,204.286,105.66,200.226,110.65,200.226z M102.175,253.493
	c-4.99,0-9.049-4.059-9.049-9.049s4.059-9.049,9.049-9.049c0.573,0,1.13,0.059,1.673,0.162c0.21,0.054,0.423,0.099,0.635,0.148
	c3.873,1.024,6.739,4.548,6.739,8.739c0,4.322-3.048,7.941-7.105,8.833c-0.043,0.011-0.087,0.022-0.129,0.033
	C103.404,253.43,102.797,253.493,102.175,253.493z M111.224,377.596c-13.193-2.029-23.325-13.457-23.325-27.207v-52.905
	c0-12.845,8.845-23.659,20.763-26.682c0.109-0.027,0.218-0.049,0.327-0.077c0.735-0.177,1.478-0.332,2.234-0.449v106.864V377.596z
	 M424.103,350.388c0,13.75-10.132,25.178-23.325,27.207v-0.456V270.275c13.193,2.029,23.325,13.457,23.325,27.208V350.388z"/>
<path d="M167.386,301.549c-1.687-2.439-4.328-3.698-7.299-3.698h-13.271c-4.998,0-9.049,4.051-9.049,9.049
	c0,4.997,4.05,9.049,9.049,9.049h9.261c4.396,4.297,13.166,10.934,27.055,13.248c2.611,0.436,5.193,0.625,7.715,0.625
	c11.719,0,22.088-4.098,27.504-6.71l5.152,1.771c4.72,1.62,9.874-0.889,11.499-5.615c1.625-4.726-0.889-9.875-5.615-11.499
	l-8.847-3.042c-2.546-0.875-5.351-0.572-7.65,0.83c-0.133,0.081-13.575,7.992-26.781,5.79
	C173.814,309.299,167.967,302.284,167.386,301.549z"/>
<path d="M330.08,329.198c13.888-2.314,22.658-8.951,27.054-13.248h9.261c4.998,0,9.049-4.051,9.049-9.049s-4.05-9.049-9.049-9.049
	h-13.271c-2.902,0-5.628,1.392-7.329,3.744c-0.055,0.076-6.031,7.642-18.688,9.752c-13.251,2.207-26.676-5.727-26.783-5.79
	c-2.3-1.402-5.102-1.705-7.65-0.83l-8.847,3.042c-4.726,1.625-7.24,6.773-5.615,11.499c1.626,4.727,6.777,7.236,11.499,5.615
	l5.152-1.771c5.416,2.612,15.784,6.712,27.504,6.71C324.885,329.822,327.469,329.632,330.08,329.198z"/>
<path d="M305.467,396.381c0-4.997-4.05-9.049-9.049-9.049c-4.998,0-9.049,4.051-9.049,9.049c0,8.538-7.113,15.483-15.857,15.483
	h-32.231c-8.743,0-15.857-6.946-15.857-15.483c0-4.997-4.05-9.049-9.049-9.049s-9.049,4.051-9.049,9.049
	c0,18.517,15.232,33.58,33.954,33.58h32.231C290.235,429.961,305.467,414.898,305.467,396.381z"/>
<path d="M253.279,440.077c-10.426,0.273-17.675,5.241-21.069,8.179c-3.777,3.271-4.19,8.986-0.918,12.763
	c1.788,2.067,4.31,3.126,6.844,3.126c2.098,0,4.207-0.726,5.919-2.208c1.258-1.091,4.725-3.64,9.696-3.77
	c5.19-0.132,8.829,2.395,10.168,3.488c3.872,3.162,9.572,2.587,12.733-1.284c3.161-3.87,2.587-9.571-1.282-12.732
	C272.468,445.269,264.53,439.783,253.279,440.077z"/>
<path d="M201.593,300.868c-1.732,0-3.482-0.496-5.029-1.532c-3.806-2.549-7.242-5.131-11.928-2.33
	c-4.288,2.566-9.845,1.17-12.411-3.119c-2.565-4.289-1.169-9.845,3.12-12.411c6.558-3.923,14.643-4.838,21.914-2.505
	c3.517,1.128,6.344,3.297,9.378,5.329c4.151,2.782,5.261,8.402,2.481,12.555C207.373,299.46,204.509,300.868,201.593,300.868
	C199.86,300.868,204.509,300.868,201.593,300.868C199.86,300.868,204.509,300.868,201.593,300.868z"/>
<path d="M311.398,301.093c-2.931,0-5.806-1.421-7.548-4.045c-2.763-4.164-1.629-9.78,2.536-12.543
	c3.043-2.02,5.878-4.177,9.398-5.29c7.282-2.303,15.367-1.357,21.908,2.598c4.277,2.587,5.648,8.149,3.061,12.426
	c-2.589,4.277-8.151,5.645-12.426,3.061c-4.664-2.821-8.124-0.245-11.936,2.284C314.854,300.605,313.117,301.093,311.398,301.093z"
	/>
<g>
</g>
<g>
</g>
<g>
</g>
<g>
</g>
<g>
</g>
<g>
</g>
<g>
</g>
<g>
</g>
<g>
</g>
<g>
</g>
<g>
</g>
<g>
</g>
<g>
</g>
<g>
</g>
<g>
</g>
</svg>
