<?xml version="1.0" encoding="iso-8859-1"?>
<!-- Generator: Adobe Illustrator 19.0.0, SVG Export Plug-In . SVG Version: 6.00 Build 0)  -->
<svg version="1.1" id="Capa_1" xmlns="http://www.w3.org/2000/svg" xmlns:xlink="http://www.w3.org/1999/xlink" x="0px" y="0px"
	 viewBox="0 0 511.999 511.999" style="enable-background:new 0 0 511.999 511.999;" xml:space="preserve">
<circle style="fill:#29C2E5;" cx="128.837" cy="477.362" r="17"/>
<rect id="SVGCleanerId_0" x="63.09" y="105.079" transform="matrix(-0.866 0.5 -0.5 -0.866 362.9962 306.9627)" style="fill:#FFFFFF;" width="154.564" height="194.073"/>
<g>
	<polygon style="fill:#626D99;" points="268.418,383.369 232.623,403.424 170.909,296.532 206.885,275.761 	"/>
	<polygon style="fill:#626D99;" points="262.485,501.998 220.917,477.998 274.511,385.147 316.079,409.146 	"/>
</g>
<rect x="262.05" y="187.922" transform="matrix(-0.866 -0.5 0.5 -0.866 505.597 735.5541)" style="fill:#FFFFFF;" width="178.593" height="224.232"/>
<g>
	<polygon style="fill:#29C2E5;" points="306.32,203.105 367.603,433.465 305.419,400.4 270.606,270.478 	"/>
	<polygon style="fill:#29C2E5;" points="406.16,385.659 344.878,155.299 407.062,188.364 441.874,318.286 	"/>
</g>
<g>
	
		<rect id="SVGCleanerId_0_1_" x="63.09" y="105.079" transform="matrix(-0.866 0.5 -0.5 -0.866 362.9962 306.9627)" style="fill:#FFFFFF;" width="154.564" height="194.073"/>
</g>
<g>
	<polygon style="fill:#FC5271;" points="44.462,193.288 254.59,249.592 198.369,280.677 77.853,248.386 	"/>
	<polygon style="fill:#FC5271;" points="224.947,193.681 44.605,145.358 99.201,113.837 191.555,138.582 	"/>
</g>
<polygon style="fill:#A0E070;" points="479.511,78.075 312.835,148.344 501.994,257.556 "/>
<polygon style="fill:#29C2E5;" points="29.463,9.999 10.004,165.334 173.716,70.815 "/>
<path d="M511.916,256.312L489.433,76.832c-0.389-3.106-2.211-5.852-4.922-7.417c-2.711-1.566-6-1.771-8.885-0.554L308.95,139.13
	c-3.498,1.475-5.859,4.803-6.096,8.592c-0.236,3.789,1.693,7.385,4.98,9.283l8.585,4.956l-50.994,88.325
	c0.731-2.523,0.48-5.327-0.937-7.782L172.452,83.092l6.265-3.617c3.288-1.898,5.217-5.494,4.98-9.283
	c-0.236-3.789-2.598-7.117-6.096-8.592L33.348,0.786c-2.885-1.216-6.173-1.012-8.885,0.554c-2.711,1.565-4.533,4.311-4.922,7.417
	L0.082,164.091c-0.472,3.767,1.23,7.476,4.393,9.575c1.672,1.109,3.599,1.668,5.53,1.668c1.723,0,3.449-0.445,5-1.34l6.265-3.617
	l92.037,159.413c1.326,2.297,3.51,3.973,6.072,4.659c0.852,0.228,1.722,0.341,2.588,0.341c1.741,0,3.467-0.455,5-1.34l15.625-9.021
	l33.923,58.757c3.804,6.589,4.815,14.266,2.846,21.616c-1.969,7.35-6.683,13.492-13.272,17.297c-4.783,2.761-6.422,8.877-3.66,13.66
	c1.852,3.208,5.213,5.001,8.669,5.001c1.696,0,3.416-0.432,4.991-1.341c11.216-6.475,19.239-16.931,22.591-29.441
	c3.352-12.51,1.632-25.576-4.844-36.791l-33.923-58.757l7.338-4.237l56.714,98.231c1.851,3.206,5.21,5.001,8.669,5.001
	c1.655,0,3.334-0.412,4.879-1.277l14.586-8.172l-39.84,69.023c-2.761,4.783-1.122,10.898,3.661,13.659l41.568,24
	c1.534,0.885,3.26,1.34,5,1.34c0.866,0,1.737-0.113,2.588-0.341c2.562-0.687,4.746-2.363,6.072-4.66l48.594-84.19l6.76,3.903
	l-38.035,65.879c-1.035,1.792-1.961,3.667-2.753,5.572c-2.119,5.101,0.298,10.953,5.398,13.071c1.254,0.521,2.554,0.768,3.833,0.768
	c3.92,0,7.641-2.32,9.239-6.166c0.46-1.107,0.999-2.198,1.603-3.243l38.036-65.881l23.81,13.747c1.534,0.885,3.26,1.34,5,1.34
	c0.867,0,1.737-0.113,2.588-0.341c2.562-0.687,4.746-2.362,6.072-4.659l107.12-185.537l8.584,4.956c1.55,0.895,3.276,1.34,5,1.34
	c1.931,0,3.858-0.559,5.53-1.668C510.687,263.787,512.388,260.079,511.916,256.312z M489.571,238.836l-154.313-89.093L471.23,92.419
	L489.571,238.836z M279.51,376.487L279.51,376.487l-47.89-27.65l33.898-58.713l24.815,92.612L279.51,376.487z M234.575,303.721
	l-14.03-24.3l40.283-23.258c0.835-0.482,1.567-1.071,2.204-1.732L234.575,303.721z M172.665,123.461l-47.903-12.836l30.37-17.534
	L172.665,123.461z M37.744,24.343l113.549,47.871l-128.866,74.4L37.744,24.343z M45.104,156.616
	c0.174,0.057,0.343,0.121,0.521,0.168l77.482,20.762c0.867,0.232,1.738,0.343,2.595,0.343c4.415,0,8.456-2.947,9.653-7.414
	c1.43-5.335-1.736-10.818-7.071-12.248l-58.719-15.734l31.073-17.94c0.694,0.382,1.438,0.697,2.238,0.911l83.212,22.297
	c0.229,0.061,0.458,0.092,0.688,0.137l18.107,31.362l-15.28-4.095c-5.334-1.429-10.818,1.736-12.248,7.071
	c-1.43,5.334,1.736,10.818,7.071,12.248l33.877,9.078c0.229,0.061,0.459,0.092,0.688,0.137l17.759,30.76l-23.084-6.185
	c-5.335-1.43-10.819,1.736-12.248,7.071c-1.43,5.335,1.736,10.818,7.071,12.248l18.571,4.976l-25.174,14.534h-0.001l-4.928,2.845
	L85.861,240.179c-0.448-0.12-0.897-0.196-1.345-0.253l-17.8-30.831l80.457,21.559c0.867,0.232,1.738,0.343,2.595,0.343
	c4.415,0,8.456-2.947,9.653-7.414c1.43-5.335-1.736-10.818-7.071-12.248l-99.775-26.735l-13.986-24.223L45.104,156.616z
	 M125.625,311.13l-27.042-46.837l73.879,19.796L125.625,311.13z M193.896,294.807l9.328-5.386l19.803,34.299l-12.438,21.543
	l-26.022-45.07L193.896,294.807z M236.347,389.875l-13.177-22.824l26.552,15.33L236.347,389.875z M258.824,488.337l-24.249-14
	l43.596-75.53l24.249,14L258.824,488.337z M374.131,419.196l-8.118-30.297c-1.43-5.334-6.91-8.503-12.248-7.071
	c-5.334,1.429-8.5,6.913-7.071,12.248l6.72,25.081l-32.335-18.669c-0.001,0-0.001-0.001-0.002-0.001l-6.251-3.609l-34.562-128.987
	c-0.188-0.701-0.449-1.361-0.767-1.981l22.842-39.562l25.881,96.587c1.197,4.468,5.237,7.414,9.653,7.414
	c0.856,0,1.728-0.111,2.595-0.343c5.334-1.429,8.5-6.913,7.071-12.248l-31.057-115.905l17.258-29.892l9.494,5.481
	c0.057,0.402,0.13,0.804,0.238,1.206l23.988,89.526c1.197,4.468,5.237,7.414,9.653,7.414c0.856,0,1.728-0.111,2.595-0.343
	c5.334-1.429,8.5-6.913,7.071-12.248l-19.151-71.471l39.945,23.063c-0.071,1.067,0.02,2.162,0.312,3.252l25.763,96.146
	c0.123,0.46,0.283,0.899,0.464,1.325l-23.156,40.107l-5.702-21.281c-1.43-5.334-6.91-8.501-12.248-7.071
	c-5.334,1.429-8.5,6.913-7.071,12.248l10.489,39.144c0.123,0.46,0.283,0.899,0.464,1.325L374.131,419.196z M471.09,251.26
	l-22.913,39.686l-16.773-62.598l28.903,16.687L471.09,251.26z"/>
<path d="M356.933,352.812c-1.43-5.335-6.916-8.5-12.248-7.07c-5.334,1.43-8.5,6.914-7.07,12.248l0.038,0.142
	c1.198,4.468,5.238,7.414,9.653,7.414c0.857,0,1.729-0.111,2.595-0.343c5.334-1.43,8.5-6.914,7.07-12.248L356.933,352.812z"/>
<path d="M389.13,310.443c5.336-1.425,8.506-6.906,7.081-12.242l-0.038-0.143c-1.425-5.336-6.907-8.506-12.242-7.081
	c-5.336,1.425-8.506,6.906-7.081,12.242l0.038,0.143c1.194,4.472,5.236,7.422,9.655,7.422
	C387.397,310.784,388.266,310.674,389.13,310.443z"/>
<path d="M177.531,238.787l0.123,0.033c0.861,0.229,1.725,0.338,2.576,0.338c4.423,0,8.468-2.957,9.658-7.433
	c1.419-5.337-1.757-10.814-7.095-12.233l-0.123-0.033c-5.339-1.419-10.815,1.757-12.233,7.095
	C169.017,231.891,172.194,237.368,177.531,238.787z"/>
<path d="M153.465,185.68l0.123,0.033c0.861,0.229,1.725,0.338,2.576,0.338c4.423,0,8.468-2.957,9.658-7.433
	c1.419-5.337-1.757-10.814-7.095-12.233l-0.123-0.033c-5.336-1.421-10.815,1.757-12.233,7.095
	C144.951,178.784,148.128,184.261,153.465,185.68z"/>
<path d="M128.833,450.362c-14.888,0-27,12.112-27,27c0,14.888,12.112,27,27,27s27-12.112,27-27
	C155.833,462.473,143.721,450.362,128.833,450.362z M128.833,484.361c-3.86,0-7-3.14-7-7s3.14-7,7-7s7,3.14,7,7
	S132.693,484.361,128.833,484.361z"/>
<path d="M331.149,85.308h6.061l0.037,6.062c0.034,5.501,4.504,9.938,9.999,9.938c0.021,0,0.042,0,0.063,0
	c5.522-0.034,9.972-4.539,9.938-10.062l-0.037-5.938h5.938c5.523,0,10-4.477,10-10c0-5.523-4.477-10-10-10h-6.062l-0.037-6.062
	c-0.034-5.522-4.495-9.952-10.062-9.938c-5.522,0.034-9.972,4.539-9.938,10.062l0.037,5.937h-5.938c-5.523,0-10,4.477-10,10
	C321.148,80.83,325.626,85.308,331.149,85.308z"/>
<path d="M459.304,453.309h-6.061l-0.038-6.062c-0.034-5.501-4.504-9.938-9.999-9.938c-0.021,0-0.042,0-0.063,0
	c-5.522,0.034-9.972,4.539-9.938,10.062l0.037,5.938h-5.938c-5.523,0-10,4.477-10,10c0,5.523,4.477,10,10,10h6.062l0.037,6.062
	c0.034,5.501,4.504,9.938,9.999,9.938c0.021,0,0.042,0,0.063,0c5.522-0.034,9.972-4.539,9.938-10.062l-0.037-5.938h5.938
	c5.523,0,10-4.477,10-10C469.304,457.785,464.827,453.309,459.304,453.309z"/>
<path d="M64.213,383.397h-6.061l-0.037-6.062c-0.034-5.522-4.527-9.962-10.062-9.938c-5.522,0.034-9.972,4.539-9.938,10.062
	l0.037,5.938h-5.938c-5.523,0-10,4.477-10,10c0,5.523,4.477,10,10,10h6.062l0.037,6.062c0.034,5.501,4.504,9.938,9.999,9.938
	c0.021,0,0.042,0,0.063,0c5.522-0.034,9.972-4.539,9.938-10.062l-0.037-5.938h5.938c5.523,0,10-4.477,10-10
	C74.214,387.874,69.736,383.397,64.213,383.397z"/>
<path d="M247.814,142.365c1.691,3.651,5.305,5.8,9.081,5.8c1.407,0,2.836-0.298,4.196-0.928c5.012-2.321,7.193-8.265,4.872-13.276
	l-0.055-0.119c-2.321-5.012-8.269-7.193-13.276-4.872c-5.012,2.321-7.193,8.265-4.872,13.276L247.814,142.365z"/>
<g>
</g>
<g>
</g>
<g>
</g>
<g>
</g>
<g>
</g>
<g>
</g>
<g>
</g>
<g>
</g>
<g>
</g>
<g>
</g>
<g>
</g>
<g>
</g>
<g>
</g>
<g>
</g>
<g>
</g>
</svg>
