<?xml version="1.0" encoding="iso-8859-1"?>
<!-- Generator: Adobe Illustrator 19.0.0, SVG Export Plug-In . SVG Version: 6.00 Build 0)  -->
<svg version="1.1" id="Layer_1" xmlns="http://www.w3.org/2000/svg" xmlns:xlink="http://www.w3.org/1999/xlink" x="0px" y="0px"
	 viewBox="0 0 511.996 511.996" style="enable-background:new 0 0 511.996 511.996;" xml:space="preserve">
<rect x="188.921" y="150.051" style="fill:#59AAE8;" width="132.299" height="341.337"/>
<polygon style="opacity:0.1;enable-background:new    ;" points="290.232,158.255 290.232,449.084 189,449.084 189,480.154 
	321.301,480.154 321.301,158.255 "/>
<g>
	<path style="fill:#EF403C;" d="M327.99,158.255H184.007c-7.151,0-13.002-5.851-13.002-13.002l0,0
		c0-7.151,5.851-13.002,13.002-13.002H327.99c7.151,0,13.002,5.851,13.002,13.002l0,0
		C340.992,152.404,335.141,158.255,327.99,158.255z"/>
	<path style="fill:#EF403C;" d="M327.99,504.396H184.007c-7.151,0-13.002-5.851-13.002-13.002l0,0
		c0-7.151,5.851-13.002,13.002-13.002H327.99c7.151,0,13.002,5.851,13.002,13.002l0,0
		C340.992,498.545,335.141,504.396,327.99,504.396z"/>
</g>
<g>
	<polygon style="fill:#285493;" points="321.222,266.039 188.92,302.458 188.92,229.62 321.222,193.201 	"/>
	<polygon style="fill:#285493;" points="321.222,407.653 188.92,444.072 188.92,371.234 321.222,334.816 	"/>
</g>
<path style="fill:#EF403C;" d="M246.213,45.714c0.702,0,1.411,0.049,2.126,0.148c8.319,1.163,14.118,8.85,12.955,17.168
	c-1.741,12.447-1.122,15.911-0.902,16.66c0.326,0.431,1.29,1.411,2.006,2.14c1.736,1.767,4.114,4.186,6.672,7.578
	c13.319,17.655,5.648,42.112,4.793,44.619l-28.882,2.735l2.444-11.1c0.997-3.118,0.269-14.088-2.636-17.937
	c-1.363-1.806-2.685-3.151-4.085-4.577c-10.164-10.342-13.133-18.595-9.532-44.332C232.235,51.213,238.75,45.714,246.213,45.714z"/>
<path d="M328.826,470.83v-63.177v-72.838v-68.776v-72.838v-27.386c10.973-0.444,19.769-9.484,19.769-20.563
	c0-11.362-9.243-20.606-20.606-20.606h-44.091c1.522-10.127,1.582-26.112-8.759-39.818c-2.855-3.785-5.54-6.517-7.338-8.348
	c-0.029-0.03-0.062-0.063-0.096-0.097c-0.005-1.826,0.169-5.513,1.119-12.299c1.742-12.457-6.975-24.01-19.433-25.752
	c-1.052-0.147-2.122-0.222-3.179-0.222l0,0c-11.302,0-21.005,8.45-22.573,19.654c-3.691,26.396-1.081,37.77,11.64,50.715
	c1.326,1.349,2.373,2.416,3.386,3.754c1.14,1.831,1.924,8.891,1.467,11.265c-0.105,0.355-0.185,0.717-0.237,1.084l-0.009,0.064
	h-55.881c-11.362,0-20.606,9.243-20.606,20.606c0,10.448,7.823,19.084,17.914,20.409v8.35c0,4.199,3.405,7.604,7.604,7.604
	c4.199,0,7.604-3.405,7.604-7.604v-8.153h117.095v21.55l-117.095,32.233v-13.808c0-4.199-3.405-7.604-7.604-7.604
	c-4.199,0-7.604,3.405-7.604,7.604v23.787v72.837v68.776v72.838v26.912c-10.092,1.325-17.914,9.961-17.914,20.409
	c0,11.362,9.243,20.606,20.606,20.606h143.983c11.362,0,20.606-9.243,20.606-20.606C348.595,480.314,339.799,471.274,328.826,470.83
	z M238.702,59.87c0.522-3.735,3.752-6.553,7.512-6.553c0.355,0,0.716,0.025,1.073,0.075c4.152,0.581,7.057,4.432,6.478,8.583
	c-1.88,13.44-1.281,17.77-0.666,19.859c0.26,0.882,0.676,1.709,1.231,2.442c0.576,0.76,1.413,1.626,2.649,2.884
	c1.677,1.706,3.764,3.83,6.022,6.823c7.868,10.43,6.868,23.472,5.499,30.536l-13.226,0.122c0.579-6.12-0.502-16.314-4.413-21.499
	c-1.661-2.202-3.221-3.79-4.732-5.327C238.207,89.759,235.318,84.069,238.702,59.87z M196.523,377.029l117.095-32.233v57.064
	l-117.095,32.233V377.029z M313.618,329.022l-117.095,32.233v-53.004l117.095-32.232V329.022z M196.523,449.866l117.095-32.233
	v53.155H196.523V449.866z M188.919,150.651h-4.913c-2.977,0-5.398-2.422-5.398-5.398s2.421-5.398,5.398-5.398h61.43
	c0.341,0.047,0.683,0.079,1.031,0.079c0.023,0,0.047,0,0.07,0l8.505-0.078h72.947c2.977,0,5.398,2.422,5.398,5.398
	s-2.422,5.398-5.398,5.398h-6.768H188.919V150.651z M313.618,203.182v57.064l-117.095,32.233v-57.064L313.618,203.182z
	 M327.99,496.792H184.007c-2.977,0-5.398-2.422-5.398-5.398s2.421-5.398,5.398-5.398h4.913h132.303h6.768
	c2.977,0,5.398,2.422,5.398,5.398S330.965,496.792,327.99,496.792z"/>
<path d="M244.98,29.744c4.199,0,7.604-3.405,7.604-7.604V7.604c0-4.199-3.405-7.604-7.604-7.604s-7.604,3.405-7.604,7.604V22.14
	C237.376,26.339,240.78,29.744,244.98,29.744z"/>
<path d="M299.31,53.935l-14.483,1.239c-4.184,0.358-7.287,4.04-6.928,8.224c0.339,3.964,3.661,6.956,7.567,6.956
	c0.217,0,0.436-0.009,0.656-0.028l14.483-1.239c4.184-0.358,7.287-4.04,6.928-8.224S303.501,53.578,299.31,53.935z"/>
<path d="M190.426,73.082c0.307,0,0.618-0.019,0.932-0.057l14.428-1.764c4.168-0.509,7.135-4.302,6.625-8.47
	c-0.509-4.168-4.294-7.141-8.47-6.625l-14.428,1.764c-4.168,0.509-7.135,4.302-6.626,8.47
	C183.359,70.255,186.638,73.082,190.426,73.082z"/>
<path d="M208.484,40.445c1.504,1.733,3.618,2.62,5.746,2.62c1.766,0,3.542-0.612,4.981-1.861c3.171-2.753,3.511-7.555,0.758-10.727
	L203.392,11.38c-2.753-3.171-7.556-3.512-10.727-0.758c-3.171,2.753-3.511,7.555-0.758,10.727L208.484,40.445z"/>
<path d="M276.755,43.065c1.609,0,3.231-0.509,4.608-1.56l17.449-13.321c3.338-2.549,3.978-7.32,1.431-10.658
	c-2.548-3.338-7.32-3.977-10.658-1.431l-17.449,13.321c-3.338,2.549-3.978,7.32-1.431,10.658
	C272.202,42.035,274.466,43.065,276.755,43.065z"/>
<g>
</g>
<g>
</g>
<g>
</g>
<g>
</g>
<g>
</g>
<g>
</g>
<g>
</g>
<g>
</g>
<g>
</g>
<g>
</g>
<g>
</g>
<g>
</g>
<g>
</g>
<g>
</g>
<g>
</g>
</svg>
