<?xml version="1.0" encoding="iso-8859-1"?>
<!-- Generator: Adobe Illustrator 19.0.0, SVG Export Plug-In . SVG Version: 6.00 Build 0)  -->
<svg version="1.1" id="Layer_1" xmlns="http://www.w3.org/2000/svg" xmlns:xlink="http://www.w3.org/1999/xlink" x="0px" y="0px"
	 viewBox="0 0 512 512" style="enable-background:new 0 0 512 512;" xml:space="preserve">
<path style="fill:#EF403C;" d="M244.815,30.192c-4.263,0-7.719-3.456-7.719-7.719V7.719c0-4.263,3.456-7.719,7.719-7.719
	c4.263,0,7.719,3.456,7.719,7.719v14.755C252.534,26.736,249.079,30.192,244.815,30.192z"/>
<rect x="187.912" y="152.314" style="fill:#59AAE8;" width="134.293" height="346.483"/>
<polygon style="opacity:0.1;enable-background:new    ;" points="290.749,160.64 290.749,455.854 187.991,455.854 187.991,487.392 
	322.287,487.392 322.287,160.64 "/>
<g>
	<path style="fill:#EF403C;" d="M329.077,160.64H182.923c-7.259,0-13.198-5.939-13.198-13.198l0,0
		c0-7.259,5.939-13.198,13.198-13.198h146.153c7.259,0,13.198,5.939,13.198,13.198l0,0
		C342.274,154.701,336.335,160.64,329.077,160.64z"/>
	<path style="fill:#EF403C;" d="M329.077,512H182.923c-7.259,0-13.198-5.939-13.198-13.198l0,0c0-7.259,5.939-13.198,13.198-13.198
		h146.153c7.259,0,13.198,5.939,13.198,13.198l0,0C342.274,506.061,336.335,512,329.077,512z"/>
</g>
<g>
	<polygon style="fill:#285493;" points="322.207,270.05 187.911,307.018 187.911,233.082 322.207,196.114 	"/>
	<polygon style="fill:#285493;" points="322.207,413.799 187.911,450.767 187.911,376.831 322.207,339.863 	"/>
</g>
<g>
	<path style="fill:#EF403C;" d="M246.067,46.403c0.712,0,1.433,0.049,2.158,0.15c8.444,1.18,14.331,8.983,13.15,17.427
		c-1.767,12.635-1.139,16.15-0.916,16.911c0.331,0.437,1.309,1.433,2.037,2.173c1.762,1.794,4.176,4.249,6.773,7.692
		c13.52,17.922,5.733,42.747,4.865,45.292l-29.317,2.777l2.481-11.267c1.012-3.165,0.273-14.3-2.676-18.208
		c-1.383-1.833-2.725-3.199-4.146-4.646c-10.317-10.498-13.331-18.876-9.676-45C231.878,51.985,238.491,46.403,246.067,46.403z"/>
	<path style="fill:#EF403C;" d="M285.912,71.416c-3.966,0-7.338-3.038-7.682-7.061c-0.363-4.247,2.786-7.985,7.032-8.348
		l14.701-1.258c4.254-0.363,7.985,2.786,8.348,7.032s-2.786,7.985-7.032,8.348l-14.701,1.258
		C286.355,71.405,286.131,71.416,285.912,71.416z"/>
	<path style="fill:#EF403C;" d="M189.439,74.184c-3.845,0-7.173-2.869-7.653-6.783c-0.517-4.232,2.494-8.081,6.725-8.597
		l14.646-1.791c4.239-0.524,8.081,2.494,8.597,6.724c0.518,4.232-2.494,8.081-6.724,8.597l-14.646,1.791
		C190.068,74.164,189.752,74.184,189.439,74.184z"/>
	<path style="fill:#EF403C;" d="M213.601,43.714c-2.159,0-4.306-0.901-5.832-2.659L190.943,21.67
		c-2.794-3.219-2.449-8.094,0.77-10.888c3.218-2.795,8.094-2.449,10.888,0.77l16.827,19.385c2.794,3.219,2.449,8.094-0.77,10.888
		C217.197,43.092,215.395,43.714,213.601,43.714z"/>
	<path style="fill:#EF403C;" d="M277.07,43.714c-2.324,0-4.622-1.046-6.141-3.036c-2.586-3.388-1.937-8.232,1.452-10.818
		l17.712-13.522c3.388-2.585,8.233-1.937,10.818,1.452c2.587,3.388,1.937,8.232-1.452,10.818L281.747,42.13
		C280.35,43.197,278.703,43.714,277.07,43.714z"/>
</g>
<g>
</g>
<g>
</g>
<g>
</g>
<g>
</g>
<g>
</g>
<g>
</g>
<g>
</g>
<g>
</g>
<g>
</g>
<g>
</g>
<g>
</g>
<g>
</g>
<g>
</g>
<g>
</g>
<g>
</g>
</svg>
