<?xml version="1.0" encoding="iso-8859-1"?>
<!-- Generator: Adobe Illustrator 19.0.0, SVG Export Plug-In . SVG Version: 6.00 Build 0)  -->
<svg version="1.1" id="Layer_1" xmlns="http://www.w3.org/2000/svg" xmlns:xlink="http://www.w3.org/1999/xlink" x="0px" y="0px"
	 viewBox="0 0 467.818 467.818" style="enable-background:new 0 0 467.818 467.818;" xml:space="preserve">
<g>
	<path style="fill:#FBB03B;" d="M322.613,36.67v18h-8v-7h-27.86c-0.14-1.35-0.33-2.69-0.57-4h28.43v-7H322.613z"/>
	<path style="fill:#FBB03B;" d="M312.233,37.63l-7.76,1.95l-1.71-6.78l-18.11,4.57c-0.4-1.29-0.85-2.55-1.33-3.79l18.46-4.66
		l-1.71-6.79l7.75-1.96L312.233,37.63z"/>
	<path style="fill:#FBB03B;" d="M145.281,36.67v18h8v-7h27.86c0.14-1.35,0.33-2.69,0.57-4h-28.43v-7H145.281z"/>
	<path style="fill:#FBB03B;" d="M155.662,37.63l7.76,1.95l1.71-6.78l18.11,4.57c0.4-1.29,0.85-2.55,1.33-3.79l-18.46-4.66l1.71-6.79
		l-7.75-1.96L155.662,37.63z"/>
	<g>
		<circle style="fill:#EACAA7;" cx="179.13" cy="99" r="14.791"/>
		<circle style="fill:#EACAA7;" cx="288.686" cy="99" r="14.791"/>
	</g>
	<g>
		<g>
			<path style="fill:#FE3F3D;" d="M172.239,137.333L172.239,137.333L172.239,137.333c-6.248-6.248-6.248-16.379,0-22.627l0,0l0,0
				C178.488,120.954,178.488,131.085,172.239,137.333z"/>
			<circle style="fill:#FE3F3D;" cx="172.239" cy="112.644" r="5.912"/>
		</g>
		<g>
			<path style="fill:#FE3F3D;" d="M295.577,137.333L295.577,137.333L295.577,137.333c-6.248-6.248-6.248-16.379,0-22.627l0,0l0,0
				C301.825,120.954,301.825,131.085,295.577,137.333z"/>
			<circle style="fill:#FE3F3D;" cx="295.577" cy="112.644" r="5.912"/>
		</g>
	</g>
	<path style="fill:#F9DBB7;" d="M294.783,108.11c0,30.51-22.46,48.31-51.75,51.33c-2.97,0.32-6.02,0.47-9.12,0.47
		c-3.1,0-6.15-0.16-9.13-0.47c-1.49-0.15-2.97-0.34-4.42-0.57c-27.1-4.29-47.33-21.8-47.33-50.76c0-8.79,1.86-17.95,5.21-26.7
		c3.64-9.57,9.06-18.64,15.77-26.17c10.69-12,24.65-20.11,39.9-20.11c21.43,0,40.28,16,51.12,36.31
		C291.203,82.99,294.783,95.92,294.783,108.11z"/>
	<path style="fill:#FE3F3D;" d="M225.662,442.345c-1.15,8.29-2.719,16.825-3.639,22.365c-0.6,3.65-5.6,4.27-7.07,0.87
		c-3.18-7.34-6.564-15.985-9.124-23.235H225.662L225.662,442.345z"/>
	<path style="fill:#FE3F3D;" d="M261.473,443.011c-2.56,7.25-5.42,15.229-8.6,22.568c-1.47,3.4-6.47,2.78-7.08-0.87
		c-0.92-5.54-2.481-14.075-3.631-22.365L261.473,443.011z"/>
	<path style="fill:#FFFFFF;" d="M245.869,106.225c0,9.697-5.352,17.558-11.954,17.558c-6.602,0-11.954-7.861-11.954-17.558H245.869z
		"/>
	<g>
		<path d="M213.565,99.687c0,0-0.303-0.04-0.778-0.17c-0.234-0.078-0.532-0.14-0.829-0.189c-0.299-0.06-0.603-0.132-0.969-0.186
			c-0.345-0.076-0.715-0.135-1.097-0.184c-0.368-0.082-0.776-0.08-1.158-0.154c-0.403-0.009-0.794-0.077-1.2-0.08
			c-0.401-0.034-0.808-0.022-1.213-0.038c-0.405,0.017-0.811,0.008-1.212,0.041c-0.406,0.007-0.797,0.069-1.199,0.082
			c-0.382,0.074-0.79,0.073-1.157,0.155c-0.382,0.048-0.751,0.107-1.096,0.183c-0.361,0.049-0.683,0.133-0.987,0.199
			c-0.309,0.06-0.594,0.111-0.817,0.178c-0.461,0.116-0.775,0.164-0.775,0.164s0.059-0.289,0.251-0.763
			c0.092-0.242,0.22-0.528,0.416-0.818c0.187-0.301,0.415-0.637,0.719-0.948c0.148-0.161,0.311-0.322,0.481-0.492
			c0.18-0.151,0.376-0.296,0.578-0.452c0.401-0.321,0.882-0.551,1.382-0.808c0.517-0.196,1.06-0.427,1.642-0.519
			c0.574-0.15,1.177-0.162,1.776-0.201c0.599,0.039,1.201,0.054,1.776,0.204c0.581,0.096,1.125,0.322,1.641,0.521
			c0.499,0.257,0.981,0.488,1.381,0.808c0.202,0.156,0.398,0.299,0.578,0.452c0.17,0.17,0.334,0.329,0.481,0.491
			c0.299,0.306,0.545,0.654,0.737,0.96c0.208,0.3,0.323,0.576,0.404,0.807C213.494,99.39,213.565,99.687,213.565,99.687z"/>
		<path d="M268.755,99.687c0,0-0.303-0.04-0.778-0.17c-0.234-0.078-0.532-0.14-0.829-0.189c-0.299-0.06-0.603-0.132-0.969-0.186
			c-0.345-0.076-0.715-0.135-1.097-0.184c-0.368-0.082-0.776-0.08-1.158-0.154c-0.403-0.009-0.794-0.077-1.2-0.08
			c-0.401-0.034-0.808-0.022-1.213-0.038c-0.405,0.017-0.811,0.008-1.212,0.041c-0.406,0.007-0.797,0.069-1.199,0.082
			c-0.382,0.074-0.79,0.073-1.157,0.155c-0.382,0.048-0.752,0.107-1.096,0.183c-0.361,0.049-0.683,0.133-0.987,0.199
			c-0.309,0.06-0.594,0.111-0.817,0.178c-0.461,0.116-0.775,0.164-0.775,0.164s0.059-0.289,0.251-0.763
			c0.092-0.242,0.22-0.528,0.416-0.818c0.187-0.301,0.415-0.637,0.719-0.948c0.148-0.161,0.311-0.322,0.481-0.492
			c0.18-0.151,0.376-0.296,0.578-0.452c0.401-0.321,0.882-0.551,1.382-0.808c0.517-0.196,1.06-0.427,1.642-0.519
			c0.574-0.15,1.177-0.162,1.776-0.201c0.599,0.039,1.201,0.054,1.776,0.204c0.581,0.096,1.125,0.322,1.641,0.521
			c0.499,0.257,0.981,0.488,1.381,0.808c0.202,0.156,0.398,0.299,0.578,0.452c0.17,0.17,0.334,0.329,0.481,0.491
			c0.299,0.306,0.545,0.654,0.737,0.96c0.208,0.3,0.323,0.576,0.404,0.807C268.685,99.39,268.755,99.687,268.755,99.687z"/>
	</g>
	<path style="fill:#F9DBB7;" d="M336.113,269.92c0.13,8.6-0.8,16.97-2.67,24.97c-0.66,2.81-4.79,2.34-4.79-0.55v-0.22
		c0-5.46-0.46-10.81-1.35-16.01c-4.53-26.62-20.16-49.45-41.97-63.57c-0.77-0.5-1.54-0.98-2.32-1.45c-0.92-0.56-1.84-1.1-2.78-1.63
		c-13.69-7.7-22.13,20.54-38.95,20.54c-5.44,0-15.81-0.88-21,0c-10.86,1.84-23.42-25.75-32.69-20.54c-1.74,0.97-3.44,2-5.1,3.09
		c-18.51,11.97-32.57,30.23-39.18,51.76c-2.7,8.79-4.15,18.13-4.15,27.81v0.22c0.01,2.88-4.11,3.42-4.77,0.61
		c-1.76-7.52-2.7-15.36-2.7-23.42c0-2.8,0.11-5.58,0.34-8.32v-0.01c2.79-34.69,22.92-64.49,51.7-80.73
		c7.09-4.01,14.7-7.19,22.71-9.42c2.25-0.63,4.53-1.18,6.84-1.65c1.59-0.32,3.08-0.9,4.43-1.7c3.51-2.04,6.08-5.51,6.94-9.62
		l0.13-0.64c2.98,0.31,6.03,0.47,9.13,0.47s6.15-0.15,9.12-0.47l0.16,0.76c0.84,4.04,3.33,7.44,6.74,9.5
		c1.37,0.84,2.89,1.45,4.51,1.8c10.1,2.18,19.72,5.92,28.57,10.94c0.37,0.2,0.74,0.42,1.11,0.63c25.08,14.62,43.89,39.6,49.93,68.44
		c0.06,0.27,0.11,0.54,0.16,0.81C335.373,258.06,336.023,263.94,336.113,269.92z"/>
	<path style="opacity:0.29;fill:#4D4D4D;enable-background:new    ;" d="M246.959,167.339c-4.07,1.53-8.312,2.36-12.912,2.36
		c-4.62,0-9.184-0.839-13.274-2.379c1.93-1.95,3.3-4.45,3.88-7.24l0.13-0.64c2.98,0.31,6.164,0.469,9.264,0.469
		s6.016-0.149,8.986-0.469l0.16,0.76C243.763,162.95,245.079,165.399,246.959,167.339z"/>
	<path style="fill:#333333;" d="M284.263,70.05c0.27,0.46,0.52,0.92,0.77,1.39c-0.52,0.31-1.05,0.6-1.59,0.87
		c-4.54,2.36-9.69,3.69-15.16,3.69c-12.12,0-22.7-6.53-28.44-16.27c-7.39,15.53-23.22,26.27-41.56,26.27
		c-2.18,0-4.33-0.15-6.43-0.45c-4.81-0.67-9.39-2.09-13.61-4.14c1.48-3.9,3.26-7.72,5.3-11.38c-1.78-5.32-2.75-11-2.75-16.92
		c0-29.33,23.78-53.11,53.11-53.11c22.44,0,41.63,13.91,49.42,33.58c0.48,1.24,0.93,2.5,1.33,3.79c0.63,2.05,1.15,4.15,1.53,6.3
		c0.24,1.31,0.43,2.65,0.57,4c0.18,1.79,0.27,3.6,0.27,5.44C287.023,59.03,286.053,64.73,284.263,70.05z"/>
	<path style="fill:#DB3347;" d="M294.203,443.67h-120.57l6.17-159.67l1.6-41.33l1.09-28.12l1.24-32.08
		c4.94-2.79,10.12-5.17,15.52-7.11c1.97-0.72,3.97-1.37,6-1.96v19.93c0,7.92,3.21,15.09,8.39,20.27c5.19,5.19,12.36,8.4,20.27,8.4
		c15.84,0,28.67-12.83,28.67-28.67v-19.7c2.03,0.62,4.03,1.3,6,2.04c5.39,2.03,10.59,4.52,15.54,7.4l1.21,31.47l1.09,28.13
		l1.6,41.33L294.203,443.67z"/>
	<path style="fill:#FE3F3D;" d="M262.583,192.67v0.66c0,3.52-0.63,6.89-1.79,10c-4.06,10.91-14.56,18.67-26.88,18.67
		c-7.91,0-15.08-3.21-20.27-8.4c-2.88-2.88-5.15-6.37-6.6-10.27c-1.16-3.11-1.79-6.48-1.79-10v-0.66H262.583z"/>
	<polygon style="fill:#FBB03B;" points="288.023,284 179.803,284 180.293,271.44 180.913,255.23 181.403,242.67 286.423,242.67 
		286.913,255.23 287.533,271.44 	"/>
	<polygon style="fill:#DB3347;" points="287.533,271.44 180.293,271.44 180.913,255.23 286.913,255.23 	"/>
	<path style="fill:#FBB03B;" d="M268.583,175.67v17.66c0,19.12-15.55,34.67-34.67,34.67c-19.11,0-34.66-15.55-34.66-34.67v-17.97
		c1.97-0.72,3.97-1.37,6-1.96v19.93c0,7.92,3.21,15.09,8.39,20.27c5.19,5.19,12.36,8.4,20.27,8.4c15.84,0,28.67-12.83,28.67-28.67
		v-19.7C264.613,174.25,266.613,174.93,268.583,175.67z"/>
	<rect x="208.918" y="284" style="fill:#FBB03B;" width="50" height="128.667"/>
	<rect x="221.248" y="284" style="fill:#DB3347;" width="25.34" height="114.667"/>
	<g>
		<rect x="208.918" y="412.667" style="fill:#FBB03B;" width="5" height="16.667"/>
		<rect x="253.918" y="412.667" style="fill:#FBB03B;" width="5" height="16.667"/>
		<rect x="220.168" y="412.667" style="fill:#FBB03B;" width="5" height="16.667"/>
		<rect x="231.418" y="412.667" style="fill:#FBB03B;" width="5" height="16.667"/>
		<rect x="242.668" y="412.667" style="fill:#FBB03B;" width="5" height="16.667"/>
	</g>
	<path style="fill:#FBB03B;" d="M155.323,285.62V350l-12,12v-67.05c0-11.56-3.99-22.77-11.29-31.74v-0.01
		c0.35-4.37,0.98-8.66,1.86-12.85C145.283,257.33,155.323,274.06,155.323,285.62z"/>
	<path style="fill:#FE3F3D;" d="M184.703,181.92v126.43c0,7.86-3.12,15.39-8.68,20.95l-20.7,20.7v-64.38
		c0-11.56-10.04-28.29-21.43-35.27C140.103,220.85,159.053,196.04,184.703,181.92z"/>
	<path style="fill:#FE3F3D;" d="M335.683,263.2v0.01c-3.65,4.49-6.47,9.53-8.38,14.9s-2.91,11.06-2.91,16.84V362l-32.7-32.7
		c-5.56-5.56-8.68-13.09-8.68-20.95V182.44c0.37,0.2,0.74,0.42,1.11,0.63c25.08,14.62,43.89,39.6,49.93,68.44
		c0.06,0.27,0.11,0.54,0.16,0.81C334.893,255.88,335.383,259.51,335.683,263.2z"/>
	<path style="fill:#FBB03B;" d="M262.583,192.67v0.66c0,3.52-0.63,6.89-1.79,10h-53.75c-1.16-3.11-1.79-6.48-1.79-10v-0.66H262.583z
		"/>
	<path style="fill:#FBB03B;" d="M312.393,285.62V350l12,12v-67.05c0-11.56,3.99-22.77,11.29-31.74v-0.01
		c-0.35-4.37-0.98-8.66-1.86-12.85C322.433,257.33,312.393,274.06,312.393,285.62z"/>
</g>
<g>
</g>
<g>
</g>
<g>
</g>
<g>
</g>
<g>
</g>
<g>
</g>
<g>
</g>
<g>
</g>
<g>
</g>
<g>
</g>
<g>
</g>
<g>
</g>
<g>
</g>
<g>
</g>
<g>
</g>
</svg>
