<?xml version="1.0" encoding="iso-8859-1"?>
<!-- Generator: Adobe Illustrator 19.0.0, SVG Export Plug-In . SVG Version: 6.00 Build 0)  -->
<svg version="1.1" id="Layer_1" xmlns="http://www.w3.org/2000/svg" xmlns:xlink="http://www.w3.org/1999/xlink" x="0px" y="0px"
	 viewBox="0 0 512 512" style="enable-background:new 0 0 512 512;" xml:space="preserve">
<path style="fill:#FF3502;" d="M394.947,411.414l-63.948-16.249l-71.879,25.945c-2.016,0.728-4.222,0.728-6.237,0l-71.88-25.945
	l-63.948,16.249c-16.851,4.282-28.649,19.452-28.649,36.839v56.144H256h167.595v-56.144
	C423.595,430.866,411.798,415.695,394.947,411.414z"/>
<path style="fill:#FEF5CC;" d="M256.003,164.635c0,0-25.02,48.51-89.842,65.356v36.799c0,30.857,14.618,59.42,38.4,77.197
	c8.023,5.997,17.086,10.77,26.986,13.985c7.888,2.562,16.115,4.121,24.456,4.121c8.342,0,16.57-1.559,24.457-4.122
	c9.899-3.216,18.962-7.989,26.985-13.985c23.782-17.778,38.4-46.34,38.4-77.196v-36.798
	C281.023,213.144,256.003,164.635,256.003,164.635z"/>
<path style="fill:#ACABB1;" d="M256.003,164.635c0,0-25.02,48.51-89.842,65.356v16.952c64.822-16.846,89.842-56.231,89.842-56.231
	s25.02,39.385,89.842,56.231V229.99C281.023,213.144,256.003,164.635,256.003,164.635z"/>
<path style="fill:#FEF5CC;" d="M274.565,380.549l32.882-9.354v-27.21c-8.023,5.997-17.085,10.77-26.985,13.985
	c-7.889,2.562-16.116,4.122-24.457,4.122c-8.341,0-16.569-1.559-24.456-4.121c-9.9-3.215-18.963-7.988-26.986-13.985v27.21
	l32.875,9.353c8.996,2.559,15.509,10.364,16.416,19.672l1.311,13.442c0.098,1.012,1.574,1.012,1.672,0l1.311-13.442
	C259.056,390.913,265.569,383.108,274.565,380.549z"/>
<path style="fill:#2E2E30;" d="M256.003,53.302c18.553,0,36.172,3.474,52.048,9.714c5.016,1.971,9.555,4.738,13.499,8.119
	c-1.095-35.269-30.01-63.531-65.546-63.531s-64.451,28.26-65.546,63.531c3.944-3.38,8.483-6.147,13.499-8.119
	C219.832,56.775,237.45,53.302,256.003,53.302z"/>
<path style="fill:#FECE00;" d="M321.549,71.135c-3.944-3.38-8.483-6.147-13.499-8.119c-15.876-6.24-33.494-9.714-52.048-9.714
	s-36.172,3.474-52.048,9.714c-5.016,1.971-9.555,4.738-13.499,8.119c-10.264,8.798-16.485,21.767-16.485,35.791
	c6.204-4.597,12.923-8.681,20.071-12.18c18.314-8.964,39.449-14.077,61.96-14.077c22.511,0,43.646,5.115,61.96,14.077
	c7.149,3.499,13.869,7.584,20.071,12.18C338.035,92.901,331.814,79.932,321.549,71.135z"/>
<path style="fill:#2E2E30;" d="M338.035,106.926c-22.096-16.372-50.735-26.258-82.032-26.258s-59.935,9.886-82.032,26.258
	c-27.268,20.204-44.568,50.288-44.568,83.891c0,15.591,3.731,30.423,10.447,43.865c9.418-0.958,18.176-2.577,26.311-4.691
	c64.822-16.846,89.842-65.356,89.842-65.356s25.02,48.51,89.842,65.356c8.135,2.114,16.893,3.733,26.311,4.691
	c6.715-13.442,10.447-28.274,10.447-43.865C382.603,157.213,365.302,127.13,338.035,106.926z"/>
<g>
	<path style="fill:#FF3502;" d="M253.853,400.222c-0.908-9.308-7.42-17.113-16.416-19.672l-32.875-9.352l-3.128-0.89
		c-4.484-1.275-9.232,0.891-11.206,5.116l-9.225,19.742l23.559,8.503l50.01,18.051c0.664,0.239,1.351-0.294,1.283-0.997
		L253.853,400.222z"/>
	<path style="fill:#FF3502;" d="M321.773,375.423c-1.974-4.225-6.722-6.391-11.206-5.116l-3.121,0.888l-32.882,9.354
		c-8.996,2.559-15.509,10.364-16.416,19.672l-2.073,21.25c-0.034,0.355,0.312,0.625,0.647,0.503l50.723-18.309l23.552-8.501
		L321.773,375.423z"/>
</g>
<g>
	<path style="fill:#CD2A01;" d="M134.059,411.414l51.029-14.775l-4.086-1.475l-63.948,16.249
		c-16.851,4.282-28.649,19.452-28.649,36.839v56.145h20.511v-56.144C108.917,430.866,119.271,415.695,134.059,411.414z"/>
	<path style="fill:#CD2A01;" d="M394.947,411.414l-63.948-16.249l-4.086,1.475l51.029,14.775
		c14.789,4.282,25.143,19.452,25.143,36.839v56.143h20.511v-56.144C423.595,430.866,411.797,415.695,394.947,411.414z"/>
</g>
<path style="fill:#FECE00;" d="M380.515,408.655c0,0-55.049,53.962-124.54,53.962c-69.326,0-125.498-53.962-125.498-53.962
	l29.989-7.656c0,0,43.93,39.736,95.509,39.736c51.702,0,95.509-39.736,95.509-39.736L380.515,408.655z"/>
<path d="M396.819,404.044l-60.457-15.362l-7.699-16.477c-2.533-5.419-7.749-9.093-13.613-9.749v-14.765
	c24.111-19.512,38.4-49.459,38.4-80.902v-27.253c5.869,1.182,11.869,2.094,17.936,2.711l5.225,0.531l2.346-4.699
	c7.464-14.94,11.249-30.842,11.249-47.262c0-33.627-16.252-65.419-44.722-87.769c-0.953-13.432-6.815-26.03-16.515-35.423
	c-1.342-17.828-9.069-34.39-21.979-46.936C293.26,7.347,275.153,0,256.003,0s-37.257,7.347-50.987,20.69
	c-12.91,12.546-20.636,29.107-21.979,46.935c-9.7,9.393-15.564,21.991-16.516,35.423c-28.47,22.35-44.722,54.143-44.722,87.769
	c0,16.421,3.784,32.322,11.249,47.262l2.346,4.699l5.224-0.531c6.068-0.617,12.069-1.529,17.937-2.711v27.254
	c0,31.444,14.29,61.392,38.4,80.903v14.762c-5.866,0.655-11.086,4.329-13.619,9.75l-7.699,16.477l-60.458,15.362
	c-20.243,5.143-34.38,23.323-34.38,44.208V512h350.398v-63.748C431.199,427.366,417.061,409.187,396.819,404.044z M250.375,378.879
	c-0.372-0.301-0.748-0.597-1.136-0.881c-0.271-0.199-0.546-0.391-0.824-0.582c-0.394-0.27-0.796-0.528-1.203-0.78
	c-0.286-0.176-0.572-0.351-0.865-0.518c-0.429-0.244-0.867-0.473-1.31-0.699c-0.288-0.146-0.572-0.297-0.866-0.434
	c-0.495-0.232-1.002-0.441-1.512-0.648c-0.257-0.103-0.507-0.218-0.768-0.315c-0.777-0.29-1.567-0.557-2.376-0.787l-27.352-7.781
	v-7.577c0.267,0.145,0.541,0.274,0.809,0.417c0.773,0.412,1.551,0.811,2.334,1.202c0.536,0.268,1.073,0.536,1.614,0.795
	c0.813,0.388,1.634,0.759,2.459,1.125c0.519,0.231,1.036,0.467,1.559,0.69c0.912,0.387,1.835,0.752,2.76,1.113
	c0.444,0.173,0.884,0.358,1.331,0.525c1.377,0.515,2.765,1.005,4.167,1.461c9.181,2.98,18.199,4.492,26.804,4.492
	c8.606,0,17.625-1.512,26.806-4.495c1.399-0.454,2.784-0.943,4.159-1.457c0.462-0.173,0.918-0.363,1.377-0.542
	c0.907-0.355,1.814-0.712,2.71-1.092c0.535-0.227,1.064-0.469,1.595-0.706c0.812-0.362,1.621-0.727,2.423-1.109
	c0.551-0.263,1.096-0.536,1.642-0.809c0.771-0.385,1.536-0.778,2.296-1.183c0.275-0.146,0.557-0.279,0.829-0.427v7.576
	l-27.357,7.783c-0.81,0.23-1.601,0.497-2.378,0.787c-0.258,0.096-0.504,0.209-0.757,0.311c-0.514,0.208-1.025,0.419-1.523,0.653
	c-0.29,0.136-0.572,0.285-0.856,0.43c-0.446,0.226-0.888,0.457-1.32,0.705c-0.29,0.165-0.573,0.339-0.856,0.513
	c-0.412,0.253-0.816,0.515-1.214,0.787c-0.275,0.189-0.547,0.379-0.815,0.575c-0.39,0.287-0.771,0.585-1.147,0.889
	c-0.25,0.203-0.502,0.404-0.745,0.614c-0.384,0.333-0.753,0.68-1.12,1.031c-0.212,0.203-0.429,0.398-0.634,0.607
	c-0.424,0.431-0.828,0.88-1.225,1.335c-0.127,0.146-0.264,0.283-0.388,0.431c-0.512,0.61-1,1.242-1.462,1.892
	c-0.014,0.02-0.03,0.038-0.045,0.058c-0.014-0.02-0.031-0.039-0.046-0.059c-0.462-0.649-0.949-1.279-1.46-1.89
	c-0.127-0.151-0.266-0.291-0.395-0.44c-0.394-0.452-0.795-0.898-1.217-1.326c-0.208-0.211-0.428-0.411-0.643-0.615
	c-0.363-0.348-0.729-0.692-1.11-1.022C250.883,379.288,250.629,379.084,250.375,378.879z M313.169,377.547
	c0.732,0,1.405,0.43,1.715,1.095l5.7,12.197l-55.847,20.158l0.978-10.036c0.419-4.291,2.577-8.062,5.845-10.556
	c1.485-1.134,3.2-2.004,5.086-2.541l36.003-10.243C312.821,377.571,312.994,377.547,313.169,377.547z M158.529,409.342
	c11.311,9.311,51.02,38.998,97.445,38.998c46.479,0,86.08-29.622,97.422-38.972l11.171,2.945
	c-18.765,14.858-60.361,42.7-108.592,42.7c-48.048,0-90.153-27.753-109.288-42.648L158.529,409.342z M255.976,433.133
	c-33.161,0-63.502-17.893-79.197-29.049l3.835-0.974l69.685,25.153c0.003,0.001,0.005,0.001,0.008,0.002l1.68,0.606
	c0.861,0.311,1.757,0.474,2.666,0.5c0.618,0.15,1.255,0.237,1.901,0.237h0.001c0.939,0,1.862-0.162,2.747-0.482l10.519-3.797
	l61.565-22.221l3.841,0.976C319.599,415.239,289.329,433.133,255.976,433.133z M287.52,76.365c-1.252-0.265-2.508-0.513-3.77-0.746
	c-0.519-0.096-1.037-0.195-1.557-0.286c-0.611-0.106-1.224-0.206-1.837-0.305c-0.661-0.107-1.324-0.209-1.988-0.307
	c-0.519-0.077-1.037-0.156-1.556-0.228c-1.123-0.155-2.25-0.297-3.378-0.427c-0.396-0.046-0.794-0.085-1.19-0.128
	c-0.902-0.096-1.806-0.186-2.71-0.266c-0.383-0.034-0.766-0.069-1.151-0.1c-1.222-0.099-2.446-0.188-3.673-0.258
	c-0.213-0.012-0.426-0.019-0.638-0.031c-1.074-0.057-2.148-0.101-3.225-0.136c-0.346-0.011-0.69-0.021-1.035-0.03
	c-1.267-0.031-2.536-0.054-3.807-0.054c-1.271,0-2.54,0.021-3.807,0.054c-0.346,0.008-0.69,0.019-1.035,0.03
	c-1.077,0.034-2.151,0.079-3.225,0.136c-0.213,0.011-0.426,0.019-0.638,0.031c-1.227,0.07-2.452,0.158-3.673,0.258
	c-0.383,0.031-0.766,0.066-1.15,0.1c-0.905,0.08-1.809,0.169-2.711,0.266c-0.396,0.043-0.794,0.082-1.189,0.127
	c-1.128,0.13-2.254,0.272-3.376,0.427c-0.523,0.072-1.043,0.152-1.564,0.229c-0.66,0.098-1.32,0.2-1.978,0.306
	c-0.615,0.099-1.23,0.2-1.843,0.306c-0.515,0.09-1.028,0.188-1.541,0.283c-1.268,0.234-2.532,0.485-3.79,0.75
	c-0.285,0.061-0.57,0.12-0.855,0.181c-11.484,2.497-22.576,6.304-32.923,11.367c-1.931,0.946-3.838,1.933-5.719,2.965
	c2.361-5.306,5.895-10.091,10.424-13.973c2.952-2.531,6.24-4.603,9.792-6.172c0.507-0.224,1.02-0.438,1.538-0.642
	c15.509-6.097,32.085-9.189,49.266-9.189s33.757,3.091,49.267,9.189c4.143,1.627,7.956,3.921,11.332,6.815
	c4.528,3.881,8.06,8.666,10.421,13.972c-1.88-1.031-3.786-2.019-5.717-2.964c-10.346-5.064-21.438-8.871-32.921-11.367
	C288.097,76.486,287.809,76.426,287.52,76.365z M256.003,15.208c26.236,0,48.269,17.095,55.481,40.992
	c-0.216-0.088-0.434-0.175-0.651-0.262c-17.288-6.796-35.736-10.242-54.83-10.242c-19.093,0-37.539,3.445-54.83,10.242
	c-0.217,0.086-0.434,0.172-0.65,0.261C207.735,32.303,229.768,15.208,256.003,15.208z M137.007,190.817
	c0-29.893,15.123-58.243,41.491-77.781c1.404-1.04,2.84-2.049,4.299-3.031c0.54-0.364,1.096-0.706,1.642-1.061
	c0.913-0.594,1.826-1.189,2.759-1.761c0.77-0.47,1.554-0.919,2.335-1.372c0.71-0.413,1.415-0.83,2.134-1.23
	c0.954-0.529,1.922-1.037,2.893-1.542c0.545-0.285,1.09-0.572,1.64-0.849c8.93-4.478,18.486-7.937,28.427-10.282
	c0.022-0.005,0.044-0.011,0.066-0.016c3.223-0.758,6.489-1.393,9.783-1.916c0.318-0.051,0.637-0.099,0.956-0.148
	c1.411-0.214,2.829-0.407,4.251-0.577c0.204-0.024,0.406-0.054,0.609-0.077c1.583-0.181,3.172-0.334,4.766-0.46
	c0.365-0.029,0.732-0.051,1.098-0.077c1.246-0.089,2.496-0.161,3.747-0.217c0.445-0.019,0.89-0.041,1.336-0.056
	c1.585-0.055,3.172-0.092,4.763-0.092c1.591,0,3.178,0.038,4.763,0.092c0.445,0.015,0.89,0.036,1.336,0.056
	c1.25,0.056,2.497,0.128,3.741,0.217c0.369,0.026,0.739,0.048,1.107,0.077c1.591,0.127,3.177,0.278,4.758,0.459
	c0.211,0.024,0.42,0.055,0.631,0.079c1.412,0.169,2.82,0.36,4.222,0.573c0.327,0.05,0.654,0.099,0.98,0.151
	c3.286,0.522,6.542,1.156,9.757,1.911c0.034,0.008,0.07,0.017,0.104,0.025c9.936,2.345,19.487,5.803,28.412,10.281
	c0.542,0.273,1.079,0.557,1.617,0.836c0.975,0.507,1.949,1.018,2.908,1.55c0.72,0.4,1.427,0.817,2.136,1.231
	c0.78,0.453,1.563,0.9,2.332,1.37c0.933,0.571,1.845,1.167,2.759,1.761c0.547,0.356,1.104,0.698,1.644,1.062
	c1.459,0.983,2.895,1.991,4.298,3.031c26.368,19.537,41.491,47.887,41.491,77.781c0,12.302-2.491,24.278-7.414,35.673
	c-6.777-0.901-13.425-2.195-19.827-3.859c-60.503-15.723-84.768-61.043-84.997-61.482l-6.758-13.103l-6.756,13.099
	c-0.413,0.782-24.719,45.82-84.999,61.486c-6.403,1.664-13.051,2.957-19.827,3.859C139.498,215.095,137.007,203.119,137.007,190.817
	z M173.765,266.79v-31.022c0.615-0.182,1.213-0.378,1.821-0.566c0.63-0.195,1.264-0.386,1.886-0.586
	c0.804-0.259,1.593-0.527,2.384-0.794c0.605-0.205,1.215-0.406,1.813-0.614c0.793-0.278,1.57-0.567,2.351-0.854
	c0.575-0.211,1.156-0.418,1.724-0.634c0.792-0.301,1.567-0.612,2.345-0.923c0.536-0.214,1.081-0.423,1.611-0.64
	c0.807-0.331,1.595-0.672,2.387-1.012c0.483-0.207,0.974-0.41,1.452-0.619c0.894-0.394,1.769-0.799,2.644-1.203
	c0.357-0.165,0.723-0.324,1.076-0.491c1.216-0.573,2.412-1.155,3.589-1.745c0.355-0.178,0.697-0.362,1.048-0.541
	c0.819-0.419,1.639-0.837,2.44-1.264c0.473-0.252,0.932-0.511,1.398-0.765c0.66-0.361,1.325-0.719,1.973-1.085
	c0.501-0.283,0.985-0.571,1.478-0.856c0.597-0.346,1.198-0.689,1.784-1.039c0.5-0.298,0.986-0.601,1.478-0.902
	c0.56-0.343,1.122-0.683,1.672-1.028c0.496-0.311,0.978-0.627,1.466-0.941c0.526-0.339,1.054-0.677,1.571-1.019
	c0.488-0.323,0.964-0.649,1.444-0.973c0.498-0.338,0.999-0.675,1.487-1.014c0.472-0.328,0.935-0.659,1.399-0.989
	c0.479-0.341,0.958-0.68,1.428-1.022c0.457-0.333,0.904-0.667,1.354-1.001c0.457-0.341,0.914-0.681,1.364-1.023
	c0.441-0.337,0.874-0.672,1.306-1.009c0.439-0.343,0.878-0.684,1.309-1.027c0.424-0.338,0.839-0.674,1.254-1.012
	c0.422-0.343,0.84-0.685,1.253-1.028c0.407-0.338,0.808-0.676,1.206-1.014c0.405-0.343,0.805-0.684,1.2-1.027
	c0.388-0.337,0.772-0.672,1.152-1.009c0.388-0.344,0.773-0.685,1.153-1.028c0.37-0.334,0.737-0.667,1.099-1
	c0.372-0.342,0.739-0.683,1.102-1.024c0.354-0.332,0.705-0.662,1.049-0.992c0.356-0.34,0.706-0.678,1.052-1.016
	c0.336-0.326,0.668-0.652,0.996-0.976c0.343-0.34,0.678-0.677,1.012-1.015c0.315-0.319,0.631-0.638,0.939-0.955
	c0.327-0.338,0.648-0.672,0.967-1.007c0.298-0.312,0.596-0.625,0.887-0.935c0.314-0.336,0.619-0.666,0.925-0.999
	c0.279-0.303,0.56-0.606,0.831-0.906c0.3-0.332,0.59-0.657,0.88-0.984c0.263-0.296,0.527-0.591,0.783-0.884
	c0.285-0.326,0.56-0.647,0.836-0.968c0.244-0.284,0.492-0.57,0.729-0.851c0.276-0.326,0.54-0.646,0.808-0.967
	c0.222-0.267,0.448-0.536,0.664-0.8c0.27-0.328,0.526-0.65,0.786-0.972c0.199-0.246,0.403-0.497,0.595-0.739
	c0.267-0.337,0.519-0.663,0.775-0.992c0.17-0.22,0.349-0.444,0.514-0.66c0.276-0.359,0.536-0.707,0.799-1.055
	c0.132-0.175,0.272-0.357,0.4-0.53c0.384-0.516,0.754-1.021,1.109-1.512c0.355,0.491,0.725,0.996,1.109,1.512
	c0.129,0.173,0.269,0.355,0.4,0.53c0.263,0.349,0.523,0.697,0.799,1.055c0.166,0.216,0.344,0.44,0.514,0.66
	c0.255,0.329,0.508,0.655,0.775,0.992c0.193,0.243,0.396,0.493,0.595,0.739c0.26,0.322,0.516,0.644,0.786,0.972
	c0.216,0.264,0.442,0.533,0.664,0.8c0.267,0.321,0.531,0.641,0.808,0.967c0.237,0.281,0.485,0.566,0.729,0.851
	c0.277,0.321,0.551,0.642,0.836,0.968c0.256,0.292,0.52,0.588,0.783,0.884c0.291,0.327,0.581,0.653,0.88,0.984
	c0.273,0.301,0.555,0.606,0.835,0.911c0.303,0.329,0.607,0.659,0.919,0.992c0.292,0.311,0.591,0.625,0.891,0.939
	c0.318,0.335,0.638,0.668,0.965,1.005c0.308,0.317,0.624,0.636,0.939,0.955c0.334,0.338,0.669,0.675,1.012,1.015
	c0.327,0.324,0.66,0.65,0.996,0.976c0.347,0.338,0.697,0.676,1.052,1.016c0.346,0.329,0.696,0.66,1.049,0.992
	c0.363,0.341,0.73,0.681,1.102,1.024c0.362,0.333,0.729,0.666,1.099,1c0.38,0.343,0.763,0.685,1.153,1.028
	c0.38,0.336,0.763,0.671,1.152,1.009c0.395,0.343,0.796,0.684,1.2,1.027c0.398,0.338,0.799,0.676,1.207,1.014
	c0.413,0.343,0.832,0.685,1.253,1.028c0.415,0.338,0.83,0.674,1.254,1.012c0.431,0.343,0.869,0.685,1.309,1.027
	c0.432,0.337,0.865,0.673,1.306,1.009c0.448,0.342,0.905,0.682,1.364,1.023c0.449,0.335,0.896,0.668,1.354,1.001
	c0.469,0.342,0.949,0.681,1.427,1.022c0.464,0.33,0.927,0.66,1.399,0.989c0.489,0.34,0.99,0.676,1.487,1.014
	c0.48,0.325,0.956,0.65,1.444,0.973c0.516,0.342,1.045,0.679,1.571,1.019c0.488,0.314,0.97,0.63,1.466,0.941
	c0.549,0.346,1.112,0.686,1.672,1.028c0.492,0.301,0.978,0.603,1.478,0.902c0.586,0.35,1.187,0.693,1.784,1.039
	c0.493,0.285,0.978,0.573,1.478,0.856c0.645,0.364,1.308,0.722,1.965,1.081c0.469,0.257,0.931,0.517,1.407,0.771
	c0.798,0.425,1.615,0.842,2.43,1.259c0.355,0.181,0.699,0.367,1.056,0.546c1.177,0.591,2.373,1.173,3.589,1.745
	c0.354,0.166,0.72,0.326,1.076,0.491c0.875,0.405,1.75,0.809,2.644,1.203c0.478,0.21,0.969,0.412,1.452,0.619
	c0.792,0.34,1.58,0.68,2.387,1.012c0.53,0.218,1.075,0.427,1.611,0.64c0.779,0.31,1.553,0.622,2.345,0.923
	c0.568,0.216,1.149,0.423,1.724,0.634c0.78,0.287,1.557,0.576,2.351,0.854c0.597,0.21,1.208,0.411,1.813,0.614
	c0.791,0.268,1.58,0.535,2.384,0.794c0.622,0.2,1.256,0.391,1.886,0.586c0.608,0.188,1.205,0.383,1.821,0.566v31.021
	c0,27.979-13.215,54.56-35.348,71.107c-7.528,5.627-15.865,9.948-24.78,12.844c-7.664,2.488-15.102,3.75-22.11,3.75
	c-7.009,0-14.447-1.261-22.107-3.748c-3.346-1.087-6.608-2.373-9.778-3.855c-5.282-2.468-10.302-5.474-15.004-8.99l-0.032-0.024
	C186.967,321.325,173.765,294.755,173.765,266.79z M197.116,378.642c0.384-0.822,1.341-1.278,2.234-1.021l36.005,10.243
	c0.754,0.214,1.48,0.483,2.176,0.799c4.87,2.218,8.219,6.836,8.753,12.298l0.979,10.036l-44.923-16.216l-10.924-3.943
	L197.116,378.642z M415.991,496.792H96.009v-48.54c0-13.922,9.424-26.041,22.917-29.469l8.883-2.257
	c12.144,10.825,64.277,53.696,128.166,53.696c64.362,0,115.835-43.295,127.464-53.888l9.635,2.448
	c13.494,3.43,22.917,15.548,22.917,29.47L415.991,496.792L415.991,496.792z"/>
<rect x="99.794" y="48.909" width="15.421" height="15.208"/>
<rect x="7.604" y="193.506" width="15.421" height="15.208"/>
<rect x="93.498" y="317.349" width="15.421" height="15.208"/>
<rect x="382.996" y="60.244" width="15.421" height="15.208"/>
<rect x="488.975" y="126.885" width="15.421" height="15.208"/>
<rect x="403.091" y="287.247" width="15.421" height="15.208"/>
<rect x="468.161" y="396.44" width="15.421" height="15.208"/>
<rect x="28.672" y="457.039" width="15.421" height="15.208"/>
<g>
</g>
<g>
</g>
<g>
</g>
<g>
</g>
<g>
</g>
<g>
</g>
<g>
</g>
<g>
</g>
<g>
</g>
<g>
</g>
<g>
</g>
<g>
</g>
<g>
</g>
<g>
</g>
<g>
</g>
</svg>
