<?xml version="1.0" encoding="iso-8859-1"?>
<!-- Generator: Adobe Illustrator 19.0.0, SVG Export Plug-In . SVG Version: 6.00 Build 0)  -->
<svg version="1.1" id="Layer_1" xmlns="http://www.w3.org/2000/svg" xmlns:xlink="http://www.w3.org/1999/xlink" x="0px" y="0px"
	 viewBox="0 0 512 512" style="enable-background:new 0 0 512 512;" xml:space="preserve">
<path style="fill:#E2AF47;" d="M408.722,432.586v70.336H103.278v-70.336c0-54.529,38.866-99.967,90.405-110.147h0.012
	c9.861-42.409,39.338-32.697,62.311-32.697s50.03-0.029,62.324,32.697C369.869,332.606,408.722,378.057,408.722,432.586z"/>
<path style="fill:#FED159;" d="M355.415,432.586v70.336h-198.83v-70.336c0-54.529,25.3-99.967,58.85-110.147h0.008
	c11.685,11.608,25.607-32.697,40.562-32.697c14.954,0,28.885,44.304,40.57,32.697C330.124,332.606,355.415,378.057,355.415,432.586z
	"/>
<g>
	<path style="fill:#FBDBD3;" d="M141.116,231.301c-15.062-4.393-26.07-18.311-26.07-34.791c0-16.426,10.942-30.319,25.94-34.751"/>
	<path style="fill:#FBDBD3;" d="M371.014,161.759c14.997,4.431,25.94,18.324,25.94,34.751c0,16.478-11.007,30.397-26.07,34.791"/>
</g>
<path style="fill:#E2D0BF;" d="M371.018,151.07v74.682c0,39.447-19.851,74.246-50.111,94.968c-0.242,0.182-0.508,0.351-0.75,0.52
	c-0.605,0.412-1.21,0.811-1.828,1.198c-17.95,11.608-39.35,18.326-62.324,18.326s-44.361-6.718-62.311-18.326h-0.012
	c-0.617-0.387-1.222-0.787-1.828-1.198c-0.242-0.169-0.496-0.339-0.75-0.52c-30.248-20.722-50.111-55.521-50.111-94.968v-69.768
	c0,0,0-1.84,0-4.914c0.012,0,0.012,0,0.024,0c33.08-3.292,72.576-5.193,114.988-5.193c42.425,0,81.92,1.9,114.988,5.193
	C371.006,151.07,371.006,151.07,371.018,151.07z"/>
<path style="fill:#EE4948;" d="M371.018,56.792v94.278c-0.012,0-0.012,0-0.024,0c-33.068-3.292-72.564-5.193-114.988-5.193
	c-24.607,0-48.247,0.642-70.203,1.816c-15.88,0.859-30.902,1.997-44.785,3.377c-0.012,0-0.012,0-0.024,0v-24.135
	c0,0,0.012-70.143,0.024-70.143c10.034-1.005,20.674-1.864,31.809-2.59c4.249-0.278,8.582-0.533,12.976-0.775
	c21.957-1.174,45.596-1.816,70.203-1.816c24.269,0,58.414,1.695,83.179,3.147C357.716,55.848,371.018,56.792,371.018,56.792z"/>
<path style="fill:#F9E8D4;" d="M256.006,174.927c-28.746,0-56.144,0.875-81.121,2.463v48.362c0,39.447,14.009,74.246,35.344,94.968
	c0.179,0.182,0.358,0.351,0.529,0.52c0.427,0.412,0.853,0.811,1.289,1.198h0.008c12.661,11.608,27.746,18.326,43.95,18.326
	s31.297-6.718,43.958-18.326c0.436-0.387,0.862-0.787,1.289-1.198c0.171-0.169,0.358-0.339,0.529-0.52
	c21.343-20.722,35.344-55.521,35.344-94.968v-48.363C312.155,175.802,284.758,174.927,256.006,174.927z"/>
<path style="fill:#FED159;" d="M339.366,14.259v37.353l-0.182,3.147c-24.765-1.452-58.91-3.147-83.179-3.147
	c-20.444,0-40.21,0.436-58.91,1.259c-8.315,0.375-16.413,0.823-24.269,1.331l-0.169-2.59V14.259c0.012,0,0.012,0,0.012,0
	c7.698-1.053,15.868-1.973,24.426-2.723c18.132-1.586,38.031-2.457,58.91-2.457c30.756,0,59.37,1.888,83.348,5.181
	C339.354,14.259,339.354,14.259,339.366,14.259z"/>
<path style="fill:#C63939;" d="M185.803,53.427v94.266c-15.88,0.859-30.902,1.997-44.785,3.377c-0.012,0-0.012,0-0.024,0v-24.135
	c0,0,0.012-70.143,0.024-70.143c10.034-1.005,20.674-1.864,31.809-2.59C177.076,53.923,181.409,53.669,185.803,53.427z"/>
<g>
	<path style="fill:#E2AF47;" d="M197.096,11.535V52.87c-8.315,0.375-16.413,0.823-24.269,1.331l-0.169-2.59V14.259
		c0.012,0,0.012,0,0.012,0C180.368,13.205,188.538,12.286,197.096,11.535z"/>
	<path style="fill:#E2AF47;" d="M314.928,11.535V52.87c8.315,0.375,16.413,0.823,24.269,1.331l0.169-2.59V14.259
		c-0.012,0-0.012,0-0.012,0C331.656,13.205,323.486,12.286,314.928,11.535z"/>
</g>
<path style="fill:#C63939;" d="M326.209,53.427v94.266c15.88,0.859,30.902,1.997,44.785,3.377c0.012,0,0.012,0,0.024,0v-24.135
	c0,0-0.012-70.143-0.024-70.143c-10.034-1.005-20.674-1.864-31.809-2.59C334.936,53.923,330.603,53.669,326.209,53.427z"/>
<circle style="fill:#FED159;" cx="256.012" cy="92.535" r="29.243"/>
<path d="M338.275,318.658c23.449-20.779,38.209-49.68,41.235-80.919c15.885-7.275,26.521-23.404,26.521-41.229
	c0-17.587-10.38-33.557-25.935-40.958v-98.76c0-4.764-3.683-8.719-8.435-9.055c-0.111-0.008-9.467-0.669-23.217-1.515V14.259
	c0-4.641-3.492-8.468-7.986-9.011C315.402,1.814,286.201,0,256.006,0c-30.162,0-59.331,1.811-84.372,5.237
	c-4.532,0.51-8.054,4.354-8.054,9.021v31.484c-8.237,0.604-16.101,1.279-23.466,2.017l0.004,0.034
	c-2.294,0.316-8.169,1.895-8.18,9.774l-0.022,97.981c-15.562,7.398-25.947,23.372-25.947,40.964
	c0,17.829,10.643,33.963,26.534,41.234c3.028,31.232,17.789,60.132,41.241,80.914C126.719,335.919,94.2,381.183,94.2,432.587v27.391
	c0,5.013,4.065,9.078,9.078,9.078s9.078-4.065,9.078-9.078v-27.391c0-47.986,33.311-89.686,79.686-100.488
	c16.676,10.06,35.43,16.004,54.889,17.414v24.397c0,5.013,4.065,9.078,9.078,9.078c5.015,0,9.078-4.065,9.078-9.078v-24.397
	c19.464-1.41,38.221-7.356,54.897-17.415c46.362,10.793,79.661,52.493,79.661,100.489v61.257h-42.972V384.704
	c0-5.013-4.063-9.078-9.078-9.078s-9.078,4.065-9.078,9.078v109.139h-76.208v-62.753c0-5.013-4.063-9.078-9.078-9.078
	s-9.078,4.065-9.078,9.078v62.753h-70.671V391.15c0-5.013-4.065-9.078-9.078-9.078c-5.013,0-9.078,4.065-9.078,9.078v102.694h-42.97
	v-2.397c0-5.013-4.065-9.078-9.078-9.078s-9.078,4.065-9.078,9.078v11.475c0,5.013,4.065,9.078,9.078,9.078h305.445
	c5.015,0,9.078-4.065,9.078-9.078v-70.336C417.8,381.173,385.289,335.911,338.275,318.658z M380.096,215.478v-37.934
	c4.842,4.974,7.779,11.736,7.779,18.966C387.875,203.747,384.939,210.507,380.096,215.478z M256.006,18.156
	c26.327,0,51.82,1.409,74.282,4.092v22.91c-23.456-1.3-52.671-2.625-74.282-2.625c-25.679,0-50.612,0.684-74.27,2.03V22.248
	C204.198,19.565,229.686,18.156,256.006,18.156z M150.089,65.052c7.385-0.661,15.199-1.261,23.332-1.791
	c19.495-1.276,39.959-2.081,61.068-2.406c-10.131,6.903-16.798,18.53-16.798,31.687c0,21.129,17.19,38.319,38.319,38.319
	c11.898,0,22.921-5.389,30.241-14.784c3.082-3.956,2.374-9.659-1.582-12.741c-3.952-3.08-9.658-2.374-12.739,1.582
	c-3.856,4.948-9.658,7.787-15.919,7.787c-11.119,0-20.163-9.045-20.163-20.163s9.045-20.163,20.163-20.163
	c8.192,0,15.509,4.891,18.641,12.46c1.918,4.632,7.229,6.834,11.861,4.915s6.833-7.227,4.915-11.86
	c-2.89-6.984-7.667-12.753-13.588-16.855c20.404,0.571,43.164,1.747,60.814,2.782c9.474,0.557,17.623,1.078,23.288,1.454v75.837
	c-32.088-2.823-68.46-4.311-105.934-4.311c-37.464,0-73.837,1.489-105.934,4.311v-14.175
	C150.075,109.19,150.081,79.39,150.089,65.052z M131.916,177.532v37.959c-4.85-4.972-7.791-11.738-7.791-18.982
	C124.124,189.274,127.067,182.507,131.916,177.532z M313.401,314.816c-14.531,9.396-31.079,15.005-48.314,16.47v-10.661
	c0-5.013-4.063-9.078-9.078-9.078c-5.013,0-9.078,4.065-9.078,9.078v10.661c-17.23-1.465-33.775-7.074-48.306-16.47
	c0,0-2.34-1.551-2.389-1.586c-28.906-19.803-46.164-52.505-46.164-87.479v-66.415c27.197-2.441,57.622-3.899,89.243-4.279v86.292
	c0,5.013,4.065,9.078,9.078,9.078h15.596c5.015,0,9.078-4.065,9.078-9.078c0-5.013-4.063-9.078-9.078-9.078h-6.517v-77.313
	c37.056,0.039,72.941,1.546,104.469,4.377v66.415c0,34.982-17.257,67.684-46.161,87.478
	C315.672,313.304,313.434,314.794,313.401,314.816z"/>
<path d="M182.682,229.472c10.949-3.417,22.523-3.417,33.47,0c0.901,0.281,1.812,0.415,2.708,0.415c3.866,0,7.45-2.49,8.663-6.376
	c1.494-4.786-1.175-9.877-5.961-11.371c-14.487-4.521-29.801-4.521-44.287,0c-4.786,1.494-7.455,6.583-5.961,11.371
	C172.805,228.298,177.898,230.966,182.682,229.472z"/>
<path d="M295.865,229.472c10.948-3.416,22.522-3.416,33.47,0c0.901,0.281,1.811,0.415,2.706,0.415c3.866,0,7.451-2.491,8.663-6.376
	c1.494-4.786-1.175-9.877-5.961-11.371c-14.487-4.521-29.801-4.521-44.289,0c-4.786,1.494-7.455,6.583-5.961,11.371
	C285.988,228.295,291.069,230.968,295.865,229.472z"/>
<path d="M272.734,276.618c-10.477,5.404-22.986,5.404-33.464,0c-4.454-2.299-9.931-0.55-12.23,3.906
	c-2.299,4.455-0.55,9.931,3.907,12.23c7.843,4.046,16.449,6.069,25.055,6.069s17.211-2.023,25.057-6.069
	c4.455-2.299,6.205-7.774,3.906-12.23C282.666,276.068,277.191,274.322,272.734,276.618z"/>
<path d="M324.238,289.418c1.059,0,2.136-0.186,3.187-0.58c4.694-1.761,7.072-6.994,5.312-11.688
	c-9.894-26.381-40.972-26.683-42.289-26.683c-5.015,0-9.078,4.065-9.078,9.078s4.063,9.078,9.078,9.078
	c0.05,0,5.223,0.09,10.988,2.095c7.248,2.521,12.06,6.83,14.301,12.807C317.104,287.17,320.563,289.418,324.238,289.418z"/>
<path d="M230.647,259.544c0-5.013-4.065-9.078-9.078-9.078c-0.822,0-8.282,0.087-16.953,3.103
	c-12.409,4.316-21.17,12.47-25.337,23.581c-1.761,4.694,0.619,9.927,5.312,11.688c1.051,0.393,2.127,0.581,3.186,0.58
	c3.675,0,7.135-2.249,8.501-5.892c2.194-5.852,6.858-10.108,13.859-12.651c5.93-2.153,11.323-2.25,11.472-2.253
	C226.605,268.6,230.647,264.544,230.647,259.544z"/>
<g>
</g>
<g>
</g>
<g>
</g>
<g>
</g>
<g>
</g>
<g>
</g>
<g>
</g>
<g>
</g>
<g>
</g>
<g>
</g>
<g>
</g>
<g>
</g>
<g>
</g>
<g>
</g>
<g>
</g>
</svg>
