<?xml version="1.0" encoding="iso-8859-1"?>
<!-- Generator: Adobe Illustrator 19.0.0, SVG Export Plug-In . SVG Version: 6.00 Build 0)  -->
<svg version="1.1" id="Layer_1" xmlns="http://www.w3.org/2000/svg" xmlns:xlink="http://www.w3.org/1999/xlink" x="0px" y="0px"
	 viewBox="0 0 480 480" style="enable-background:new 0 0 480 480;" xml:space="preserve">
<rect x="88" style="fill:#D10D0D;" width="304" height="480"/>
<polyline style="fill:#8C0000;" points="88,0 392,0 392,480 "/>
<polygon style="fill:#FFC50B;" points="368,456 112,456 112,56 128,56 128,440 352,440 352,56 368,56 "/>
<g>
	<polygon style="fill:#FF7C10;" points="368,456 368,56 352,56 352,440 	"/>
	<polyline style="fill:#FF7C10;" points="128,440 128,56 112,56 	"/>
</g>
<polygon style="fill:#FF642E;" points="88,64.8 240,140 392,64.8 392,0 88,0 "/>
<polyline style="fill:#FF0606;" points="240,140.8 392,64.8 392,0 88,0 "/>
<polyline style="fill:#D10D0D;" points="240,140.8 392,64.8 392,0 "/>
<circle style="fill:#FFC50B;" cx="240" cy="282.4" r="82.4"/>
<path style="fill:#FF7C10;" d="M240,200.8c45.6,0,82.4,36.8,82.4,82.4s-36.8,81.6-82.4,81.6"/>
<rect x="210.267" y="253.066" transform="matrix(-0.7072 -0.707 0.707 -0.7072 210.0548 653.1225)" style="fill:#D10D0D;" width="59.999" height="59.999"/>
<polyline style="fill:#8C0000;" points="240,240.8 282.4,282.4 240,324.8 "/>
<g>
	<circle style="fill:#FFC50B;" cx="240" cy="29.6" r="6.4"/>
	<circle style="fill:#FFC50B;" cx="240" cy="62.4" r="6.4"/>
	<circle style="fill:#FFC50B;" cx="240" cy="95.2" r="6.4"/>
</g>
<g>
	<circle style="fill:#8C0000;" cx="240" cy="226.4" r="5.6"/>
	<circle style="fill:#8C0000;" cx="240" cy="339.2" r="5.6"/>
	<circle style="fill:#8C0000;" cx="296" cy="282.4" r="5.6"/>
	<circle style="fill:#8C0000;" cx="184" cy="282.4" r="5.6"/>
</g>
<g>
</g>
<g>
</g>
<g>
</g>
<g>
</g>
<g>
</g>
<g>
</g>
<g>
</g>
<g>
</g>
<g>
</g>
<g>
</g>
<g>
</g>
<g>
</g>
<g>
</g>
<g>
</g>
<g>
</g>
</svg>
