<?xml version="1.0" encoding="iso-8859-1"?>
<!-- Generator: Adobe Illustrator 19.0.0, SVG Export Plug-In . SVG Version: 6.00 Build 0)  -->
<svg version="1.1" id="Layer_1" xmlns="http://www.w3.org/2000/svg" xmlns:xlink="http://www.w3.org/1999/xlink" x="0px" y="0px"
	 viewBox="0 0 496.152 496.152" style="enable-background:new 0 0 496.152 496.152;" xml:space="preserve">
<g>
	<rect x="216.206" y="48.152" style="fill:#D10D0D;" width="8" height="128"/>
	<rect x="160.206" y="48.152" style="fill:#D10D0D;" width="16" height="128"/>
	<rect x="216.206" y="48.152" style="fill:#D10D0D;" width="16" height="128"/>
</g>
<g>
	<rect x="168.206" y="88.152" style="fill:#821717;" width="56" height="8"/>
	<rect x="168.206" y="128.152" style="fill:#821717;" width="56" height="8"/>
</g>
<g>
	<rect x="264.206" y="48.152" style="fill:#D10D0D;" width="16" height="128"/>
	<rect x="320.206" y="48.152" style="fill:#D10D0D;" width="16" height="128"/>
</g>
<g>
	<rect x="272.206" y="88.152" style="fill:#821717;" width="56" height="8"/>
	<rect x="272.206" y="128.152" style="fill:#821717;" width="56" height="8"/>
	<polygon style="fill:#821717;" points="460.206,64.152 36.206,64.152 12.206,0.152 484.206,0.152 	"/>
</g>
<polygon style="fill:#D10D0D;" points="136.206,496.152 58.606,496.152 114.606,48.152 136.206,48.152 "/>
<polyline style="fill:#821717;" points="136.206,48.152 136.206,496.152 56.206,496.152 "/>
<polygon style="fill:#D10D0D;" points="360.206,496.152 437.806,496.152 381.806,48.152 360.206,48.152 "/>
<polyline style="fill:#821717;" points="360.206,496.152 437.806,496.152 381.806,48.152 "/>
<rect x="128.206" y="168.152" style="fill:#D10D0D;" width="240" height="16"/>
<polyline style="fill:#821717;" points="368.206,168.152 368.206,184.152 128.206,184.152 "/>
<rect x="128.206" y="208.152" style="fill:#D10D0D;" width="240" height="16"/>
<polyline style="fill:#821717;" points="368.206,208.152 368.206,224.152 128.206,224.152 "/>
<path style="fill:#D10D0D;" d="M33.006,26.552c6.4,16.8,8,35.2,3.2,37.6c-4.8,1.6-15.2-13.6-21.6-30.4c-7.2-16.8-7.2-31.2-2.4-33.6
	C17.006-1.448,26.606,9.752,33.006,26.552z"/>
<path style="fill:#5E0404;" d="M463.406,26.552c-6.4,16.8-8.8,36-3.2,37.6c4.8,1.6,15.2-13.6,21.6-30.4s7.2-32,2.4-33.6
	C479.406-1.448,469.806,9.752,463.406,26.552z"/>
<g>
	<circle style="fill:#D10D0D;" cx="197.806" cy="20.152" r="4"/>
	<circle style="fill:#D10D0D;" cx="222.606" cy="20.152" r="4"/>
	<circle style="fill:#D10D0D;" cx="248.206" cy="20.152" r="4"/>
	<circle style="fill:#D10D0D;" cx="273.806" cy="20.152" r="4"/>
	<circle style="fill:#D10D0D;" cx="298.606" cy="20.152" r="4"/>
</g>
<g>
	
		<rect x="203.481" y="320.751" transform="matrix(0.7071 -0.7071 0.7071 0.7071 -170.0238 244.6285)" style="fill:#FFC610;" width="13.6" height="13.6"/>
	
		<rect x="203.324" y="296.444" transform="matrix(0.7077 -0.7065 0.7065 0.7077 -152.8262 237.0902)" style="fill:#FFC610;" width="13.6" height="13.6"/>
	<path style="fill:#FFC610;" d="M206.606,280.152c0-1.6,1.6-3.2,3.2-3.2l0,0c1.6,0,3.2,1.6,3.2,3.2l0,0c0,1.6-1.6,3.2-3.2,3.2l0,0
		C208.206,284.152,206.606,282.552,206.606,280.152L206.606,280.152z"/>
	<path style="fill:#FFC610;" d="M206.606,257.752c0-1.6,1.6-3.2,3.2-3.2l0,0c1.6,0,3.2,1.6,3.2,3.2l0,0c0,1.6-1.6,3.2-3.2,3.2l0,0
		C208.206,260.952,206.606,259.352,206.606,257.752L206.606,257.752z"/>
	<path style="fill:#FFC610;" d="M206.606,235.352c0-1.6,1.6-3.2,3.2-3.2l0,0c1.6,0,3.2,1.6,3.2,3.2l0,0c0,1.6-1.6,3.2-3.2,3.2l0,0
		C208.206,238.552,206.606,236.952,206.606,235.352L206.606,235.352z"/>
	
		<rect x="241.768" y="320.784" transform="matrix(0.7071 -0.7071 0.7071 0.7071 -158.8328 271.7114)" style="fill:#FFC610;" width="13.6" height="13.6"/>
	
		<rect x="241.652" y="296.486" transform="matrix(0.7077 -0.7065 0.7065 0.7077 -141.6525 264.1816)" style="fill:#FFC610;" width="13.6" height="13.6"/>
	<path style="fill:#FFC610;" d="M245.006,280.152c0-1.6,1.6-3.2,3.2-3.2l0,0c1.6,0,3.2,1.6,3.2,3.2l0,0c0,1.6-1.6,3.2-3.2,3.2l0,0
		C246.606,284.152,245.006,282.552,245.006,280.152L245.006,280.152z"/>
	<path style="fill:#FFC610;" d="M245.006,257.752c0-1.6,1.6-3.2,3.2-3.2l0,0c1.6,0,3.2,1.6,3.2,3.2l0,0c0,1.6-1.6,3.2-3.2,3.2l0,0
		C246.606,260.952,245.006,259.352,245.006,257.752L245.006,257.752z"/>
	<path style="fill:#FFC610;" d="M245.006,235.352c0-1.6,1.6-3.2,3.2-3.2l0,0c1.6,0,3.2,1.6,3.2,3.2l0,0c0,1.6-1.6,3.2-3.2,3.2l0,0
		C246.606,238.552,245.006,236.952,245.006,235.352L245.006,235.352z"/>
	
		<rect x="280.056" y="320.849" transform="matrix(0.7071 -0.7071 0.7071 0.7071 -147.6644 298.8035)" style="fill:#FFC610;" width="13.6" height="13.6"/>
	
		<rect x="279.917" y="296.528" transform="matrix(0.7077 -0.7065 0.7065 0.7077 -130.4975 291.2277)" style="fill:#FFC610;" width="13.6" height="13.6"/>
	<path style="fill:#FFC610;" d="M283.406,280.152c0-1.6,1.6-3.2,3.2-3.2l0,0c1.6,0,3.2,1.6,3.2,3.2l0,0c0,1.6-1.6,3.2-3.2,3.2l0,0
		C285.006,284.152,283.406,282.552,283.406,280.152L283.406,280.152z"/>
	<path style="fill:#FFC610;" d="M283.406,257.752c0-1.6,1.6-3.2,3.2-3.2l0,0c1.6,0,3.2,1.6,3.2,3.2l0,0c0,1.6-1.6,3.2-3.2,3.2l0,0
		C285.006,260.952,283.406,259.352,283.406,257.752L283.406,257.752z"/>
	<path style="fill:#FFC610;" d="M283.406,235.352c0-1.6,1.6-3.2,3.2-3.2l0,0c1.6,0,3.2,1.6,3.2,3.2l0,0c0,1.6-1.6,3.2-3.2,3.2l0,0
		C285.006,238.552,283.406,236.952,283.406,235.352L283.406,235.352z"/>
	<path style="fill:#FFC610;" d="M144.206,376.152c0,4.8-3.2,8-8,8h-72c-4.8,0-8-3.2-8-8l0,0c0-4.8,3.2-8,8-8h72
		C141.006,368.152,144.206,371.352,144.206,376.152L144.206,376.152z"/>
	<path style="fill:#FFC610;" d="M144.206,416.152c0,4.8-3.2,8-8,8h-72c-4.8,0-8-3.2-8-8l0,0c0-4.8,3.2-8,8-8h72
		C141.006,408.152,144.206,411.352,144.206,416.152L144.206,416.152z"/>
	<path style="fill:#FFC610;" d="M440.206,376.152c0-4.8-3.2-8-8-8h-72c-4.8,0-8,3.2-8,8l0,0c0,4.8,3.2,8,8,8h72
		C437.006,384.152,440.206,380.952,440.206,376.152L440.206,376.152z"/>
	<path style="fill:#FFC610;" d="M440.206,416.152c0-4.8-3.2-8-8-8h-72c-4.8,0-8,3.2-8,8l0,0c0,4.8,3.2,8,8,8h72
		C437.006,424.152,440.206,420.952,440.206,416.152L440.206,416.152z"/>
</g>
<g>
</g>
<g>
</g>
<g>
</g>
<g>
</g>
<g>
</g>
<g>
</g>
<g>
</g>
<g>
</g>
<g>
</g>
<g>
</g>
<g>
</g>
<g>
</g>
<g>
</g>
<g>
</g>
<g>
</g>
</svg>
