<?xml version="1.0" encoding="iso-8859-1"?>
<!-- Generator: Adobe Illustrator 19.0.0, SVG Export Plug-In . SVG Version: 6.00 Build 0)  -->
<svg version="1.1" id="Layer_1" xmlns="http://www.w3.org/2000/svg" xmlns:xlink="http://www.w3.org/1999/xlink" x="0px" y="0px"
	 viewBox="0 0 512 512" style="enable-background:new 0 0 512 512;" xml:space="preserve">
<g>
	<path style="fill:#FF3502;" d="M273.662,403.43h32.329c42.87-25.169,72.75-81.707,72.75-147.428s-29.88-122.258-72.75-147.428
		h-32.329c18.73,25.169,31.784,81.707,31.784,147.428S292.391,378.26,273.662,403.43z"/>
	<path style="fill:#FF3502;" d="M238.338,403.43h35.322c18.73-25.169,31.785-81.707,31.785-147.428s-13.054-122.258-31.783-147.428
		h-35.322c-18.73,25.169-31.785,81.707-31.785,147.428S219.609,378.26,238.338,403.43z"/>
</g>
<polygon style="fill:#FECE00;" points="177.998,80.662 177.998,108.411 177.998,108.574 206.009,108.574 234.159,108.574 
	277.841,108.574 305.991,108.574 334.002,108.574 334.002,108.411 334.002,80.662 "/>
<g>
	<path style="fill:#FF3502;" d="M206.009,403.43c-42.87-25.169-72.75-81.707-72.75-147.428s29.88-122.258,72.75-147.428h-28.011
		v-0.163c-67.51,25.086-111.472,81.726-111.472,147.591s43.962,122.505,111.472,147.591v-0.163H206.009z"/>
	<path style="fill:#FF3502;" d="M445.473,256.002c0-65.865-43.962-122.505-111.472-147.591v0.163H305.99
		c42.87,25.169,72.75,81.707,72.75,147.428S348.86,378.26,305.99,403.43h28.011v0.163
		C401.511,378.506,445.473,321.867,445.473,256.002z"/>
	<path style="fill:#FF3502;" d="M133.259,256.002c0,65.72,29.88,122.258,72.75,147.428h32.329
		c-18.73-25.169-31.785-81.708-31.785-147.428s13.055-122.258,31.785-147.428h-32.329
		C163.14,133.744,133.259,190.282,133.259,256.002z"/>
</g>
<g>
	<path style="fill:#CD2A01;" d="M305.991,108.574h-24.376c42.87,25.169,72.75,81.707,72.75,147.428s-29.88,122.258-72.75,147.428
		h24.376c42.87-25.169,72.75-81.707,72.75-147.428S348.86,133.744,305.991,108.574z"/>
	<path style="fill:#CD2A01;" d="M206.009,108.574h24.376c-42.87,25.169-72.75,81.707-72.75,147.428s29.88,122.258,72.75,147.428
		h-24.376c-42.87-25.169-72.75-81.707-72.75-147.428S163.14,133.744,206.009,108.574z"/>
</g>
<polygon style="fill:#FECE00;" points="305.991,403.43 277.841,403.43 234.159,403.43 206.009,403.43 177.998,403.43 
	177.998,403.593 177.998,431.342 334.002,431.342 334.002,403.593 334.002,403.43 "/>
<g>
	<path style="fill:#CD2A01;" d="M94.999,256.002c0-65.72,42.018-122.258,84.888-147.428h-1.889h-0.428
		c-67.267,25.166-111.044,81.703-111.044,147.428S110.303,378.264,177.57,403.43h0.428h1.889
		C137.017,378.26,94.999,321.721,94.999,256.002z"/>
	<path style="fill:#CD2A01;" d="M445.473,256.002c0-65.725-43.777-122.261-111.044-147.428h-0.428h-1.889
		C374.982,133.744,417,190.282,417,256.002S374.982,378.26,332.112,403.43h1.889h0.428
		C401.696,378.263,445.473,321.727,445.473,256.002z"/>
</g>
<g>
	<polygon style="fill:#DDB201;" points="177.998,80.662 177.998,108.411 177.998,108.574 185.049,108.574 192.135,108.574 
		203.131,108.574 210.216,108.574 217.267,108.574 217.267,108.411 217.267,80.662 	"/>
	<polygon style="fill:#DDB201;" points="294.733,80.662 294.733,108.411 294.733,108.574 301.784,108.574 308.869,108.574 
		319.865,108.574 326.951,108.574 334.002,108.574 334.002,108.411 334.002,80.662 	"/>
	<polygon style="fill:#DDB201;" points="177.998,403.43 177.998,431.178 177.998,431.342 185.049,431.342 192.135,431.342 
		203.131,431.342 210.216,431.342 217.267,431.342 217.267,431.178 217.267,403.43 	"/>
	<polygon style="fill:#DDB201;" points="294.733,403.43 294.733,431.178 294.733,431.342 301.784,431.342 308.869,431.342 
		319.865,431.342 326.951,431.342 334.002,431.342 334.002,431.178 334.002,403.43 	"/>
</g>
<g>
	<path style="fill:#CD2A01;" d="M249.286,108.574h-10.946c-18.73,25.169-31.785,81.707-31.785,147.428S219.61,378.26,238.339,403.43
		h10.946c-7.121-25.169-21.366-81.707-21.366-147.428S242.164,133.744,249.286,108.574z"/>
	<path style="fill:#CD2A01;" d="M273.662,108.574h-10.946c7.121,25.169,21.366,81.707,21.366,147.428S269.837,378.26,262.716,403.43
		h10.946c18.73-25.169,31.784-81.707,31.784-147.428S292.391,133.744,273.662,108.574z"/>
</g>
<path d="M102.576,69.489H88.47V53.816h14.106V39.71h15.673v14.106h14.106v15.673h-14.106v14.106h-15.673V69.489z M511.998,166.355
	h-14.106v-14.106h-15.673v14.106h-14.106v15.673h14.106v14.106h15.673v-14.106h14.106V166.355z M29.781,422.14H14.108v14.106H0.002
	v15.673h14.106v14.106h15.673v-14.106h14.106v-15.673H29.781C29.781,436.246,29.781,422.14,29.781,422.14z M453.31,256.002
	c0,33.862-11.073,66.309-32.021,93.833c-19.585,25.735-46.98,46.081-79.451,59.11v30.233h-16.425V512H309.74v-72.821h-15.115V512
	h-15.673v-72.821h-15.115V512h-15.673v-72.821h-15.115V512h-15.673v-72.821h-15.114V512h-15.673v-72.821h-16.425v-30.233
	c-32.471-13.03-59.866-33.377-79.451-59.11c-20.948-27.523-32.021-59.971-32.021-93.833c0-33.863,11.073-66.309,32.021-93.833
	c19.585-25.735,46.98-46.081,79.451-59.11V72.826h78.001V0h15.673v72.826h78.001v30.233c32.471,13.03,59.866,33.376,79.451,59.11
	C442.237,189.692,453.31,222.139,453.31,256.002z M185.836,100.738h140.33V88.499h-140.33V100.738z M326.165,134.509
	c-0.533-0.55-1.066-1.098-1.606-1.636c-0.564-0.562-1.136-1.113-1.708-1.661c-0.551-0.528-1.102-1.053-1.66-1.568
	c-0.579-0.535-1.165-1.058-1.753-1.58c-0.568-0.504-1.138-1.005-1.714-1.496c-0.592-0.506-1.192-1.001-1.793-1.493
	c-0.587-0.481-1.177-0.959-1.772-1.426c-0.605-0.476-1.216-0.941-1.829-1.404c-0.606-0.457-1.213-0.909-1.826-1.352
	c-0.618-0.446-1.241-0.883-1.866-1.316c-0.624-0.432-1.25-0.857-1.881-1.274c-0.629-0.416-1.263-0.821-1.9-1.224
	c-0.359-0.227-0.723-0.446-1.085-0.669h-16.088c0.307,0.589,0.607,1.201,0.91,1.805c0.16,0.32,0.322,0.63,0.481,0.954
	c0.527,1.076,1.047,2.173,1.559,3.296c0.087,0.19,0.17,0.389,0.257,0.581c0.424,0.942,0.845,1.896,1.26,2.869
	c0.171,0.403,0.339,0.817,0.509,1.226c0.325,0.781,0.648,1.566,0.967,2.366c0.186,0.468,0.369,0.944,0.553,1.418
	c0.298,0.768,0.592,1.542,0.884,2.326c0.183,0.493,0.365,0.99,0.545,1.489c0.289,0.799,0.575,1.608,0.857,2.424
	c0.171,0.494,0.343,0.986,0.512,1.486c0.296,0.877,0.587,1.766,0.876,2.66c0.146,0.451,0.294,0.898,0.438,1.354
	c0.363,1.147,0.718,2.312,1.069,3.488c0.064,0.211,0.129,0.417,0.191,0.629c0.414,1.403,0.819,2.826,1.217,4.268
	c0.102,0.371,0.201,0.75,0.302,1.124c0.289,1.071,0.578,2.147,0.858,3.238c0.134,0.52,0.263,1.048,0.395,1.573
	c0.241,0.964,0.482,1.933,0.716,2.912c0.137,0.573,0.272,1.15,0.406,1.728c0.223,0.957,0.443,1.921,0.658,2.891
	c0.132,0.59,0.262,1.182,0.391,1.776c0.216,1,0.427,2.008,0.636,3.021c0.117,0.567,0.235,1.133,0.35,1.705
	c0.229,1.139,0.449,2.289,0.669,3.444c0.087,0.455,0.176,0.903,0.26,1.36c0.302,1.629,0.596,3.272,0.879,4.931
	c0.013,0.074,0.024,0.149,0.037,0.224c0.267,1.572,0.526,3.158,0.775,4.755c0.083,0.529,0.161,1.065,0.241,1.598
	c0.176,1.156,0.349,2.314,0.516,3.484c0.091,0.634,0.178,1.273,0.265,1.911c0.149,1.085,0.296,2.173,0.438,3.268
	c0.087,0.674,0.172,1.35,0.257,2.027c0.136,1.09,0.266,2.186,0.395,3.286c0.078,0.672,0.157,1.343,0.232,2.019
	c0.13,1.158,0.252,2.323,0.372,3.49c0.064,0.621,0.131,1.238,0.192,1.862c0.14,1.413,0.271,2.835,0.398,4.261
	c0.033,0.381,0.071,0.759,0.104,1.141c0.157,1.816,0.304,3.645,0.441,5.483c0.033,0.457,0.063,0.917,0.095,1.375
	c0.098,1.38,0.193,2.763,0.281,4.154c0.042,0.671,0.078,1.347,0.118,2.02c0.07,1.194,0.137,2.392,0.197,3.594
	c0.038,0.734,0.071,1.47,0.106,2.207c0.053,1.16,0.103,2.322,0.148,3.489c0.029,0.753,0.057,1.507,0.084,2.263
	c0.041,1.182,0.075,2.368,0.108,3.556c0.02,0.732,0.041,1.464,0.057,2.198c0.029,1.294,0.051,2.592,0.07,3.892
	c0.009,0.629,0.023,1.254,0.03,1.884c0.022,1.929,0.034,3.864,0.034,5.808c0,1.943-0.014,3.879-0.034,5.807
	c-0.007,0.63-0.02,1.256-0.03,1.884c-0.02,1.301-0.041,2.6-0.07,3.894c-0.017,0.731-0.038,1.46-0.057,2.188
	c-0.032,1.194-0.068,2.387-0.109,3.574c-0.026,0.749-0.054,1.496-0.083,2.242c-0.046,1.174-0.096,2.345-0.149,3.512
	c-0.033,0.729-0.067,1.459-0.104,2.186c-0.062,1.214-0.13,2.422-0.2,3.629c-0.039,0.66-0.074,1.323-0.116,1.981
	c-0.089,1.418-0.185,2.827-0.286,4.234c-0.031,0.432-0.059,0.866-0.09,1.297c-0.137,1.845-0.284,3.681-0.442,5.504
	c-0.03,0.35-0.065,0.696-0.096,1.045c-0.13,1.462-0.264,2.918-0.408,4.366c-0.06,0.6-0.123,1.193-0.185,1.791
	c-0.123,1.193-0.248,2.383-0.38,3.565c-0.073,0.654-0.148,1.305-0.225,1.956c-0.131,1.126-0.265,2.249-0.404,3.365
	c-0.082,0.652-0.163,1.303-0.248,1.952c-0.146,1.128-0.297,2.249-0.451,3.366c-0.084,0.608-0.167,1.217-0.253,1.822
	c-0.173,1.216-0.354,2.422-0.537,3.625c-0.074,0.484-0.144,0.972-0.219,1.453c-0.53,3.385-1.097,6.713-1.703,9.978
	c-0.073,0.393-0.15,0.778-0.224,1.17c-0.231,1.223-0.466,2.44-0.707,3.644c-0.106,0.525-0.214,1.042-0.321,1.563
	c-0.219,1.066-0.442,2.126-0.67,3.177c-0.119,0.551-0.24,1.098-0.362,1.645c-0.228,1.022-0.459,2.035-0.693,3.042
	c-0.124,0.533-0.249,1.066-0.375,1.596c-0.248,1.033-0.5,2.055-0.755,3.072c-0.119,0.475-0.237,0.955-0.358,1.427
	c-0.302,1.174-0.61,2.334-0.924,3.486c-0.079,0.292-0.156,0.588-0.235,0.879c-0.404,1.466-0.816,2.914-1.238,4.341
	c-0.031,0.106-0.064,0.207-0.095,0.311c-0.382,1.286-0.771,2.557-1.168,3.811c-0.126,0.401-0.257,0.794-0.386,1.192
	c-0.306,0.951-0.615,1.895-0.931,2.826c-0.156,0.461-0.315,0.914-0.472,1.37c-0.297,0.858-0.597,1.708-0.901,2.547
	c-0.168,0.465-0.337,0.926-0.508,1.385c-0.306,0.825-0.616,1.641-0.93,2.448c-0.169,0.438-0.339,0.877-0.51,1.308
	c-0.337,0.849-0.68,1.684-1.026,2.513c-0.15,0.362-0.299,0.728-0.451,1.086c-0.451,1.062-0.91,2.105-1.374,3.13
	c-0.049,0.108-0.096,0.22-0.145,0.328c-0.519,1.139-1.047,2.253-1.582,3.345c-0.135,0.275-0.273,0.538-0.408,0.81
	c-0.322,0.646-0.643,1.296-0.97,1.924h16.087c0.37-0.227,0.741-0.451,1.109-0.683c0.622-0.393,1.241-0.79,1.857-1.195
	c0.646-0.426,1.286-0.862,1.924-1.303c0.611-0.423,1.221-0.849,1.825-1.286c0.627-0.452,1.248-0.914,1.866-1.381
	c0.6-0.452,1.198-0.909,1.791-1.375c0.607-0.478,1.209-0.965,1.809-1.457c0.588-0.483,1.176-0.968,1.756-1.463
	c0.588-0.502,1.169-1.014,1.75-1.528c0.576-0.511,1.15-1.025,1.719-1.549c0.568-0.525,1.131-1.06,1.692-1.598
	c0.563-0.54,1.125-1.081,1.68-1.634c0.55-0.547,1.092-1.104,1.633-1.663c0.549-0.566,1.096-1.135,1.636-1.714
	c0.532-0.57,1.055-1.151,1.579-1.732c0.533-0.592,1.067-1.186,1.59-1.791c0.512-0.59,1.016-1.192,1.519-1.794
	c0.518-0.62,1.037-1.239,1.546-1.871c0.492-0.61,0.976-1.231,1.46-1.853c0.503-0.645,1.005-1.289,1.498-1.946
	c0.473-0.63,0.938-1.272,1.403-1.912c0.486-0.669,0.972-1.337,1.448-2.018c0.455-0.649,0.899-1.308,1.344-1.967
	c0.468-0.693,0.938-1.386,1.397-2.089c0.435-0.668,0.859-1.346,1.285-2.022c0.45-0.716,0.902-1.429,1.343-2.156
	c0.416-0.685,0.82-1.381,1.227-2.076c0.432-0.738,0.865-1.473,1.286-2.22c0.396-0.703,0.782-1.417,1.168-2.128
	c0.412-0.757,0.825-1.511,1.227-2.277c0.378-0.722,0.743-1.454,1.112-2.185c0.391-0.775,0.785-1.547,1.165-2.332
	c0.358-0.74,0.704-1.49,1.054-2.238c0.37-0.792,0.743-1.581,1.101-2.381c0.339-0.757,0.665-1.523,0.994-2.287
	c0.349-0.81,0.702-1.616,1.04-2.436c0.319-0.773,0.624-1.556,0.933-2.336c0.327-0.823,0.657-1.645,0.973-2.476
	c0.301-0.793,0.586-1.596,0.877-2.396c0.303-0.835,0.611-1.667,0.904-2.51c0.281-0.811,0.547-1.633,0.816-2.45
	c0.28-0.845,0.564-1.688,0.833-2.54c0.262-0.833,0.507-1.675,0.759-2.514c0.255-0.852,0.516-1.7,0.76-2.559
	c0.241-0.852,0.466-1.714,0.696-2.571c0.231-0.859,0.468-1.715,0.688-2.58c0.22-0.871,0.423-1.752,0.632-2.629
	c0.207-0.864,0.42-1.724,0.614-2.593c0.201-0.897,0.381-1.801,0.57-2.703c0.181-0.862,0.369-1.721,0.538-2.588
	c0.179-0.917,0.337-1.843,0.504-2.766c0.156-0.864,0.321-1.725,0.465-2.593c0.157-0.943,0.293-1.894,0.436-2.842
	c0.131-0.857,0.27-1.71,0.39-2.573c0.135-0.977,0.248-1.961,0.369-2.943c0.104-0.843,0.218-1.683,0.312-2.53
	c0.112-1.014,0.2-2.034,0.297-3.052c0.078-0.824,0.168-1.645,0.237-2.472c0.089-1.076,0.153-2.161,0.225-3.242
	c0.051-0.776,0.116-1.549,0.159-2.327c0.067-1.221,0.108-2.449,0.153-3.676c0.024-0.646,0.062-1.287,0.079-1.935
	c0.052-1.878,0.078-3.761,0.078-5.65s-0.026-3.772-0.078-5.65c-0.018-0.647-0.055-1.289-0.079-1.935
	c-0.045-1.227-0.086-2.455-0.153-3.676c-0.043-0.778-0.108-1.551-0.159-2.327c-0.072-1.081-0.136-2.166-0.225-3.242
	c-0.068-0.828-0.159-1.648-0.237-2.472c-0.097-1.018-0.185-2.039-0.297-3.052c-0.093-0.847-0.208-1.686-0.312-2.53
	c-0.121-0.982-0.233-1.966-0.369-2.943c-0.119-0.862-0.259-1.715-0.39-2.573c-0.143-0.948-0.279-1.9-0.436-2.842
	c-0.144-0.869-0.309-1.729-0.465-2.593c-0.166-0.923-0.325-1.848-0.504-2.766c-0.17-0.87-0.359-1.732-0.54-2.598
	c-0.188-0.899-0.369-1.8-0.568-2.693c-0.195-0.871-0.41-1.733-0.616-2.6c-0.209-0.877-0.412-1.756-0.632-2.626
	c-0.219-0.867-0.458-1.725-0.69-2.586c-0.23-0.855-0.452-1.714-0.694-2.563c-0.246-0.864-0.508-1.719-0.765-2.577
	c-0.25-0.833-0.492-1.67-0.752-2.496c-0.27-0.856-0.555-1.701-0.836-2.551c-0.27-0.815-0.534-1.634-0.814-2.443
	c-0.293-0.845-0.601-1.678-0.905-2.516c-0.289-0.797-0.574-1.598-0.874-2.388c-0.317-0.836-0.649-1.66-0.977-2.488
	c-0.308-0.776-0.611-1.556-0.929-2.325c-0.341-0.823-0.695-1.636-1.047-2.451c-0.327-0.758-0.65-1.519-0.986-2.27
	c-0.362-0.808-0.738-1.603-1.111-2.401c-0.346-0.741-0.689-1.485-1.045-2.218c-0.383-0.792-0.782-1.572-1.177-2.354
	c-0.365-0.722-0.726-1.447-1.1-2.161c-0.405-0.774-0.823-1.537-1.24-2.302c-0.382-0.703-0.763-1.41-1.155-2.103
	c-0.426-0.757-0.865-1.5-1.302-2.248c-0.401-0.684-0.8-1.372-1.21-2.048c-0.445-0.735-0.903-1.457-1.358-2.181
	c-0.421-0.669-0.84-1.339-1.27-1.998c-0.464-0.713-0.939-1.413-1.414-2.115c-0.439-0.649-0.878-1.3-1.325-1.939
	c-0.483-0.69-0.976-1.368-1.469-2.047c-0.458-0.631-0.915-1.263-1.382-1.884c-0.5-0.666-1.01-1.32-1.519-1.973
	c-0.476-0.611-0.953-1.224-1.438-1.824c-0.518-0.642-1.045-1.272-1.572-1.902c-0.495-0.591-0.99-1.182-1.492-1.762
	c-0.534-0.615-1.076-1.219-1.62-1.823c-0.513-0.571-1.028-1.141-1.55-1.7C327.28,135.662,326.723,135.084,326.165,134.509z
	 M269.562,395.593c0.207-0.315,0.412-0.634,0.616-0.957c0.259-0.409,0.519-0.814,0.775-1.235c0.28-0.461,0.557-0.94,0.834-1.417
	c0.252-0.433,0.505-0.861,0.753-1.306c0.276-0.494,0.548-1.007,0.819-1.516c0.243-0.454,0.488-0.903,0.727-1.369
	c0.274-0.531,0.541-1.082,0.811-1.628c0.232-0.47,0.466-0.932,0.695-1.413c0.274-0.575,0.541-1.17,0.81-1.761
	c0.218-0.479,0.44-0.948,0.655-1.437c0.279-0.633,0.552-1.288,0.827-1.938c0.199-0.47,0.4-0.928,0.597-1.406
	c0.322-0.786,0.636-1.597,0.952-2.405c0.142-0.364,0.287-0.716,0.427-1.084c0.449-1.18,0.891-2.383,1.326-3.608
	c0.155-0.437,0.304-0.891,0.458-1.334c0.28-0.808,0.56-1.612,0.834-2.439c0.177-0.536,0.348-1.089,0.522-1.632
	c0.241-0.753,0.486-1.502,0.722-2.27c0.18-0.585,0.354-1.186,0.532-1.778c0.224-0.749,0.449-1.494,0.668-2.256
	c0.177-0.615,0.347-1.244,0.52-1.868c0.211-0.759,0.423-1.514,0.629-2.285c0.172-0.645,0.339-1.303,0.508-1.956
	c0.2-0.77,0.399-1.538,0.594-2.32c0.166-0.669,0.328-1.35,0.49-2.027c0.188-0.784,0.377-1.566,0.561-2.36
	c0.16-0.694,0.316-1.397,0.472-2.098c0.178-0.796,0.355-1.592,0.528-2.399c0.153-0.714,0.302-1.436,0.451-2.158
	c0.168-0.813,0.335-1.627,0.499-2.45c0.145-0.731,0.286-1.47,0.427-2.209c0.158-0.828,0.316-1.657,0.468-2.494
	c0.138-0.751,0.272-1.508,0.405-2.266c0.148-0.842,0.295-1.687,0.438-2.538c0.13-0.767,0.256-1.539,0.38-2.313
	c0.139-0.859,0.275-1.72,0.409-2.587c0.12-0.779,0.238-1.562,0.354-2.349c0.13-0.876,0.256-1.756,0.38-2.64
	c0.111-0.792,0.22-1.587,0.328-2.387c0.119-0.892,0.236-1.789,0.35-2.689c0.102-0.804,0.203-1.608,0.301-2.417
	c0.11-0.91,0.216-1.826,0.321-2.744c0.093-0.811,0.185-1.622,0.273-2.438c0.1-0.928,0.195-1.862,0.29-2.796
	c0.083-0.818,0.166-1.637,0.245-2.461c0.091-0.948,0.176-1.902,0.26-2.857c0.073-0.82,0.146-1.64,0.215-2.465
	c0.08-0.968,0.155-1.941,0.229-2.914c0.063-0.824,0.128-1.648,0.186-2.477c0.07-0.991,0.134-1.988,0.197-2.984
	c0.053-0.819,0.108-1.637,0.156-2.461c0.061-1.023,0.113-2.052,0.166-3.08c0.042-0.808,0.088-1.613,0.125-2.425
	c0.05-1.056,0.091-2.12,0.134-3.182c0.032-0.792,0.068-1.582,0.095-2.377c0.04-1.115,0.069-2.236,0.1-3.356
	c0.021-0.749,0.047-1.494,0.065-2.245c0.029-1.249,0.048-2.504,0.067-3.758c0.009-0.63,0.025-1.256,0.032-1.887
	c0.022-1.888,0.033-3.783,0.033-5.682c0-1.9-0.011-3.794-0.033-5.682c-0.007-0.631-0.023-1.257-0.032-1.887
	c-0.02-1.255-0.038-2.51-0.067-3.757c-0.018-0.751-0.044-1.496-0.065-2.245c-0.031-1.12-0.062-2.241-0.1-3.356
	c-0.028-0.795-0.064-1.585-0.095-2.377c-0.043-1.062-0.084-2.125-0.134-3.182c-0.038-0.811-0.084-1.616-0.125-2.423
	c-0.053-1.028-0.107-2.058-0.166-3.081c-0.048-0.823-0.103-1.64-0.156-2.46c-0.064-0.997-0.127-1.995-0.197-2.985
	c-0.059-0.83-0.123-1.653-0.186-2.477c-0.074-0.974-0.148-1.947-0.229-2.914c-0.069-0.825-0.142-1.645-0.215-2.466
	c-0.085-0.954-0.169-1.908-0.26-2.856c-0.078-0.824-0.162-1.643-0.245-2.462c-0.095-0.934-0.19-1.868-0.29-2.796
	c-0.088-0.816-0.18-1.627-0.273-2.438c-0.104-0.917-0.21-1.833-0.321-2.744c-0.098-0.81-0.199-1.614-0.301-2.418
	c-0.114-0.899-0.23-1.795-0.35-2.686c-0.108-0.799-0.217-1.596-0.328-2.389c-0.124-0.883-0.251-1.763-0.38-2.637
	c-0.116-0.787-0.234-1.57-0.354-2.351c-0.134-0.866-0.27-1.728-0.409-2.586c-0.125-0.774-0.252-1.546-0.38-2.313
	c-0.143-0.851-0.29-1.696-0.438-2.538c-0.134-0.759-0.267-1.515-0.405-2.266c-0.154-0.837-0.31-1.667-0.468-2.494
	c-0.141-0.739-0.283-1.477-0.427-2.209c-0.163-0.823-0.331-1.637-0.499-2.45c-0.149-0.722-0.298-1.444-0.451-2.158
	c-0.172-0.807-0.35-1.603-0.528-2.398c-0.157-0.702-0.312-1.405-0.472-2.099c-0.184-0.794-0.372-1.577-0.561-2.36
	c-0.163-0.677-0.324-1.357-0.49-2.027c-0.194-0.782-0.394-1.55-0.594-2.32c-0.169-0.653-0.335-1.311-0.508-1.956
	c-0.206-0.771-0.418-1.528-0.629-2.287c-0.173-0.623-0.344-1.252-0.52-1.866c-0.219-0.764-0.445-1.51-0.669-2.26
	c-0.177-0.592-0.35-1.192-0.531-1.776c-0.237-0.77-0.482-1.52-0.724-2.276c-0.173-0.541-0.344-1.092-0.52-1.625
	c-0.275-0.833-0.558-1.644-0.84-2.458c-0.151-0.437-0.298-0.884-0.451-1.316c-0.435-1.226-0.878-2.43-1.327-3.61
	c-0.137-0.359-0.279-0.702-0.417-1.057c-0.319-0.818-0.636-1.637-0.962-2.433c-0.193-0.471-0.392-0.922-0.587-1.384
	c-0.278-0.658-0.554-1.322-0.837-1.962c-0.212-0.482-0.43-0.944-0.646-1.415c-0.273-0.598-0.543-1.201-0.82-1.783
	c-0.227-0.476-0.459-0.933-0.688-1.399c-0.272-0.551-0.542-1.107-0.818-1.643c-0.238-0.463-0.481-0.906-0.722-1.357
	c-0.274-0.513-0.548-1.03-0.825-1.529c-0.247-0.442-0.497-0.866-0.747-1.296c-0.279-0.48-0.557-0.962-0.84-1.427
	c-0.254-0.418-0.512-0.82-0.769-1.226c-0.206-0.325-0.413-0.647-0.621-0.964h-27.123c-0.207,0.315-0.412,0.634-0.616,0.957
	c-0.259,0.409-0.519,0.814-0.775,1.235c-0.28,0.461-0.557,0.94-0.834,1.417c-0.252,0.433-0.505,0.861-0.753,1.306
	c-0.276,0.495-0.549,1.009-0.821,1.519c-0.242,0.453-0.487,0.9-0.726,1.366c-0.275,0.533-0.543,1.087-0.814,1.634
	c-0.231,0.468-0.464,0.928-0.692,1.406c-0.275,0.577-0.543,1.175-0.814,1.769c-0.217,0.476-0.437,0.942-0.652,1.429
	c-0.281,0.637-0.556,1.297-0.832,1.951c-0.196,0.466-0.397,0.921-0.591,1.395c-0.326,0.794-0.644,1.614-0.962,2.431
	c-0.138,0.355-0.28,0.698-0.417,1.057c-0.449,1.181-0.892,2.384-1.327,3.611c-0.15,0.424-0.296,0.865-0.444,1.295
	c-0.284,0.82-0.569,1.638-0.847,2.478c-0.176,0.53-0.344,1.077-0.516,1.614c-0.243,0.759-0.489,1.513-0.727,2.287
	c-0.179,0.58-0.351,1.177-0.527,1.765c-0.226,0.754-0.452,1.505-0.673,2.273c-0.174,0.61-0.345,1.234-0.516,1.853
	c-0.212,0.764-0.426,1.524-0.633,2.301c-0.171,0.642-0.337,1.296-0.506,1.946c-0.201,0.773-0.401,1.545-0.597,2.33
	c-0.165,0.666-0.326,1.344-0.488,2.018c-0.189,0.787-0.378,1.573-0.563,2.37c-0.16,0.691-0.315,1.391-0.47,2.09
	c-0.179,0.799-0.357,1.6-0.531,2.41c-0.153,0.711-0.3,1.428-0.448,2.146c-0.169,0.817-0.337,1.635-0.502,2.462
	c-0.144,0.728-0.285,1.463-0.425,2.198c-0.159,0.832-0.317,1.665-0.47,2.506c-0.137,0.748-0.271,1.502-0.403,2.256
	c-0.148,0.845-0.296,1.694-0.44,2.548c-0.129,0.765-0.255,1.533-0.379,2.305c-0.139,0.861-0.276,1.726-0.411,2.595
	c-0.12,0.776-0.237,1.557-0.353,2.341c-0.13,0.879-0.257,1.762-0.381,2.648c-0.111,0.79-0.22,1.583-0.327,2.379
	c-0.12,0.894-0.236,1.793-0.351,2.695c-0.101,0.8-0.203,1.603-0.3,2.41c-0.111,0.913-0.216,1.832-0.322,2.752
	c-0.092,0.808-0.184,1.615-0.272,2.428c-0.1,0.931-0.196,1.868-0.292,2.806c-0.083,0.816-0.165,1.631-0.243,2.451
	c-0.091,0.951-0.176,1.908-0.261,2.865c-0.072,0.818-0.146,1.635-0.214,2.458c-0.08,0.97-0.155,1.946-0.23,2.92
	c-0.063,0.823-0.127,1.645-0.186,2.471c-0.07,0.993-0.134,1.993-0.197,2.99c-0.052,0.817-0.108,1.633-0.156,2.454
	c-0.061,1.024-0.113,2.055-0.166,3.086c-0.042,0.807-0.087,1.61-0.125,2.42c-0.05,1.057-0.091,2.122-0.134,3.186
	c-0.031,0.791-0.068,1.579-0.095,2.373c-0.04,1.116-0.069,2.238-0.1,3.359c-0.021,0.748-0.047,1.493-0.065,2.243
	c-0.029,1.249-0.048,2.505-0.067,3.76c-0.01,0.629-0.025,1.255-0.032,1.885c-0.022,1.888-0.033,3.783-0.033,5.682
	c0,1.9,0.011,3.794,0.033,5.682c0.007,0.631,0.023,1.257,0.032,1.887c0.02,1.255,0.038,2.51,0.067,3.758
	c0.018,0.751,0.044,1.496,0.065,2.245c0.031,1.12,0.062,2.241,0.1,3.356c0.028,0.795,0.064,1.585,0.095,2.377
	c0.043,1.062,0.084,2.125,0.134,3.182c0.038,0.812,0.084,1.616,0.125,2.425c0.053,1.028,0.107,2.057,0.166,3.08
	c0.048,0.823,0.103,1.64,0.156,2.461c0.064,0.997,0.127,1.994,0.197,2.984c0.059,0.83,0.123,1.653,0.186,2.477
	c0.074,0.974,0.148,1.948,0.229,2.914c0.069,0.825,0.142,1.645,0.215,2.465c0.085,0.954,0.169,1.909,0.26,2.857
	c0.078,0.823,0.162,1.642,0.244,2.461c0.095,0.935,0.19,1.868,0.29,2.796c0.088,0.816,0.18,1.627,0.273,2.438
	c0.104,0.917,0.211,1.834,0.321,2.744c0.098,0.809,0.199,1.613,0.301,2.417c0.114,0.9,0.231,1.796,0.35,2.689
	c0.108,0.798,0.216,1.593,0.328,2.387c0.124,0.884,0.251,1.764,0.38,2.64c0.116,0.786,0.234,1.569,0.354,2.349
	c0.134,0.867,0.271,1.728,0.409,2.587c0.125,0.774,0.252,1.545,0.38,2.313c0.143,0.851,0.29,1.696,0.438,2.538
	c0.134,0.759,0.267,1.515,0.405,2.266c0.154,0.837,0.31,1.667,0.468,2.494c0.141,0.739,0.283,1.477,0.427,2.209
	c0.163,0.822,0.331,1.637,0.499,2.45c0.149,0.721,0.298,1.444,0.451,2.158c0.172,0.807,0.35,1.603,0.528,2.399
	c0.157,0.701,0.312,1.405,0.472,2.098c0.184,0.794,0.372,1.577,0.56,2.36c0.163,0.677,0.324,1.357,0.49,2.027
	c0.194,0.782,0.394,1.55,0.593,2.32c0.169,0.653,0.335,1.311,0.508,1.956c0.206,0.771,0.418,1.527,0.629,2.285
	c0.173,0.624,0.344,1.253,0.52,1.868c0.218,0.762,0.444,1.507,0.668,2.256c0.177,0.594,0.351,1.194,0.531,1.778
	c0.236,0.768,0.48,1.516,0.722,2.27c0.175,0.543,0.345,1.096,0.522,1.632c0.273,0.827,0.554,1.631,0.834,2.439
	c0.154,0.443,0.302,0.897,0.458,1.334c0.435,1.226,0.877,2.428,1.326,3.608c0.14,0.369,0.286,0.72,0.427,1.084
	c0.316,0.809,0.63,1.62,0.952,2.405c0.196,0.479,0.398,0.937,0.597,1.406c0.275,0.65,0.548,1.305,0.827,1.938
	c0.216,0.489,0.437,0.958,0.655,1.437c0.27,0.59,0.537,1.186,0.81,1.761c0.229,0.481,0.463,0.943,0.695,1.413
	c0.27,0.546,0.537,1.097,0.811,1.628c0.24,0.466,0.485,0.914,0.727,1.369c0.273,0.509,0.543,1.022,0.819,1.516
	c0.249,0.445,0.502,0.874,0.753,1.306c0.277,0.476,0.554,0.955,0.834,1.417c0.256,0.421,0.516,0.826,0.775,1.235
	c0.205,0.323,0.41,0.643,0.616,0.957h27.132V395.593z M208.228,395.593h16.087c-0.327-0.628-0.648-1.279-0.97-1.924
	c-0.136-0.272-0.274-0.535-0.408-0.81c-0.535-1.092-1.063-2.206-1.582-3.345c-0.049-0.108-0.096-0.22-0.145-0.328
	c-0.464-1.025-0.923-2.068-1.375-3.13c-0.152-0.356-0.3-0.723-0.45-1.084c-0.346-0.83-0.69-1.667-1.028-2.518
	c-0.17-0.429-0.339-0.865-0.507-1.3c-0.313-0.81-0.625-1.626-0.932-2.454c-0.17-0.459-0.34-0.921-0.507-1.384
	c-0.304-0.84-0.604-1.69-0.901-2.547c-0.158-0.456-0.316-0.91-0.472-1.37c-0.314-0.931-0.624-1.876-0.931-2.826
	c-0.129-0.398-0.259-0.791-0.386-1.192c-0.396-1.254-0.786-2.523-1.168-3.811c-0.031-0.104-0.064-0.207-0.095-0.311
	c-0.422-1.427-0.834-2.876-1.238-4.342c-0.079-0.289-0.157-0.587-0.235-0.879c-0.313-1.151-0.622-2.311-0.924-3.486
	c-0.121-0.472-0.239-0.951-0.358-1.427c-0.256-1.017-0.508-2.039-0.755-3.072c-0.126-0.529-0.251-1.062-0.375-1.596
	c-0.235-1.006-0.466-2.02-0.693-3.042c-0.121-0.546-0.242-1.094-0.362-1.645c-0.228-1.051-0.449-2.112-0.67-3.177
	c-0.108-0.52-0.215-1.039-0.321-1.563c-0.241-1.205-0.476-2.421-0.707-3.644c-0.074-0.391-0.15-0.777-0.224-1.17
	c-0.605-3.264-1.173-6.592-1.703-9.978c-0.075-0.482-0.146-0.97-0.219-1.453c-0.184-1.203-0.364-2.408-0.537-3.625
	c-0.087-0.605-0.169-1.214-0.253-1.822c-0.154-1.117-0.305-2.237-0.451-3.366c-0.084-0.649-0.166-1.299-0.248-1.952
	c-0.139-1.116-0.273-2.238-0.404-3.365c-0.075-0.651-0.152-1.301-0.225-1.955c-0.133-1.187-0.258-2.382-0.381-3.581
	c-0.061-0.59-0.124-1.178-0.183-1.77c-0.143-1.45-0.278-2.911-0.409-4.377c-0.03-0.347-0.065-0.691-0.095-1.039
	c-0.158-1.823-0.305-3.659-0.442-5.504c-0.032-0.43-0.06-0.865-0.09-1.297c-0.1-1.406-0.197-2.816-0.286-4.234
	c-0.041-0.658-0.077-1.321-0.116-1.981c-0.07-1.206-0.138-2.415-0.2-3.629c-0.037-0.727-0.07-1.457-0.105-2.186
	c-0.054-1.167-0.103-2.337-0.149-3.512c-0.029-0.746-0.057-1.493-0.083-2.242c-0.041-1.188-0.076-2.379-0.109-3.574
	c-0.02-0.729-0.041-1.457-0.057-2.188c-0.029-1.294-0.051-2.593-0.071-3.894c-0.009-0.628-0.023-1.254-0.029-1.884
	c-0.022-1.929-0.034-3.864-0.034-5.807c0-1.943,0.014-3.879,0.034-5.807c0.007-0.63,0.02-1.256,0.029-1.884
	c0.02-1.301,0.041-2.6,0.071-3.893c0.017-0.731,0.038-1.46,0.057-2.189c0.032-1.194,0.068-2.387,0.109-3.574
	c0.026-0.749,0.053-1.496,0.083-2.242c0.046-1.174,0.096-2.345,0.149-3.512c0.033-0.729,0.067-1.459,0.105-2.186
	c0.062-1.214,0.13-2.422,0.2-3.629c0.039-0.66,0.074-1.323,0.116-1.981c0.089-1.419,0.186-2.83,0.286-4.236
	c0.031-0.43,0.057-0.865,0.09-1.295c0.137-1.845,0.284-3.681,0.442-5.504c0.03-0.348,0.065-0.692,0.095-1.039
	c0.131-1.466,0.265-2.927,0.409-4.377c0.059-0.592,0.122-1.18,0.183-1.769c0.123-1.199,0.25-2.395,0.381-3.583
	c0.073-0.653,0.148-1.303,0.224-1.953c0.131-1.127,0.265-2.25,0.404-3.367c0.082-0.652,0.163-1.302,0.247-1.95
	c0.146-1.128,0.297-2.25,0.451-3.367c0.084-0.608,0.167-1.217,0.253-1.821c0.173-1.217,0.354-2.424,0.538-3.627
	c0.073-0.483,0.144-0.97,0.219-1.45c0.53-3.385,1.097-6.714,1.703-9.979c0.073-0.393,0.149-0.778,0.224-1.17
	c0.231-1.223,0.466-2.44,0.707-3.644c0.106-0.525,0.214-1.042,0.321-1.563c0.219-1.066,0.442-2.126,0.67-3.178
	c0.119-0.551,0.24-1.098,0.362-1.645c0.227-1.022,0.459-2.035,0.693-3.042c0.124-0.533,0.249-1.066,0.375-1.596
	c0.248-1.033,0.501-2.056,0.755-3.073c0.119-0.475,0.237-0.953,0.358-1.424c0.303-1.177,0.612-2.338,0.926-3.492
	c0.078-0.289,0.155-0.584,0.234-0.871c0.404-1.467,0.816-2.915,1.238-4.343c0.031-0.104,0.064-0.207,0.095-0.311
	c0.382-1.287,0.772-2.558,1.168-3.812c0.126-0.4,0.256-0.791,0.385-1.188c0.307-0.953,0.616-1.899,0.932-2.832
	c0.156-0.46,0.313-0.912,0.47-1.367c0.298-0.859,0.598-1.709,0.902-2.55c0.168-0.464,0.337-0.926,0.507-1.383
	c0.307-0.828,0.619-1.645,0.932-2.454c0.168-0.435,0.336-0.871,0.507-1.3c0.339-0.852,0.682-1.687,1.028-2.518
	c0.15-0.36,0.298-0.727,0.45-1.084c0.451-1.062,0.91-2.105,1.375-3.13c0.049-0.108,0.096-0.22,0.145-0.328
	c0.519-1.139,1.047-2.253,1.582-3.345c0.135-0.275,0.273-0.538,0.408-0.81c0.322-0.646,0.643-1.296,0.97-1.924h-16.087
	c-0.362,0.223-0.725,0.442-1.085,0.669c-0.636,0.401-1.271,0.808-1.9,1.224c-0.631,0.417-1.257,0.843-1.881,1.274
	c-0.626,0.433-1.249,0.868-1.866,1.316c-0.613,0.443-1.22,0.895-1.826,1.352c-0.613,0.462-1.225,0.928-1.83,1.404
	c-0.595,0.468-1.184,0.946-1.771,1.426c-0.601,0.492-1.2,0.987-1.793,1.493c-0.576,0.491-1.145,0.993-1.714,1.496
	c-0.588,0.521-1.173,1.045-1.753,1.58c-0.558,0.515-1.111,1.041-1.66,1.568c-0.573,0.549-1.144,1.099-1.708,1.661
	c-0.54,0.538-1.073,1.087-1.606,1.636c-0.558,0.577-1.115,1.154-1.665,1.743c-0.521,0.559-1.035,1.13-1.55,1.7
	c-0.543,0.603-1.086,1.208-1.62,1.823c-0.503,0.58-0.998,1.171-1.493,1.762c-0.528,0.63-1.054,1.259-1.572,1.902
	c-0.485,0.601-0.961,1.213-1.438,1.824c-0.51,0.654-1.02,1.307-1.519,1.973c-0.467,0.621-0.924,1.253-1.382,1.884
	c-0.493,0.678-0.986,1.356-1.469,2.047c-0.447,0.639-0.886,1.29-1.325,1.939c-0.474,0.701-0.95,1.402-1.414,2.115
	c-0.429,0.659-0.848,1.329-1.27,1.998c-0.456,0.724-0.913,1.446-1.358,2.181c-0.41,0.676-0.809,1.364-1.21,2.048
	c-0.437,0.746-0.876,1.491-1.302,2.248c-0.392,0.695-0.772,1.4-1.155,2.103c-0.416,0.765-0.835,1.528-1.24,2.302
	c-0.374,0.714-0.736,1.439-1.1,2.161c-0.395,0.783-0.792,1.562-1.177,2.354c-0.355,0.734-0.698,1.477-1.045,2.218
	c-0.373,0.798-0.749,1.593-1.111,2.401c-0.336,0.75-0.659,1.512-0.986,2.27c-0.351,0.815-0.706,1.627-1.047,2.451
	c-0.318,0.769-0.621,1.549-0.929,2.325c-0.328,0.828-0.66,1.652-0.977,2.488c-0.3,0.79-0.584,1.59-0.874,2.388
	c-0.304,0.837-0.612,1.671-0.905,2.516c-0.28,0.809-0.544,1.628-0.814,2.443c-0.281,0.848-0.566,1.694-0.836,2.551
	c-0.26,0.827-0.504,1.662-0.752,2.496c-0.257,0.858-0.519,1.712-0.765,2.577c-0.24,0.848-0.464,1.707-0.694,2.563
	c-0.231,0.861-0.469,1.719-0.69,2.586c-0.22,0.87-0.423,1.75-0.632,2.626c-0.207,0.866-0.421,1.727-0.615,2.6
	c-0.2,0.892-0.38,1.794-0.568,2.693c-0.181,0.865-0.37,1.726-0.54,2.598c-0.179,0.917-0.338,1.843-0.504,2.766
	c-0.156,0.864-0.321,1.725-0.465,2.593c-0.157,0.942-0.293,1.894-0.436,2.842c-0.13,0.857-0.27,1.71-0.389,2.573
	c-0.135,0.977-0.248,1.961-0.369,2.943c-0.103,0.843-0.218,1.682-0.312,2.53c-0.112,1.012-0.2,2.033-0.297,3.052
	c-0.078,0.824-0.168,1.645-0.237,2.472c-0.089,1.076-0.153,2.161-0.225,3.242c-0.051,0.776-0.116,1.549-0.159,2.327
	c-0.067,1.221-0.108,2.449-0.153,3.676c-0.024,0.646-0.062,1.287-0.079,1.935c-0.052,1.878-0.078,3.761-0.078,5.65
	s0.026,3.772,0.078,5.65c0.018,0.647,0.055,1.289,0.079,1.935c0.045,1.227,0.086,2.455,0.153,3.676
	c0.043,0.778,0.108,1.551,0.159,2.327c0.072,1.081,0.136,2.165,0.225,3.242c0.068,0.828,0.159,1.648,0.237,2.472
	c0.097,1.018,0.185,2.039,0.297,3.052c0.093,0.847,0.208,1.686,0.312,2.53c0.121,0.982,0.233,1.966,0.369,2.943
	c0.119,0.862,0.259,1.715,0.389,2.573c0.144,0.948,0.279,1.9,0.436,2.842c0.145,0.869,0.309,1.729,0.465,2.593
	c0.166,0.923,0.325,1.848,0.504,2.766c0.17,0.871,0.359,1.733,0.54,2.6c0.188,0.898,0.368,1.798,0.567,2.69
	c0.195,0.874,0.411,1.737,0.618,2.604c0.209,0.875,0.411,1.753,0.631,2.622c0.219,0.865,0.457,1.721,0.688,2.58
	c0.23,0.858,0.455,1.72,0.696,2.571c0.243,0.859,0.505,1.706,0.76,2.559c0.251,0.839,0.496,1.681,0.758,2.514
	c0.269,0.853,0.553,1.695,0.833,2.54c0.271,0.818,0.536,1.639,0.816,2.45c0.292,0.843,0.6,1.675,0.903,2.51
	c0.29,0.8,0.576,1.603,0.877,2.396c0.316,0.832,0.646,1.652,0.973,2.476c0.309,0.781,0.614,1.564,0.933,2.336
	c0.338,0.818,0.691,1.626,1.04,2.436c0.329,0.764,0.654,1.531,0.994,2.287c0.359,0.8,0.731,1.589,1.101,2.381
	c0.349,0.748,0.695,1.498,1.054,2.238c0.38,0.785,0.774,1.557,1.165,2.332c0.369,0.73,0.735,1.463,1.112,2.185
	c0.401,0.766,0.815,1.52,1.227,2.277c0.388,0.712,0.772,1.426,1.168,2.128c0.421,0.747,0.855,1.483,1.286,2.22
	c0.406,0.695,0.811,1.391,1.227,2.076c0.44,0.726,0.892,1.44,1.343,2.156c0.426,0.677,0.851,1.355,1.285,2.022
	c0.459,0.704,0.928,1.396,1.397,2.089c0.445,0.658,0.889,1.319,1.344,1.968c0.476,0.68,0.962,1.349,1.448,2.018
	c0.465,0.641,0.929,1.282,1.403,1.912c0.493,0.656,0.996,1.301,1.498,1.946c0.484,0.621,0.968,1.242,1.46,1.853
	c0.51,0.632,1.029,1.253,1.549,1.873c0.503,0.601,1.006,1.201,1.517,1.79c0.526,0.605,1.058,1.2,1.592,1.793
	c0.523,0.582,1.047,1.162,1.579,1.731c0.54,0.579,1.088,1.147,1.636,1.714c0.541,0.559,1.084,1.117,1.633,1.663
	c0.555,0.553,1.117,1.094,1.68,1.634c0.561,0.537,1.122,1.072,1.692,1.598c0.568,0.525,1.143,1.038,1.719,1.549
	c0.58,0.514,1.162,1.026,1.75,1.528c0.581,0.495,1.168,0.981,1.756,1.463c0.6,0.491,1.202,0.979,1.809,1.457
	c0.592,0.466,1.191,0.922,1.791,1.375c0.619,0.466,1.239,0.929,1.866,1.381c0.604,0.437,1.214,0.863,1.825,1.286
	c0.637,0.441,1.278,0.877,1.924,1.303c0.615,0.406,1.235,0.804,1.857,1.195C207.487,395.142,207.858,395.365,208.228,395.593z
	 M178.993,395.593h3.094c-0.113-0.1-0.22-0.206-0.333-0.306c-0.386-0.346-0.764-0.704-1.146-1.055
	c-0.811-0.744-1.616-1.494-2.413-2.26c-0.438-0.421-0.869-0.851-1.303-1.279c-0.735-0.726-1.464-1.462-2.186-2.207
	c-0.435-0.449-0.867-0.9-1.297-1.355c-0.726-0.77-1.444-1.554-2.156-2.344c-0.395-0.438-0.793-0.871-1.183-1.316
	c-0.808-0.917-1.603-1.852-2.392-2.794c-0.275-0.328-0.556-0.648-0.829-0.979c-1.052-1.278-2.088-2.576-3.105-3.895
	c-0.23-0.298-0.45-0.605-0.678-0.905c-0.784-1.032-1.56-2.072-2.323-3.128c-0.349-0.484-0.691-0.977-1.035-1.466
	c-0.631-0.895-1.257-1.796-1.873-2.708c-0.365-0.54-0.724-1.085-1.082-1.63c-0.588-0.894-1.169-1.797-1.744-2.707
	c-0.347-0.551-0.695-1.101-1.037-1.657c-0.595-0.966-1.177-1.945-1.753-2.928c-0.296-0.504-0.597-1.003-0.888-1.511
	c-0.741-1.291-1.467-2.598-2.179-3.915c-0.111-0.206-0.228-0.406-0.339-0.612c-0.817-1.525-1.611-3.069-2.39-4.628
	c-0.237-0.476-0.465-0.96-0.699-1.44c-0.535-1.096-1.065-2.195-1.581-3.307c-0.277-0.597-0.546-1.2-0.817-1.8
	c-0.46-1.019-0.913-2.043-1.356-3.075c-0.272-0.632-0.54-1.265-0.806-1.902c-0.434-1.04-0.857-2.087-1.274-3.138
	c-0.246-0.62-0.493-1.237-0.732-1.861c-0.449-1.168-0.883-2.347-1.312-3.529c-0.184-0.508-0.375-1.01-0.555-1.52
	c-0.598-1.692-1.177-3.394-1.731-5.112c-0.085-0.262-0.162-0.53-0.246-0.793c-0.466-1.462-0.918-2.932-1.353-4.413
	c-0.176-0.599-0.341-1.203-0.511-1.803c-0.329-1.162-0.653-2.326-0.963-3.498c-0.179-0.677-0.352-1.356-0.525-2.036
	c-0.285-1.123-0.561-2.251-0.829-3.382c-0.163-0.69-0.324-1.379-0.48-2.072c-0.264-1.173-0.515-2.353-0.76-3.536
	c-0.134-0.644-0.272-1.285-0.399-1.932c-0.281-1.424-0.543-2.856-0.796-4.291c-0.071-0.403-0.15-0.802-0.219-1.207
	c-0.312-1.838-0.601-3.685-0.866-5.541c-0.071-0.498-0.131-1.001-0.199-1.5c-0.186-1.367-0.365-2.736-0.525-4.112
	c-0.079-0.682-0.149-1.368-0.223-2.053c-0.13-1.21-0.252-2.422-0.36-3.639c-0.066-0.73-0.126-1.461-0.184-2.193
	c-0.095-1.202-0.18-2.406-0.256-3.613c-0.045-0.719-0.092-1.438-0.13-2.16c-0.069-1.299-0.12-2.603-0.166-3.908
	c-0.022-0.62-0.05-1.238-0.067-1.86c-0.05-1.922-0.081-3.847-0.081-5.779c0-1.932,0.031-3.858,0.081-5.779
	c0.017-0.622,0.045-1.239,0.067-1.86c0.045-1.305,0.097-2.608,0.166-3.908c0.038-0.721,0.085-1.44,0.13-2.16
	c0.076-1.207,0.16-2.412,0.256-3.613c0.059-0.732,0.119-1.463,0.184-2.193c0.109-1.216,0.231-2.428,0.36-3.639
	c0.073-0.684,0.142-1.37,0.223-2.053c0.16-1.376,0.339-2.746,0.525-4.113c0.068-0.499,0.127-1.001,0.199-1.499
	c0.265-1.856,0.554-3.704,0.866-5.542c0.069-0.403,0.147-0.801,0.218-1.204c0.253-1.437,0.515-2.87,0.796-4.294
	c0.127-0.646,0.265-1.286,0.398-1.93c0.246-1.184,0.496-2.364,0.761-3.538c0.156-0.692,0.317-1.381,0.48-2.07
	c0.267-1.133,0.544-2.261,0.83-3.385c0.172-0.679,0.345-1.358,0.523-2.033c0.31-1.173,0.635-2.34,0.964-3.502
	c0.17-0.6,0.335-1.203,0.51-1.8c0.436-1.483,0.889-2.955,1.355-4.419c0.084-0.261,0.16-0.527,0.244-0.787
	c0.555-1.719,1.135-3.423,1.732-5.115c0.179-0.506,0.368-1.003,0.551-1.506c0.43-1.187,0.866-2.371,1.318-3.544
	c0.238-0.62,0.485-1.234,0.729-1.85c0.419-1.056,0.843-2.107,1.279-3.15c0.263-0.632,0.53-1.261,0.799-1.888
	c0.446-1.038,0.903-2.068,1.365-3.094c0.269-0.596,0.535-1.192,0.81-1.784c0.519-1.119,1.052-2.227,1.591-3.33
	c0.231-0.472,0.455-0.949,0.689-1.418c0.779-1.562,1.576-3.109,2.394-4.636c0.102-0.19,0.21-0.376,0.312-0.566
	c0.721-1.334,1.456-2.655,2.206-3.962c0.287-0.501,0.584-0.993,0.876-1.489c0.582-0.991,1.168-1.976,1.767-2.95
	c0.339-0.551,0.682-1.096,1.027-1.643c0.578-0.916,1.162-1.824,1.754-2.725c0.355-0.54,0.712-1.079,1.072-1.613
	c0.621-0.92,1.251-1.826,1.887-2.729c0.341-0.483,0.677-0.97,1.023-1.448c0.77-1.067,1.554-2.117,2.346-3.16
	c0.22-0.289,0.434-0.587,0.656-0.875c1.02-1.323,2.057-2.625,3.113-3.905c0.263-0.321,0.536-0.63,0.801-0.948
	c0.798-0.953,1.602-1.898,2.419-2.825c0.386-0.438,0.778-0.866,1.168-1.299c0.718-0.796,1.441-1.585,2.172-2.361
	c0.425-0.451,0.854-0.898,1.283-1.342c0.727-0.751,1.462-1.491,2.202-2.224c0.428-0.423,0.856-0.847,1.288-1.264
	c0.801-0.772,1.613-1.528,2.43-2.277c0.377-0.346,0.75-0.699,1.131-1.041c0.113-0.101,0.224-0.209,0.336-0.31h-3.093
	c-64.589,24.677-104.63,78.015-104.63,139.591C74.364,317.578,114.402,370.915,178.993,395.593z M326.164,411.266H185.836v12.239
	h140.33v-12.239H326.164z M437.636,256.002c0-61.577-40.04-114.915-104.63-139.591h-3.093c0.114,0.101,0.224,0.208,0.336,0.31
	c0.38,0.342,0.752,0.694,1.131,1.041c0.816,0.749,1.629,1.505,2.43,2.277c0.433,0.417,0.86,0.841,1.288,1.264
	c0.74,0.732,1.474,1.472,2.202,2.224c0.429,0.444,0.859,0.89,1.284,1.342c0.731,0.775,1.453,1.563,2.17,2.358
	c0.391,0.434,0.785,0.863,1.171,1.303c0.816,0.927,1.62,1.871,2.417,2.823c0.266,0.318,0.538,0.628,0.802,0.949
	c1.055,1.281,2.093,2.582,3.113,3.905c0.222,0.287,0.436,0.585,0.656,0.875c0.792,1.042,1.576,2.093,2.346,3.16
	c0.345,0.478,0.681,0.963,1.021,1.446c0.637,0.904,1.268,1.813,1.89,2.733c0.36,0.534,0.716,1.072,1.07,1.611
	c0.592,0.901,1.178,1.81,1.755,2.726c0.344,0.545,0.689,1.091,1.027,1.643c0.599,0.974,1.186,1.959,1.767,2.95
	c0.292,0.496,0.588,0.988,0.876,1.489c0.75,1.307,1.485,2.628,2.206,3.962c0.102,0.19,0.21,0.375,0.312,0.566
	c0.818,1.528,1.614,3.075,2.394,4.636c0.234,0.469,0.458,0.947,0.689,1.418c0.539,1.103,1.072,2.211,1.591,3.33
	c0.274,0.591,0.541,1.188,0.81,1.784c0.463,1.025,0.918,2.055,1.365,3.094c0.27,0.627,0.536,1.256,0.799,1.888
	c0.436,1.044,0.86,2.095,1.279,3.15c0.245,0.615,0.49,1.23,0.729,1.85c0.451,1.173,0.887,2.356,1.318,3.544
	c0.183,0.503,0.372,1.001,0.551,1.506c0.598,1.693,1.178,3.396,1.732,5.115c0.085,0.26,0.161,0.526,0.243,0.787
	c0.467,1.465,0.921,2.936,1.355,4.419c0.176,0.598,0.34,1.2,0.51,1.8c0.33,1.163,0.654,2.329,0.964,3.502
	c0.179,0.676,0.351,1.355,0.523,2.034c0.284,1.122,0.561,2.25,0.828,3.381c0.163,0.691,0.325,1.382,0.481,2.077
	c0.264,1.174,0.515,2.354,0.761,3.537c0.133,0.642,0.271,1.281,0.397,1.926c0.282,1.427,0.544,2.863,0.798,4.302
	c0.071,0.4,0.149,0.797,0.217,1.199c0.312,1.838,0.601,3.686,0.867,5.542c0.071,0.498,0.131,1,0.199,1.499
	c0.186,1.367,0.365,2.737,0.525,4.113c0.079,0.682,0.149,1.368,0.223,2.053c0.13,1.21,0.251,2.422,0.361,3.639
	c0.066,0.73,0.126,1.461,0.185,2.193c0.095,1.202,0.18,2.406,0.255,3.613c0.045,0.719,0.092,1.438,0.13,2.16
	c0.069,1.299,0.12,2.603,0.165,3.908c0.022,0.62,0.051,1.238,0.067,1.86c0.05,1.922,0.081,3.847,0.081,5.779
	c0,1.932-0.031,3.858-0.081,5.779c-0.017,0.622-0.045,1.239-0.067,1.86c-0.045,1.305-0.097,2.608-0.165,3.908
	c-0.039,0.721-0.085,1.44-0.13,2.16c-0.076,1.207-0.16,2.412-0.255,3.613c-0.059,0.732-0.119,1.463-0.185,2.193
	c-0.109,1.216-0.231,2.428-0.361,3.639c-0.073,0.684-0.142,1.37-0.223,2.053c-0.16,1.376-0.339,2.745-0.525,4.112
	c-0.068,0.499-0.127,1.002-0.199,1.5c-0.265,1.856-0.554,3.703-0.866,5.541c-0.069,0.402-0.147,0.8-0.218,1.203
	c-0.253,1.438-0.515,2.872-0.797,4.299c-0.128,0.645-0.265,1.285-0.398,1.928c-0.245,1.182-0.495,2.361-0.76,3.535
	c-0.157,0.695-0.319,1.387-0.482,2.079c-0.266,1.131-0.542,2.256-0.828,3.378c-0.172,0.68-0.345,1.36-0.525,2.038
	c-0.31,1.172-0.634,2.336-0.963,3.498c-0.17,0.601-0.335,1.205-0.511,1.803c-0.435,1.481-0.887,2.95-1.353,4.413
	c-0.084,0.263-0.161,0.531-0.246,0.793c-0.555,1.718-1.134,3.42-1.731,5.112c-0.18,0.51-0.371,1.013-0.555,1.52
	c-0.428,1.182-0.863,2.36-1.312,3.529c-0.239,0.624-0.487,1.241-0.732,1.861c-0.417,1.051-0.84,2.098-1.274,3.138
	c-0.265,0.636-0.534,1.27-0.806,1.902c-0.443,1.031-0.897,2.055-1.356,3.075c-0.272,0.601-0.54,1.204-0.817,1.8
	c-0.515,1.112-1.045,2.211-1.58,3.307c-0.234,0.48-0.461,0.963-0.699,1.44c-0.777,1.559-1.573,3.103-2.39,4.628
	c-0.111,0.206-0.227,0.406-0.339,0.612c-0.713,1.318-1.438,2.624-2.179,3.915c-0.292,0.508-0.592,1.007-0.888,1.511
	c-0.577,0.983-1.16,1.961-1.753,2.928c-0.342,0.556-0.689,1.107-1.037,1.657c-0.575,0.91-1.155,1.814-1.744,2.708
	c-0.358,0.544-0.718,1.088-1.081,1.627c-0.616,0.913-1.243,1.816-1.876,2.713c-0.344,0.488-0.684,0.98-1.033,1.464
	c-0.762,1.056-1.539,2.097-2.323,3.128c-0.228,0.3-0.449,0.607-0.678,0.905c-1.018,1.32-2.053,2.618-3.105,3.895
	c-0.273,0.331-0.555,0.652-0.83,0.98c-0.789,0.94-1.582,1.875-2.39,2.791c-0.392,0.445-0.79,0.88-1.186,1.32
	c-0.712,0.789-1.428,1.57-2.154,2.341c-0.429,0.456-0.863,0.907-1.297,1.355c-0.722,0.746-1.45,1.481-2.186,2.207
	c-0.433,0.428-0.865,0.857-1.303,1.279c-0.795,0.766-1.602,1.516-2.413,2.26c-0.382,0.351-0.761,0.709-1.146,1.055
	c-0.112,0.1-0.22,0.207-0.333,0.306h3.094C397.598,370.915,437.636,317.578,437.636,256.002z M43.887,119.284H29.259v15.673h14.628
	V119.284z M36.573,379.065h14.628v-15.673H36.573V379.065z M118.63,457.143h14.628V441.47H118.63V457.143z M402.372,425.222h14.628
	v-15.673h-14.628V425.222z M375.732,53.816h-14.628v15.673h14.628V53.816z M452.787,93.161h-14.628v15.673h14.628V93.161z
	 M452.787,443.56h14.628v-15.673h-14.628V443.56z M467.416,328.622h14.628v-15.673h-14.628V328.622z"/>
<g>
</g>
<g>
</g>
<g>
</g>
<g>
</g>
<g>
</g>
<g>
</g>
<g>
</g>
<g>
</g>
<g>
</g>
<g>
</g>
<g>
</g>
<g>
</g>
<g>
</g>
<g>
</g>
<g>
</g>
</svg>
