<?xml version="1.0" encoding="iso-8859-1"?>
<!-- Generator: Adobe Illustrator 19.0.0, SVG Export Plug-In . SVG Version: 6.00 Build 0)  -->
<svg version="1.1" id="Layer_1" xmlns="http://www.w3.org/2000/svg" xmlns:xlink="http://www.w3.org/1999/xlink" x="0px" y="0px"
	 viewBox="0 0 500.869 500.869" style="enable-background:new 0 0 500.869 500.869;" xml:space="preserve">
<ellipse style="fill:#FFC610;" cx="250.434" cy="290.4" rx="246.4" ry="124.8"/>
<path style="fill:#FFA412;" d="M4.034,290.4c0-68.8,110.4-124.8,246.4-124.8s246.4,56,246.4,124.8"/>
<path style="fill:#A80404;" d="M237.634,416c0,0,1.6,15.2,4.8,29.6s-16.8,20-8.8,27.2c0,0-4-3.2,4.8-8s11.2-12,8-21.6
	c-3.2-8.8-6.4-28-4.8-32L237.634,416z"/>
<g>
	<path style="fill:#FF0606;" d="M228.834,417.6c0,0,6.4,34.4-6.4,49.6s16,18.4,10.4,21.6s0.8,12,0.8,12s-4-6.4,3.2-8
		s3.2-8.8-4.8-15.2s-5.6-10.4,1.6-23.2s-2.4-28.8-0.8-39.2S228.834,417.6,228.834,417.6z"/>
	<path style="fill:#FF0606;" d="M224.834,433.6c0,0,3.2,29.6-18.4,34.4s-17.6,16.8-17.6,16.8s-8.8-10.4,6.4-18.4
		c14.4-7.2,7.2-1.6,11.2-2.4s2.4-4,8-7.2s8-8.8,8.8-15.2S224.834,433.6,224.834,433.6z"/>
</g>
<path style="fill:#A80404;" d="M214.434,469.6c0,0-20.8,4-8.8,15.2s-0.8,16.8,0.8,11.2c0,0,0.8,10.4,9.6,0.8s-12-15.2-9.6-20
	C209.634,471.2,214.434,469.6,214.434,469.6z"/>
<g>
	<path style="fill:#FF0606;" d="M250.434,439.2c0,0-4.8-15.2-2.4-23.2h2.4V439.2z"/>
	<path style="fill:#FF0606;" d="M249.634,462.4c0,0,0,16.8-4.8,15.2c-4.8-1.6-5.6-7.2,0-8c0,0-7.2-2.4-7.2,4.8
		c0.8,6.4,7.2,12,11.2,8C252.834,477.6,249.634,462.4,249.634,462.4z"/>
</g>
<path style="fill:#A80404;" d="M263.234,416c0,0-1.6,15.2-4.8,29.6c-3.2,14.4,16.8,20,8.8,27.2c0,0,4-3.2-4.8-8s-11.2-12-8-21.6
	c3.2-8.8,6.4-28,4.8-32L263.234,416z"/>
<g>
	<path style="fill:#FF0606;" d="M272.034,417.6c0,0-6.4,34.4,6.4,49.6s-16,18.4-10.4,21.6s-0.8,12-0.8,12s4-6.4-3.2-8
		s-3.2-8.8,4.8-15.2s5.6-10.4-1.6-23.2s2.4-28.8,0.8-39.2S272.034,417.6,272.034,417.6z"/>
	<path style="fill:#FF0606;" d="M276.034,433.6c0,0-3.2,29.6,18.4,34.4s17.6,16.8,17.6,16.8s8.8-10.4-6.4-18.4
		c-14.4-7.2-7.2-1.6-11.2-2.4s-2.4-4-8-7.2s-8-8.8-8.8-15.2S276.034,433.6,276.034,433.6z"/>
</g>
<path style="fill:#A80404;" d="M286.434,469.6c0,0,20.8,4,8.8,15.2s0.8,16.8-0.8,11.2c0,0-0.8,10.4-9.6,0.8c-8.8-9.6,12-15.2,9.6-20
	C291.234,471.2,286.434,469.6,286.434,469.6z"/>
<g>
	<path style="fill:#FF0606;" d="M250.434,439.2c0,0,4.8-15.2,2.4-23.2h-2.4V439.2z"/>
	<path style="fill:#FF0606;" d="M251.234,462.4c0,0,0,16.8,4.8,15.2c4.8-1.6,5.6-7.2,0-8c0,0,7.2-2.4,7.2,4.8
		c-0.8,6.4-7.2,12-11.2,8C248.034,477.6,251.234,462.4,251.234,462.4z"/>
</g>
<path style="fill:#FFA412;" d="M258.434,0v36c0,12-3.2,21.6-8,21.6l0,0c-4.8,0-8-9.6-8-21.6V0"/>
<ellipse style="fill:#C60606;" cx="250.434" cy="174.4" rx="180.8" ry="150.4"/>
<path style="fill:#A80404;" d="M431.234,174.4c0,83.2-80.8,150.4-180.8,150.4s-180.8-67.2-180.8-150.4"/>
<ellipse style="fill:#FF0606;" cx="250.434" cy="174.4" rx="136" ry="150.4"/>
<path style="fill:#D10D0D;" d="M386.434,174.4c0,83.2-60.8,150.4-136,150.4s-136-67.2-136-150.4"/>
<ellipse style="fill:#C60606;" cx="250.434" cy="174.4" rx="74.4" ry="150.4"/>
<path style="fill:#A80404;" d="M324.834,174.4c0,83.2-33.6,150.4-74.4,150.4s-74.4-67.2-74.4-150.4"/>
<ellipse style="fill:#FF0606;" cx="250.434" cy="174.4" rx="27.2" ry="150.4"/>
<path style="fill:#D10D0D;" d="M277.634,174.4c0,83.2-12,150.4-27.2,150.4s-27.2-67.2-27.2-150.4"/>
<g>
	
		<rect x="281.394" y="42.018" transform="matrix(-0.7074 0.7068 -0.7068 -0.7074 526.5685 -120.3447)" style="fill:#FFC610;" width="13.6" height="13.6"/>
	
		<rect x="281.842" y="66.618" transform="matrix(-0.7077 0.7065 -0.7065 -0.7077 544.7863 -78.5506)" style="fill:#FFC610;" width="13.6" height="13.6"/>
	<path style="fill:#FFC610;" d="M292.034,96.8c0,1.6-1.6,3.2-3.2,3.2l0,0c-1.6,0-3.2-1.6-3.2-3.2l0,0c0-1.6,1.6-3.2,3.2-3.2l0,0
		C290.434,92.8,292.034,94.4,292.034,96.8L292.034,96.8z"/>
	<path style="fill:#FFC610;" d="M292.034,119.2c0,1.6-1.6,3.2-3.2,3.2l0,0c-1.6,0-3.2-1.6-3.2-3.2l0,0c0-1.6,1.6-3.2,3.2-3.2l0,0
		C290.434,115.2,292.034,116.8,292.034,119.2L292.034,119.2z"/>
	<path style="fill:#FFC610;" d="M292.034,141.6c0,1.6-1.6,3.2-3.2,3.2l0,0c-1.6,0-3.2-1.6-3.2-3.2l0,0c0-1.6,1.6-3.2,3.2-3.2l0,0
		C290.434,138.4,292.034,139.2,292.034,141.6L292.034,141.6z"/>
	
		<rect x="243.005" y="42.031" transform="matrix(-0.7074 0.7068 -0.7068 -0.7074 461.0336 -93.1892)" style="fill:#FFC610;" width="13.6" height="13.6"/>
	
		<rect x="243.458" y="66.652" transform="matrix(-0.7077 0.7065 -0.7065 -0.7077 479.2619 -51.3749)" style="fill:#FFC610;" width="13.6" height="13.6"/>
	<path style="fill:#FFC610;" d="M253.634,96.8c0,1.6-1.6,3.2-3.2,3.2l0,0c-1.6,0-3.2-1.6-3.2-3.2l0,0c0-1.6,1.6-3.2,3.2-3.2l0,0
		C252.034,92.8,253.634,94.4,253.634,96.8L253.634,96.8z"/>
	<path style="fill:#FFC610;" d="M253.634,119.2c0,1.6-1.6,3.2-3.2,3.2l0,0c-1.6,0-3.2-1.6-3.2-3.2l0,0c0-1.6,1.6-3.2,3.2-3.2l0,0
		C252.034,115.2,253.634,116.8,253.634,119.2L253.634,119.2z"/>
	<path style="fill:#FFC610;" d="M253.634,141.6c0,1.6-1.6,3.2-3.2,3.2l0,0c-1.6,0-3.2-1.6-3.2-3.2l0,0c0-1.6,1.6-3.2,3.2-3.2l0,0
		C252.034,138.4,253.634,139.2,253.634,141.6L253.634,141.6z"/>
	
		<rect x="204.625" y="42.068" transform="matrix(-0.7074 0.7068 -0.7068 -0.7074 395.5293 -65.9985)" style="fill:#FFC610;" width="13.6" height="13.6"/>
	
		<rect x="205.075" y="66.654" transform="matrix(-0.7077 0.7065 -0.7065 -0.7077 413.715 -24.2539)" style="fill:#FFC610;" width="13.6" height="13.6"/>
	<path style="fill:#FFC610;" d="M215.234,96.8c0,1.6-1.6,3.2-3.2,3.2l0,0c-1.6,0-3.2-1.6-3.2-3.2l0,0c0-1.6,1.6-3.2,3.2-3.2l0,0
		C213.634,92.8,215.234,94.4,215.234,96.8L215.234,96.8z"/>
	<path style="fill:#FFC610;" d="M215.234,119.2c0,1.6-1.6,3.2-3.2,3.2l0,0c-1.6,0-3.2-1.6-3.2-3.2l0,0c0-1.6,1.6-3.2,3.2-3.2l0,0
		C213.634,115.2,215.234,116.8,215.234,119.2L215.234,119.2z"/>
	<path style="fill:#FFC610;" d="M215.234,141.6c0,1.6-1.6,3.2-3.2,3.2l0,0c-1.6,0-3.2-1.6-3.2-3.2l0,0c0-1.6,1.6-3.2,3.2-3.2l0,0
		C213.634,138.4,215.234,139.2,215.234,141.6L215.234,141.6z"/>
</g>
<path style="fill:#841212;" d="M313.634,24c0,9.6-8,16-16.8,16h-92c-9.6,0-16.8-6.4-16.8-16l0,0c0-9.6,8-16,16.8-16h91.2
	C305.634,8,313.634,14.4,313.634,24L313.634,24z"/>
<path style="fill:#5E0404;" d="M313.634,23.2L313.634,23.2c0,9.6-8,16.8-16.8,16.8h-92c-9.6,0-16.8-8-16.8-16.8l0,0"/>
<path style="fill:#841212;" d="M289.634,332c0,5.6-4.8,12-10.4,12h-56.8c-5.6,0-10.4-6.4-10.4-12l0,0c0-5.6,4.8-12,10.4-12h56.8
	C284.834,320,289.634,326.4,289.634,332L289.634,332z"/>
<path style="fill:#5E0404;" d="M289.634,332L289.634,332c0,5.6-4.8,12-10.4,12h-56.8c-5.6,0-10.4-5.6-10.4-11.2l0,0"/>
<path style="fill:#841212;" d="M289.634,352c0,5.6-4.8,8-10.4,8h-56.8c-5.6,0-10.4-2.4-10.4-8l0,0c0-5.6,4.8-8,10.4-8h56.8
	C284.834,344,289.634,346.4,289.634,352L289.634,352z"/>
<path style="fill:#5E0404;" d="M289.634,350.4L289.634,350.4c0,5.6-4.8,9.6-10.4,9.6h-56.8c-5.6,0-10.4-4-10.4-10.4l0,0"/>
<g>
	<circle style="fill:#FFA412;" cx="208.834" cy="23.2" r="4"/>
	<circle style="fill:#FFA412;" cx="229.634" cy="23.2" r="4"/>
	<circle style="fill:#FFA412;" cx="250.434" cy="23.2" r="4"/>
	<circle style="fill:#FFA412;" cx="271.234" cy="23.2" r="4"/>
	<path style="fill:#FFA412;" d="M296.834,23.2c0,2.4-1.6,4-4,4s-4-1.6-4-4s1.6-4,4-4C294.434,19.2,296.834,20.8,296.834,23.2z"/>
	<path style="fill:#FFA412;" d="M140.034,192c0,0-16,30.4,11.2,40c27.2,8.8,32,21.6,28.8,32s-16.8,17.6-26.4,3.2
		c-9.6-15.2,5.6-22.4,16-9.6c0,0-5.6-12.8-16-8c-11.2,4.8-2.4,29.6,17.6,27.2s19.2-40-5.6-54.4s-22.4-32-14.4-37.6s20,14.4,6.4,17.6
		c0,0,20.8-3.2,8.8-17.6c-13.6-16-18.4-7.2-20.8-2.4C142.434,187.2,140.034,192,140.034,192z"/>
	<circle style="fill:#FFA412;" cx="183.234" cy="282.4" r="1.6"/>
	<circle style="fill:#FFA412;" cx="190.434" cy="292.8" r="3.2"/>
	<circle style="fill:#FFA412;" cx="197.634" cy="300" r="0.8"/>
	<circle style="fill:#FFA412;" cx="204.834" cy="305.6" r="0.8"/>
	<circle style="fill:#FFA412;" cx="165.634" cy="263.2" r="2.4"/>
	<circle style="fill:#FFA412;" cx="154.434" cy="196" r="3.2"/>
	<path style="fill:#FFA412;" d="M161.634,209.6c0,0,6.4-0.8,9.6-10.4c0,0,4,10.4-2.4,11.2S161.634,209.6,161.634,209.6z"/>
	<path style="fill:#FFA412;" d="M166.434,215.2l8-1.6c0,0-2.4,5.6-4,4S166.434,215.2,166.434,215.2z"/>
	<path style="fill:#FFA412;" d="M212.034,205.6c0,0.8-0.8,1.6-1.6,1.6h-20.8c-0.8,0-1.6-0.8-1.6-1.6l0,0c0-0.8,0.8-1.6,1.6-1.6h20.8
		C211.234,204.8,212.034,204.8,212.034,205.6L212.034,205.6z"/>
	<path style="fill:#FFA412;" d="M212.834,216.8c0,0.8-0.8,1.6-0.8,1.6h-20.8c-0.8,0-0.8-0.8-0.8-1.6l0,0c0-0.8,0.8-1.6,0.8-1.6h20.8
		C212.034,216,212.834,216,212.834,216.8L212.834,216.8z"/>
	<path style="fill:#FFA412;" d="M213.634,228c0,0.8-0.8,1.6-1.6,1.6h-20.8c-0.8,0-0.8-0.8-0.8-1.6l0,0c0-0.8,0.8-1.6,0.8-1.6h20.8
		C213.634,227.2,213.634,227.2,213.634,228L213.634,228z"/>
	<path style="fill:#FFA412;" d="M215.234,239.2c0,0.8-0.8,1.6-1.6,1.6h-20.8c-0.8,0-1.6-0.8-1.6-1.6l0,0c0-0.8,0.8-1.6,1.6-1.6h20.8
		C214.434,238.4,215.234,239.2,215.234,239.2L215.234,239.2z"/>
	<path style="fill:#FFA412;" d="M360.834,192c0,0,16,30.4-11.2,40c-27.2,8.8-32,21.6-28.8,32s16.8,17.6,26.4,3.2
		c9.6-15.2-5.6-22.4-16-9.6c0,0,5.6-12.8,16-8c11.2,4.8,2.4,29.6-17.6,27.2s-19.2-40,5.6-54.4c24.8-14.4,22.4-32,14.4-37.6
		s-20,14.4-6.4,17.6c0,0-20.8-3.2-8.8-17.6c13.6-16,18.4-7.2,20.8-2.4C358.434,187.2,360.834,192,360.834,192z"/>
	<circle style="fill:#FFA412;" cx="317.634" cy="282.4" r="1.6"/>
	<circle style="fill:#FFA412;" cx="310.434" cy="292.8" r="3.2"/>
	<circle style="fill:#FFA412;" cx="303.234" cy="300" r="0.8"/>
	<circle style="fill:#FFA412;" cx="296.034" cy="305.6" r="0.8"/>
	<circle style="fill:#FFA412;" cx="335.234" cy="263.2" r="2.4"/>
	<circle style="fill:#FFA412;" cx="346.434" cy="196" r="3.2"/>
	<path style="fill:#FFA412;" d="M339.234,209.6c0,0-6.4-0.8-9.6-10.4c0,0-4,10.4,2.4,11.2S339.234,209.6,339.234,209.6z"/>
	<path style="fill:#FFA412;" d="M334.434,215.2l-8-1.6c0,0,2.4,5.6,4,4S334.434,215.2,334.434,215.2z"/>
	<path style="fill:#FFA412;" d="M288.834,205.6c0,0.8,0.8,1.6,1.6,1.6h20.8c0.8,0,1.6-0.8,1.6-1.6l0,0c0-0.8-0.8-1.6-1.6-1.6h-20.8
		C289.634,204.8,288.834,204.8,288.834,205.6L288.834,205.6z"/>
	<path style="fill:#FFA412;" d="M288.034,216.8c0,0.8,0.8,1.6,0.8,1.6h20.8c0.8,0,1.6-0.8,1.6-1.6l0,0c0-0.8-0.8-1.6-1.6-1.6h-20.8
		C288.834,216,288.034,216,288.034,216.8L288.034,216.8z"/>
	<path style="fill:#FFA412;" d="M287.234,228c0,0.8,0.8,1.6,1.6,1.6h20.8c0.8,0,0.8-0.8,0.8-1.6l0,0c0-0.8-0.8-1.6-0.8-1.6h-20.8
		C287.234,227.2,287.234,227.2,287.234,228L287.234,228z"/>
	<path style="fill:#FFA412;" d="M285.634,239.2c0,0.8,0.8,1.6,1.6,1.6h20.8c0.8,0,1.6-0.8,1.6-1.6l0,0c0-0.8-0.8-1.6-1.6-1.6h-20.8
		C286.434,238.4,285.634,239.2,285.634,239.2L285.634,239.2z"/>
</g>
<path style="fill:#FF0606;" d="M234.434,409.6c0,1.6-1.6,3.2-3.2,3.2h-2.4c-1.6,0-3.2-1.6-3.2-3.2v-50.4c0-1.6,1.6-3.2,3.2-3.2h2.4
	c1.6,0,3.2,1.6,3.2,3.2V409.6z"/>
<path style="fill:#A80404;" d="M242.434,408c0,1.6-2.4,3.2-4,3.2l0,0c-1.6,0-4-1.6-4-3.2v-48.8c0-1.6,2.4-3.2,4-3.2l0,0
	c1.6,0,4,1.6,4,3.2V408z"/>
<path style="fill:#FF0606;" d="M250.434,409.6c0,1.6-1.6,3.2-3.2,3.2h-2.4c-1.6,0-3.2-1.6-3.2-3.2v-50.4c0-1.6,1.6-3.2,3.2-3.2h2.4
	c1.6,0,3.2,1.6,3.2,3.2V409.6z"/>
<g>
	<path style="fill:#A80404;" d="M258.434,408c0,1.6-2.4,3.2-4,3.2l0,0c-1.6,0-4-1.6-4-3.2v-48.8c0-1.6,2.4-3.2,4-3.2l0,0
		c1.6,0,4,1.6,4,3.2V408z"/>
	<path style="fill:#A80404;" d="M274.434,408c0,1.6-2.4,3.2-4,3.2l0,0c-1.6,0-4-1.6-4-3.2v-48.8c0-1.6,2.4-3.2,4-3.2l0,0
		c1.6,0,4,1.6,4,3.2V408z"/>
</g>
<path style="fill:#FF0606;" d="M266.434,409.6c0,1.6-1.6,3.2-3.2,3.2h-2.4c-1.6,0-3.2-1.6-3.2-3.2v-50.4c0-1.6,1.6-3.2,3.2-3.2h2.4
	c1.6,0,3.2,1.6,3.2,3.2V409.6z"/>
<rect x="218.434" y="408" style="fill:#841212;" width="64" height="8"/>
<circle style="fill:#A80404;" cx="240.834" cy="498.4" r="2.4"/>
<circle style="fill:#FF0606;" cx="250.434" cy="498.4" r="2.4"/>
<circle style="fill:#A80404;" cx="260.034" cy="498.4" r="2.4"/>
<path style="fill:#FF0606;" d="M256.034,490.4c0,0.8-0.8,1.6-1.6,1.6h-8.8c-0.8,0-1.6-0.8-1.6-1.6l0,0c0-0.8,0.8-1.6,1.6-1.6h8.8
	C255.234,488.8,256.034,489.6,256.034,490.4L256.034,490.4z"/>
<g>
	<polygon style="fill:#FFA412;" points="263.234,208.8 272.834,199.2 250.434,160.8 228.034,199.2 237.634,208.8 250.434,196 	"/>
	<polygon style="fill:#FFA412;" points="250.434,222.4 237.634,208.8 228.034,218.4 250.434,256.8 272.834,218.4 263.234,208.8 	"/>
	<polygon style="fill:#FFA412;" points="256.834,285.6 262.434,280.8 250.434,260.8 239.234,280.8 244.034,285.6 250.434,278.4 	"/>
	<polygon style="fill:#FFA412;" points="250.434,292 244.034,285.6 239.234,290.4 250.434,310.4 262.434,290.4 256.834,285.6 	"/>
</g>
<g>
</g>
<g>
</g>
<g>
</g>
<g>
</g>
<g>
</g>
<g>
</g>
<g>
</g>
<g>
</g>
<g>
</g>
<g>
</g>
<g>
</g>
<g>
</g>
<g>
</g>
<g>
</g>
<g>
</g>
</svg>
