<?xml version="1.0" encoding="iso-8859-1"?>
<!-- Generator: Adobe Illustrator 19.0.0, SVG Export Plug-In . SVG Version: 6.00 Build 0)  -->
<svg version="1.1" id="Layer_1" xmlns="http://www.w3.org/2000/svg" xmlns:xlink="http://www.w3.org/1999/xlink" x="0px" y="0px"
	 viewBox="0 0 511.994 511.994" style="enable-background:new 0 0 511.994 511.994;" xml:space="preserve">
<path style="fill:#BDC3C7;" d="M449.282,150.286c6.887,6.887,6.896,18.052,0.018,24.939c-0.009,0.009-0.009,0.009-0.018,0.018
	l-44.093,44.093l-194.01,193.48l-43.652,44.093c-6.887,6.887-18.052,6.896-24.939,0.018c-0.009-0.009-0.009-0.009-0.018-0.018
	c-6.887-6.887-18.052-6.896-24.939-0.018c-0.009,0.009-0.009,0.009-0.018,0.018c-6.887,6.887-6.896,18.052-0.018,24.939
	c0.009,0.009,0.009,0.009,0.018,0.018c6.887,6.887,6.896,18.052,0.018,24.939c-0.009,0.009-0.009,0.009-0.018,0.018
	c-6.887,6.887-18.052,6.896-24.939,0.018c-0.009-0.009-0.009-0.009-0.018-0.018L5.353,419.519
	c-6.887-6.887-6.896-18.052-0.018-24.939c0.009-0.009,0.009-0.009,0.018-0.018c6.887-6.887,18.052-6.896,24.939-0.018
	c0.009,0.009,0.009,0.009,0.018,0.018c3.325,3.298,7.831,5.141,12.522,5.115c4.665,0.062,9.163-1.781,12.434-5.115
	c6.887-6.887,6.896-18.052,0.018-24.939c-0.009-0.009-0.009-0.009-0.018-0.018c-6.834-6.879-6.834-17.99,0-24.868l43.652-44.093
	l194.01-193.569l44.093-44.093c6.887-6.887,18.052-6.896,24.939-0.018c0.009,0.009,0.009,0.009,0.018,0.018l0,0
	c43.035-39.419,120.11-79.368,143.038-56.086S488.701,107.163,449.282,150.286L449.282,150.286z"/>
<rect x="115.487" y="180.958" transform="matrix(0.7072 -0.707 0.707 0.7072 -110.1652 254.6348)" style="fill:#5E5F62;" width="273.727" height="158.734"/>
<g>
</g>
<g>
</g>
<g>
</g>
<g>
</g>
<g>
</g>
<g>
</g>
<g>
</g>
<g>
</g>
<g>
</g>
<g>
</g>
<g>
</g>
<g>
</g>
<g>
</g>
<g>
</g>
<g>
</g>
</svg>
